<?xml version="1.0" standalone="no"?>
<!DOCTYPE svg PUBLIC "-//W3C//DTD SVG 1.1//EN" "http://www.w3.org/Graphics/SVG/1.1/DTD/svg11.dtd" >
<svg xmlns="http://www.w3.org/2000/svg">
<metadata></metadata>
<defs>
<font id="childlinebold_italic" horiz-adv-x="1247" >
<font-face units-per-em="2048" ascent="1638" descent="-410" />
<missing-glyph horiz-adv-x="499" />
<glyph horiz-adv-x="0" />
<glyph horiz-adv-x="682" />
<glyph horiz-adv-x="10" />
<glyph horiz-adv-x="10" />
<glyph unicode="&#xd;" horiz-adv-x="10" />
<glyph unicode=" "  horiz-adv-x="499" />
<glyph unicode="&#x09;" horiz-adv-x="499" />
<glyph unicode="&#xa0;" horiz-adv-x="499" />
<glyph unicode="!" horiz-adv-x="602" d="M31 143q-13 -58 19 -99.5t91 -41.5q58 0 108 41t64 100q12 59 -21 100.5t-91 41.5t-108 -41.5t-62 -100.5zM119 547l196 921h275l-197 -921h-274z" />
<glyph unicode="&#x22;" horiz-adv-x="907" d="M84 858l25 121q45 31 80.5 82.5t48.5 107.5q-34 6 -56 23t-28.5 37t-9 40.5t2.5 33.5q12 56 60.5 94.5t103.5 38.5q67 0 97 -55t12 -134q-5 -26 -16 -57t-36.5 -77.5t-60.5 -89t-93.5 -88t-129.5 -77.5zM457 858l24 121q45 31 80.5 82.5t48.5 107.5q-34 6 -56 23t-28 37 t-8.5 40.5t2.5 33.5q12 56 60.5 94.5t103.5 38.5q67 0 97 -55t12 -134q-5 -26 -16 -57t-36.5 -77.5t-60.5 -89t-93.5 -88t-129.5 -77.5z" />
<glyph unicode="#" horiz-adv-x="1492" d="M4 383l45 205h279l127 280h-250l41 193h297l178 393h221l-180 -393h246l176 393h221l-178 -393h250l-41 -193h-297l-127 -280h268l-45 -205h-317l-175 -383h-221l176 383h-245l-172 -383h-222l174 383h-229zM547 588h246l125 280h-244z" />
<glyph unicode="$" horiz-adv-x="1308" d="M-45 172l176 244q33 -44 144.5 -102.5t240.5 -71.5l74 352l-70 20q-138 40 -214.5 87t-107.5 122t-8 185q43 200 199 318t367 134l45 209h123l-43 -207q230 -19 411 -159l-174 -230q-26 36 -117 82t-194 57l-76 -354l49 -12q54 -14 97 -28t84.5 -31.5t72 -37.5t57 -44.5 t42.5 -54t25.5 -65t8.5 -78t-12 -91.5q-23 -108 -80 -191t-138 -133t-174 -76t-198 -30l-47 -226h-123l49 228q-142 11 -269.5 58.5t-219.5 125.5zM492 1053q-13 -66 24 -102.5t135 -67.5l72 331q-200 -12 -231 -161zM598 238q220 6 250 149q14 66 -30.5 106.5t-147.5 75.5z " />
<glyph unicode="%" horiz-adv-x="1634" d="M61 96l719 674l682 700l103 -110l-707 -660l-696 -714zM170 1165q28 129 146.5 219.5t258.5 90.5q142 0 220.5 -90.5t50.5 -219.5q-28 -131 -145 -221t-259 -90q-140 0 -220 90.5t-52 220.5zM362 1165q-15 -72 17.5 -123t91.5 -51q60 0 114.5 52t67.5 122q15 70 -17 121 t-91 51q-60 0 -114 -51.5t-69 -120.5zM778 289q28 130 145 220.5t257 90.5q142 0 221 -90t51 -221q-28 -129 -145.5 -219t-259.5 -90q-140 0 -218.5 90t-50.5 219zM969 289q-15 -70 17 -121t91 -51q61 0 115.5 51t69.5 121q15 72 -18 123t-93 51t-114.5 -52t-67.5 -122z" />
<glyph unicode="&#x26;" horiz-adv-x="1476" d="M16 412q14 65 46.5 124t79.5 108.5t97 89.5t113 79q-64 96 -83.5 165t-4.5 146q33 155 166 252t305 97q162 0 257 -85t63 -237q-23 -111 -107 -201t-221 -174l219 -293q95 141 131 314h223q-64 -287 -231 -482l236 -315h-361l-90 121q-210 -141 -438 -141q-145 0 -246 60 t-140 158t-14 214zM281 410q-19 -90 39.5 -152.5t168.5 -62.5q128 0 250 81l-260 357q-87 -55 -136 -108t-62 -115zM516 1133q-7 -34 9 -69t71 -110q102 57 150 98.5t59 94.5q10 55 -21.5 89t-91.5 34q-65 0 -114.5 -39.5t-61.5 -97.5z" />
<glyph unicode="'" horiz-adv-x="509" d="M84 858l25 121q45 31 80.5 82.5t48.5 107.5q-34 6 -56 23t-28.5 37t-9 40.5t2.5 33.5q12 56 60.5 94.5t103.5 38.5q67 0 97 -55t12 -134q-5 -26 -16 -57t-36.5 -77.5t-60.5 -89t-93.5 -88t-129.5 -77.5z" />
<glyph unicode="(" horiz-adv-x="641" d="M68 711q41 191 161.5 390.5t319.5 448.5l192 -88q-68 -78 -147 -191t-162 -275t-110 -291q-60 -290 98 -713l-219 -101q-212 452 -133 820z" />
<glyph unicode=")" horiz-adv-x="641" d="M-102 -8q344 427 403 713q19 112 18 218.5t-22.5 216.5t-44.5 188t-47 134l229 88q36 -94 61 -172t46.5 -168t30.5 -168.5t6.5 -164t-19.5 -166.5q-78 -365 -481 -820z" />
<glyph unicode="*" horiz-adv-x="716" d="M109 1255l63 119l135 -63l25 157h145l-45 -157l162 63l10 -119l-151 -45l65 -145l-123 -70l-59 154l-127 -154l-90 70l127 145z" />
<glyph unicode="+" horiz-adv-x="878" d="M76 616l45 222h213l49 231h246l-49 -231h211l-46 -222h-210l-50 -231h-245l49 231h-213z" />
<glyph unicode="," horiz-adv-x="526" d="M84 -309l25 119q45 31 80.5 82.5t48.5 107.5q-45 8 -68.5 34.5t-23.5 52.5t1 46q12 56 60.5 94.5t103.5 38.5q67 0 97 -54.5t12 -133.5q-4 -21 -12.5 -46t-25 -60.5t-42.5 -72t-60.5 -74t-85 -73t-110.5 -61.5z" />
<glyph unicode="-" horiz-adv-x="864" d="M90 438l53 248h621l-53 -248h-621z" />
<glyph unicode="." horiz-adv-x="468" d="M90 143q12 58 62.5 100t109.5 42q58 0 90.5 -41.5t20.5 -100.5q-12 -58 -62.5 -99.5t-109.5 -41.5q-58 0 -90.5 41t-20.5 100z" />
<glyph unicode="/" horiz-adv-x="1439" d="M-96 0l1321 1454h305l-1323 -1454h-303z" />
<glyph unicode="0" horiz-adv-x="1447" d="M68.5 548.5q-0.5 85.5 17.5 168.5q28 132 101 263t175 236.5t238 171.5t277 66q87 0 161 -24t128 -66.5t95 -100t64.5 -123.5t35 -138t9 -144t-17.5 -141q-23 -106 -73.5 -212t-125.5 -200.5t-166 -167t-201.5 -115t-224.5 -42.5q-100 0 -183.5 32t-139.5 87t-95.5 127 t-56.5 154.5t-17.5 168zM354.5 579q-1.5 -68 13 -131.5t44.5 -112t82 -77.5t120 -29q70 0 136 31t116.5 81.5t92.5 115t68.5 130.5t39.5 130q15 69 16 138t-15 132t-46 111t-81.5 77t-117.5 29q-70 0 -136 -31t-116.5 -81.5t-92 -115t-68 -130t-39.5 -129.5 q-15 -70 -16.5 -138z" />
<glyph unicode="1" horiz-adv-x="1040" d="M-25 0l54 248h284l201 946q-49 -53 -171 -114.5t-200 -61.5l56 254q41 0 94 19.5t99 47t87.5 57t65 49t26.5 23.5h281l-258 -1220h260l-53 -248h-826z" />
<glyph unicode="2" horiz-adv-x="1263" d="M-66 0q60 283 173 431t346 251q24 10 72.5 31t74 32t67.5 32t65.5 36.5t55 40t49.5 48t34.5 55.5t23.5 67q20 93 -24.5 147t-145.5 54q-106 0 -207 -51t-182 -123l-135 180q40 37 95.5 75t133.5 77.5t178.5 64.5t202.5 25q233 0 335 -122t60 -323q-15 -73 -48 -134 t-72 -104.5t-98 -85t-110.5 -68.5t-125.5 -61q-180 -82 -268.5 -154t-110.5 -173h669l-51 -248h-1057z" />
<glyph unicode="3" horiz-adv-x="1212" d="M-12 266l184 180q-1 -30 14.5 -65t47 -69t89 -56.5t130.5 -22.5q112 0 199.5 53t107.5 142q21 102 -78 154.5t-299 52.5h-68l50 229h67q173 0 287 49t135 146q13 57 -12.5 97.5t-68.5 57.5t-95 17q-114 0 -204.5 -49t-143.5 -117l-133 199q90 97 236.5 153t293.5 56 q218 0 338.5 -115t85.5 -285q-26 -120 -115.5 -200.5t-224.5 -108.5q87 -16 145.5 -70t78.5 -133t1 -170q-21 -100 -85 -180t-152.5 -129t-190 -74.5t-205.5 -25.5q-178 0 -286.5 74t-128.5 210z" />
<glyph unicode="4" horiz-adv-x="1204" d="M-33 330l51 245l885 879h189l-187 -876h180l-51 -248h-180l-70 -330h-274l70 330h-613zM295 578h367l100 462z" />
<glyph unicode="5" horiz-adv-x="1179" d="M-29 233l193 164q42 -80 118 -127t167 -47q111 0 195.5 68t107.5 176q23 104 -30 171t-155 67q-67 0 -132.5 -30.5t-110.5 -84.5h-240l352 864h717l-53 -250h-518l-127 -325q68 61 200 61q136 0 232.5 -59t136.5 -166t12 -242q-47 -218 -228 -355.5t-415 -137.5 q-158 0 -270 67t-152 186z" />
<glyph unicode="6" horiz-adv-x="1253" d="M78 647q84 392 279.5 604.5t457.5 212.5q137 0 242 -59.5t160 -169.5l-195 -172q-32 77 -101.5 120.5t-160.5 43.5q-137 0 -242 -110.5t-149 -305.5q57 74 147.5 117t192.5 43q141 0 243.5 -64t144.5 -175.5t13 -246.5q-29 -140 -123 -255.5t-230 -182.5t-284 -67 q-249 0 -355 177t-40 490zM311 485q-23 -110 39.5 -192t171.5 -82t206 81t120 193q25 110 -37.5 188.5t-173.5 78.5q-110 0 -205.5 -78.5t-120.5 -188.5z" />
<glyph unicode="7" horiz-adv-x="1161" d="M-25 0l856 1204h-659l51 250h1094l-1030 -1454h-312z" />
<glyph unicode="8" horiz-adv-x="1249" d="M31 440q24 113 111 201.5t190 136.5q-72 38 -108.5 113t-16.5 160q20 93 80.5 171.5t141.5 128t170.5 76.5t174.5 27q86 0 165 -26.5t140 -75t89 -127t8 -172.5q-18 -86 -88.5 -162.5t-157.5 -112.5q87 -49 134 -140t21 -208q-28 -132 -122 -235t-225.5 -158t-276.5 -55 q-107 0 -196.5 34t-148.5 94t-82.5 146t-2.5 184zM311 446q-21 -95 42 -156t163 -61q99 0 187 62.5t108 154.5q21 98 -42 158t-163 60q-102 0 -188.5 -61.5t-106.5 -156.5zM483 1042q-18 -79 35.5 -125.5t132.5 -46.5t152.5 47t91.5 127q15 73 -35.5 119.5t-136.5 46.5 q-85 0 -155 -47.5t-85 -120.5z" />
<glyph unicode="9" horiz-adv-x="1253" d="M27 211l194 172q32 -77 101.5 -120.5t160.5 -43.5q138 0 242.5 110t148.5 306q-58 -74 -147.5 -117t-191.5 -43q-215 0 -330.5 139.5t-71.5 343.5q29 140 123 256.5t230 183t284 66.5q249 0 355.5 -176t39.5 -489q-84 -392 -279.5 -605.5t-457.5 -213.5q-137 0 -240.5 60 t-160.5 171zM395 961q-25 -110 38.5 -188.5t172.5 -78.5q110 0 205.5 77.5t120.5 186.5q23 112 -39.5 194.5t-171.5 82.5t-206 -82t-120 -192z" />
<glyph unicode=":" horiz-adv-x="507" d="M20 143q12 58 63 100t110 42q58 0 90 -41.5t20 -100.5q-12 -58 -61.5 -99.5t-108.5 -41.5t-92 41.5t-21 99.5zM186 907q12 59 62 100.5t108 41.5q59 0 92 -42t21 -100t-62.5 -99.5t-109.5 -41.5q-58 0 -90.5 41t-20.5 100z" />
<glyph unicode=";" horiz-adv-x="532" d="M0 -309q72 31 130.5 76t93.5 87.5t61 89t37 77.5t16 57q16 80 -13.5 134t-97.5 54q-55 0 -103 -38.5t-58 -94.5q-2 -20 -2 -46t23.5 -52.5t68.5 -34.5q-15 -57 -50 -108t-79 -82zM227 907q12 59 62 100.5t110 41.5q58 0 90.5 -41.5t20.5 -100.5q-12 -58 -62.5 -99.5 t-109.5 -41.5q-58 0 -90.5 41t-20.5 100z" />
<glyph unicode="&#x3c;" horiz-adv-x="1052" d="M51 457l27 133l977 522l-64 -291l-526 -291l405 -278l-65 -307z" />
<glyph unicode="=" horiz-adv-x="905" d="M70 295l36 178h642l-37 -178h-641zM147 657l37 179h641l-37 -179h-641z" />
<glyph unicode="&#x3e;" horiz-adv-x="1052" d="M-12 -55l65 307l525 278l-404 291l64 291l751 -522l-26 -133z" />
<glyph unicode="?" horiz-adv-x="1013" d="M102 141q-12 -59 20.5 -100t92.5 -41q59 0 108.5 41.5t61.5 99.5q12 59 -20.5 100.5t-90.5 41.5q-59 0 -109.5 -42t-62.5 -100zM174 1208q78 124 209.5 194.5t273.5 70.5q81 0 149.5 -23t121.5 -72t71.5 -125.5t-0.5 -183.5q-27 -122 -97.5 -200t-190.5 -144 q-21 -11 -72 -37t-75.5 -41t-58.5 -41t-53 -57.5t-28 -71.5h-225q24 111 75.5 187.5t159.5 132.5q12 6 53 26t67 33.5t65 39t64 49t47 57.5t30 71q18 81 -30 128.5t-128 47.5q-145 0 -276 -164z" />
<glyph unicode="@" horiz-adv-x="1722" d="M81.5 158q-29.5 142 8.5 315q30 141 97.5 264t160 213.5t204.5 155t233.5 97t244.5 32.5q154 0 280 -51t212 -150t116 -244t-8 -333q-7 -32 -15.5 -65t-27 -83.5t-40.5 -94.5t-56 -91t-73.5 -80t-94 -54.5t-115.5 -21.5q-63 0 -110 19.5t-70.5 51t-33.5 64t-7 64.5 q-120 -152 -293 -152q-169 0 -245 123t-37 309q39 185 163 308t281 123q92 0 156.5 -43.5t89.5 -118.5l28 137h213l-73 -336l-62 -289q-16 -70 10.5 -103.5t69.5 -33.5q40 0 79.5 40.5t69 102.5t49.5 121t32 111q39 185 -12 335t-184.5 237t-326.5 87q-286 0 -507 -184 t-283 -469q-21 -110 -15.5 -208.5t45 -181t102.5 -142.5t156.5 -93.5t206.5 -33.5q87 0 161 19t171 58l12 -106q-186 -82 -376 -82q-152 0 -276 56t-202.5 157.5t-108 243.5zM610 442q-22 -104 27.5 -174.5t148.5 -70.5q138 0 236 139l43 196q-14 73 -63 118.5t-117 45.5 q-95 0 -174.5 -77t-100.5 -177z" />
<glyph unicode="A" horiz-adv-x="1392" d="M-150 0l881 1454h230l264 -1454h-299l-58 362h-510l-208 -362h-300zM449 561h411l-78 588z" />
<glyph unicode="B" horiz-adv-x="1402" d="M-2 0l307 1454h778q74 0 131.5 -32.5t87.5 -85.5q28 -52 40 -118q5 -27 5 -54q0 -40 -10 -81q-24 -110 -98.5 -202.5t-181.5 -135.5q119 -37 169 -133q32 -60 32 -138q0 -46 -11 -99q-37 -176 -191.5 -275.5t-355.5 -99.5h-702zM330 240h420q76 0 142 55t83 133 q5 25 5 48q0 50 -25 90q-37 58 -109 57h-434zM459 846h377q73 0 133.5 50t77.5 134q6 28 6 52q0 47 -23 80q-35 50 -104 50h-389z" />
<glyph unicode="C" horiz-adv-x="1382" d="M52 579q2 78 16 158q29 134 104.5 263t184 232t256.5 166.5t307 63.5q189 0 314.5 -86t164.5 -231l-250 -150q-16 78 -63.5 128.5t-104 69.5t-123.5 19q-97 0 -185 -42.5t-152 -112.5t-108 -154.5t-63 -173.5q-13 -64 -14 -124q0 -61 14 -117q28 -112 108 -181t197 -69 q104 0 211 55t176 166l205 -133q-97 -155 -284.5 -246.5t-368.5 -91.5q-85 0 -160.5 22t-134 62t-106.5 95t-77.5 120.5t-47.5 139.5q-17 68 -17 140q1 6 1 12z" />
<glyph unicode="D" horiz-adv-x="1480" d="M-2 0l307 1454h529q117 0 213 -26t163.5 -73t115.5 -113t69 -146.5t23 -173.5v-18q0 -85 -21 -175q-69 -330 -306.5 -529.5t-564.5 -199.5h-528zM332 248h246q204 0 347 134.5t187 346.5q15 74 15 137q-1 123 -57 209q-86 131 -288 131h-245z" />
<glyph unicode="E" d="M-2 0l307 1454h991l-51 -248h-708l-76 -350h612l-47 -229h-612l-82 -379h727l-51 -248h-1010z" />
<glyph unicode="F" horiz-adv-x="1179" d="M-2 0l307 1454h977l-51 -248h-694l-80 -375h577l-49 -229h-577l-127 -602h-283z" />
<glyph unicode="G" horiz-adv-x="1488" d="M52 546q-2 21 -2 41q0 73 18 148q24 112 78.5 219.5t136 199.5t181 161.5t220 109t246.5 39.5q183 0 309.5 -80t181.5 -225l-260 -176q-10 29 -23.5 55.5t-39 60t-56.5 57.5t-78.5 41t-103.5 17q-93 0 -180 -42t-152 -111t-111 -155.5t-65 -178.5q-12 -70 -13 -139v-6 q0 -66 21 -126q21 -63 56.5 -111t96.5 -76.5t138 -28.5q135 0 257 83.5t177 198.5h-319l51 246h625q0 -13 -31 -137q-33 -129 -107.5 -246t-176 -204.5t-232.5 -139t-270 -51.5q-103 0 -193.5 28.5t-157 79.5t-117 121t-75 152.5t-30.5 174.5z" />
<glyph unicode="H" horiz-adv-x="1536" d="M-2 0l307 1454h283l-125 -588h659l125 588h281l-307 -1454h-281l131 621h-659l-131 -621h-283z" />
<glyph unicode="I" horiz-adv-x="595" d="M-2 0l307 1452h283l-307 -1452h-283z" />
<glyph unicode="J" horiz-adv-x="1024" d="M-115 68l113 229q29 -25 92.5 -47.5t142.5 -22.5q68 0 119 20.5t87 55.5t65 99.5t49 134.5t43 178l158 737h282l-157 -737q-22 -103 -43.5 -180.5t-52.5 -158t-68 -138t-88.5 -109.5t-115 -83.5t-147 -50t-184.5 -18.5q-181 0 -295 91z" />
<glyph unicode="K" horiz-adv-x="1376" d="M-2 0l307 1452h283l-150 -709l779 711h292l-692 -645l420 -809h-299l-326 649l-239 -211l-92 -438h-283z" />
<glyph unicode="L" horiz-adv-x="1216" d="M-2 0l307 1454h283l-256 -1206h741l-51 -248h-1024z" />
<glyph unicode="M" horiz-adv-x="1781" d="M-2 0l307 1454h303l256 -827l609 827h301l-308 -1454h-282l202 963l-526 -717h-153l-224 717l-202 -963h-283z" />
<glyph unicode="N" horiz-adv-x="1572" d="M-2 0l307 1454h219l555 -954l203 952h283l-308 -1452h-229l-551 932l-196 -932h-283z" />
<glyph unicode="O" horiz-adv-x="1525" d="M51 543q-1 17 -1 34q0 74 18 150q30 144 112 278.5t194.5 235.5t256 162t289.5 61q101 0 188 -29.5t149.5 -81t110 -122t69.5 -153.5q21 -82 27 -172q1 -18 2 -37q0 -73 -18 -146q-30 -143 -111.5 -276.5t-193.5 -234.5t-255 -161.5t-290 -60.5q-101 0 -188 28.5 t-150.5 79.5t-111 120.5t-70 151.5t-27.5 173zM362 447q23 -62 60.5 -108t97.5 -72.5t135 -26.5q94 0 181.5 42t151.5 111.5t110 156t65 177.5q13 71 13 138v9q-1 71 -24.5 132.5t-61.5 107.5t-97.5 72t-132.5 26q-94 0 -181 -42t-151.5 -111t-110.5 -155t-65 -177 q-14 -73 -14 -142q0 -75 24 -138z" />
<glyph unicode="P" horiz-adv-x="1282" d="M-2 0l307 1454h617q129 0 222 -72q92 -72 128 -182q20 -64 21 -130q0 -49 -11 -99q-19 -93 -70.5 -180.5t-124 -154.5t-167.5 -108t-193 -41h-344l-102 -487h-283zM436 735h328q79 0 143.5 65t87.5 171q8 38 8 71q0 60 -28 100q-44 64 -123 64h-315z" />
<glyph unicode="Q" horiz-adv-x="1529" d="M53 508q-1 23 -1 47q0 84 16 172q30 144 112 278.5t194.5 235.5t256 162t289.5 61q101 0 188 -29.5t149.5 -81t110 -122t69.5 -153t27 -172.5q2 -19 2 -37q0 -72 -18 -146q-30 -137 -104 -264t-179 -228l158 -231h-268l-68 98q-189 -108 -389 -108q-120 1 -220.5 42 t-166.5 111t-109 164t-49 201zM362 447q23 -62 60.5 -108t97.5 -72.5t135 -26.5q107 0 201 51l-168 248h268l70 -103q100 126 137 291q13 71 13 138v9q-1 71 -24 133t-60.5 108t-97 72.5t-132.5 26.5q-94 0 -181.5 -42t-152.5 -111.5t-111 -156t-65 -177.5q-14 -73 -14 -142 q0 -75 24 -138z" />
<glyph unicode="R" horiz-adv-x="1390" d="M-2 0l307 1454h643q78 0 145 -27.5t112.5 -74t76 -108.5t35.5 -132l2 -38q0 -51 -10 -103q-29 -140 -126 -256.5t-227 -167.5l228 -547h-320l-202 487h-279l-102 -487h-283zM436 735h355q78 0 145.5 68.5t87.5 167.5q7 32 7 60q-1 61 -31 107q-44 68 -121 68h-342z" />
<glyph unicode="S" horiz-adv-x="1269" d="M-70 172l176 244q41 -52 174 -115t279 -63q115 0 182 38.5t82 110.5q3 15 3 29q0 20 -6 37q-12 29 -35.5 49.5t-68.5 40t-90 33.5t-115 34q-10 3 -15 4q-138 40 -214.5 87t-107.5 122q-18 43 -18 98q0 41 10 87q31 144 125.5 249t224 156t279.5 51q269 0 473 -161 l-174 -230q-29 41 -137 92.5t-224 51.5q-114 0 -181.5 -42.5t-84.5 -121.5q-4 -18 -4 -33q-1 -57 49 -87q62 -38 244 -87q54 -15 96 -29t84 -32t72.5 -37.5t57 -44t42.5 -54t26 -64.5q9 -32 8 -69v-8q-1 -42 -12 -92q-25 -114 -86 -199t-147.5 -135t-185.5 -74t-211 -24 q-163 0 -314 49.5t-256 138.5z" />
<glyph unicode="T" horiz-adv-x="1280" d="M131 1206l51 248h1211l-52 -248h-462l-256 -1206h-283l256 1206h-465z" />
<glyph unicode="U" horiz-adv-x="1542" d="M127 713l158 741h282l-157 -741q-16 -76 -19 -143q-1 -13 -1 -25q0 -53 11 -103q13 -62 43 -106t85.5 -70t132.5 -26q97 0 177 39.5t134 108.5t89.5 149.5t55.5 175.5l158 741h280l-157 -741q-26 -122 -71 -228t-114 -198t-156 -157t-202 -102.5t-246 -37.5 q-135 0 -235.5 39.5t-158.5 106.5t-86 160q-28 91 -29 193q0 105 26 224z" />
<glyph unicode="V" horiz-adv-x="1388" d="M154 1454h297l159 -1100l623 1100h297l-875 -1454h-237z" />
<glyph unicode="W" horiz-adv-x="2265" d="M166 1454h317l92 -1032l549 1032h306l122 -1030l527 1030h319l-764 -1454h-291l-161 993l-576 -993h-293z" />
<glyph unicode="X" horiz-adv-x="1329" d="M-145 0l653 717l-363 737h308l247 -541l476 541h305l-674 -737l350 -717h-305l-234 520l-456 -520h-307z" />
<glyph unicode="Y" horiz-adv-x="1329" d="M145 1454h308l211 -700l512 700h305l-729 -946l-107 -508h-280l108 512z" />
<glyph unicode="Z" horiz-adv-x="1286" d="M-96 0l45 213l1032 993h-799l51 248h1125l-45 -213l-1006 -993h801l-51 -248h-1153z" />
<glyph unicode="[" horiz-adv-x="626" d="M-25 -82l340 1598h385l-47 -220h-131l-246 -1159h132l-48 -219h-385z" />
<glyph unicode="\" horiz-adv-x="1316" d="M207 1454h305l584 -1454h-303z" />
<glyph unicode="]" horiz-adv-x="626" d="M-84 -82l47 219h129l246 1159h-129l47 220h383l-340 -1598h-383z" />
<glyph unicode="^" horiz-adv-x="1212" d="M-6 621l581 833h230l227 -833h-225l-166 602l-426 -602h-221z" />
<glyph unicode="_" horiz-adv-x="792" d="M-10 -248l53 248h750l-54 -248h-749z" />
<glyph unicode="`" horiz-adv-x="532" d="M127 1495h254l61 -244l-186 -53z" />
<glyph unicode="a" d="M59 537q50 234 222.5 394.5t377.5 160.5q118 0 200.5 -56t115.5 -153l37 176h274l-225 -1059h-273l37 174q-148 -194 -376 -194q-146 0 -247.5 74t-138.5 201q-20 67 -20 142q0 67 16 140zM340 530q-8 -40 -9 -77q-1 -84 45 -148q64 -92 193 -92q174 0 303 180l56 254 q-17 94 -81 152.5t-153 58.5q-122 0 -223.5 -98.5t-130.5 -229.5z" />
<glyph unicode="b" horiz-adv-x="1306" d="M-35 0l320 1495h274l-131 -610q79 99 185 153t227 54q137 0 229 -77q91 -77 123 -204q16 -63 16 -132q0 -70 -16 -147q-50 -233 -228.5 -392.5t-392.5 -159.5q-121 0 -205 54.5t-120 151.5l-41 -186h-240zM324 393q10 -79 76 -129.5t147 -50.5q128 0 232 92.5t132 224.5 q9 43 9 82q0 83 -40 149q-60 97 -180 97q-88 0 -175 -59t-146 -150z" />
<glyph unicode="c" horiz-adv-x="1165" d="M44 392q-1 15 0 30q0 56 13 115q24 112 85 213t149 177t205 120.5t245 44.5q170 0 280 -74t146 -201l-284 -82q-22 58 -74 90.5t-121 32.5q-120 0 -219 -90t-129 -231q-9 -44 -9 -83q1 -84 43 -148q62 -92 179 -93q73 0 143 36t107 91l250 -82q-84 -125 -229.5 -201.5 t-317.5 -76.5q-85 0 -158.5 20.5t-126.5 58t-93.5 89t-60 113t-23.5 131.5z" />
<glyph unicode="d" horiz-adv-x="1339" d="M16 537q50 235 220 395t378 160q114 0 198.5 -57t117.5 -150l131 610h274l-252 -1180q-9 -43 4.5 -61.5t53.5 -20.5l-51 -233q-80 -14 -134 -14q-74 2 -112 36q-32 28 -32 73q0 9 1 18l10 73q-78 -99 -189.5 -152.5t-227.5 -53.5q-146 0 -247 74t-139 202q-20 68 -19 143 q0 66 15 138zM299 530q-9 -41 -8 -78q1 -84 45 -148q66 -92 192 -91q79 0 166.5 51.5t132.5 128.5l56 256q-15 89 -82 149t-152 60q-122 0 -222.5 -97.5t-127.5 -230.5z" />
<glyph unicode="e" horiz-adv-x="1239" d="M45 358q-2 22 -2 46q0 61 12 126q25 114 87 216.5t150 179t205.5 121.5t245.5 45q169 0 282 -78t153 -202q22 -70 22 -146q0 -60 -14 -125q-10 -42 -27 -92h-829q-3 -23 -3 -44q-1 -93 53 -152q66 -73 177 -73q83 0 164.5 40.5t120.5 105.5l221 -66q-87 -126 -236 -203 t-323 -77q-102 0 -185.5 28.5t-139.5 79.5t-92 119.5t-42 150.5zM362 627h558q3 23 3 44q0 89 -51 149q-63 74 -176 73q-111 0 -205 -73.5t-129 -192.5z" />
<glyph unicode="f" horiz-adv-x="790" d="M31 0l157 737h-139l45 211h139l29 133q41 199 164.5 317t286.5 118q128 0 250 -64l-99 -207q-63 39 -141 39q-70 0 -117 -49t-67 -143l-31 -144h262l-45 -211h-262l-158 -737h-274z" />
<glyph unicode="g" horiz-adv-x="1306" d="M-41 -233l180 145q44 -75 129.5 -118.5t190.5 -43.5q139 0 245.5 76t137.5 225l28 135q-71 -90 -178.5 -141t-218.5 -51q-139 0 -234 74t-128 198q-17 64 -17 134q0 66 15 137q33 154 122 280.5t219 200.5t273 74q122 0 206.5 -55t125.5 -152l39 188h239l-217 -1022 q-33 -155 -134 -271.5t-247.5 -176.5t-318.5 -60q-171 0 -281 57t-176 167zM385 528q-8 -40 -8 -76q0 -84 46 -148q66 -91 191 -91q87 0 171 52t130 128l54 256q-17 93 -82 151t-152 58q-123 0 -222 -98.5t-128 -231.5z" />
<glyph unicode="h" horiz-adv-x="1243" d="M-37 0l320 1495h274l-133 -621q82 103 196 160.5t236 57.5q267 0 267 -263q0 -70 -19 -159l-143 -670h-275l129 602q11 54 11 97q0 55 -18 89q-34 62 -120 62q-78 0 -172 -64t-145 -159l-133 -627h-275z" />
<glyph unicode="i" horiz-adv-x="528" d="M-37 0h275l227 1073h-275zM248 1364q14 59 64 100t108 41q59 1 91 -41q23 -30 23 -68q0 -15 -4 -32q-12 -58 -61.5 -99.5t-108.5 -41.5q-58 0 -91 41q-24 30 -24 70q0 14 3 30z" />
<glyph unicode="j" horiz-adv-x="528" d="M-430 -305q86 -96 252 -96q157 0 289 111t168 282l229 1081h-275l-233 -1102q-13 -59 -60 -97t-102 -38q-73 0 -112 45zM291 1364q12 58 62.5 99.5t109.5 41.5q58 0 90 -41q23 -30 23 -69q0 -15 -3 -31q-12 -58 -61.5 -99.5t-108.5 -41.5q-58 0 -91 41q-24 30 -24 70 q0 14 3 30z" />
<glyph unicode="k" horiz-adv-x="1150" d="M-37 0l320 1495h274l-195 -907l535 483h293l-500 -455l299 -616h-293l-211 465l-178 -146l-69 -319h-275z" />
<glyph unicode="l" horiz-adv-x="659" d="M16 248l265 1247h274l-242 -1139q-4 -21 -4 -39q0 -33 14 -53q22 -32 76 -33q44 0 115 27l-10 -219q-58 -25 -134 -40t-139 -15q-129 0 -185 69q-39 47 -38 121q0 34 8 74z" />
<glyph unicode="m" horiz-adv-x="1912" d="M6 0l230 1073h247l-43 -199q83 105 199 161.5t248 56.5q127 0 189.5 -63t64.5 -165q88 110 202.5 169t241.5 59q251 0 251 -260q0 -71 -19 -162l-144 -670h-274l129 602q12 58 12 102q0 52 -16 84q-30 62 -110.5 62t-166 -63t-137.5 -162l-133 -625h-275l129 602 q13 60 13 106q0 142 -125 142q-81 0 -167 -62t-138 -161l-133 -627h-275z" />
<glyph unicode="n" horiz-adv-x="1243" d="M6 0l230 1073h247l-43 -199q82 102 207.5 160t265.5 58q254 0 254 -258q0 -72 -20 -164l-143 -670h-275l129 602q13 59 13 104q0 144 -130 144q-85 0 -180 -64t-147 -159l-133 -627h-275z" />
<glyph unicode="o" horiz-adv-x="1249" d="M46 364q-1 18 -1 36q0 65 12 135q24 112 85 213t148.5 177.5t204.5 121.5t244 45q169 0 282 -78q113 -76 153 -202q22 -70 22 -148q0 -62 -14 -129q-24 -111 -84.5 -211.5t-147.5 -177t-203.5 -121.5t-244.5 -45q-103 0 -187 29.5t-139 81t-90.5 121.5t-39.5 152z M340 535q-10 -46 -9 -87q1 -83 41 -144q62 -91 181 -91t219 92t129 232q9 45 9 84q0 84 -42 146q-62 91 -180.5 91t-218.5 -92t-129 -231z" />
<glyph unicode="p" horiz-adv-x="1304" d="M-39 -436l320 1509h239l-39 -184q81 96 188 149.5t226 53.5q141 0 241 -75t138 -201q20 -70 20 -146q0 -63 -14 -131q-52 -237 -219.5 -398t-370.5 -161q-123 0 -206.5 55.5t-114.5 152.5l-133 -624h-275zM418 426q19 -93 82 -153t149 -60q121 0 221 97t129 229 q9 41 9 79q0 84 -46 148q-65 92 -192 92q-80 0 -168 -52t-131 -128z" />
<glyph unicode="q" horiz-adv-x="1304" d="M104 258q-17 64 -17 133q0 71 17 148q33 153 125 279.5t223 200t271 73.5q120 0 204.5 -55t123.5 -150l39 186h239l-250 -1179q-9 -44 4 -62t52 -20l-50 -234q-74 -12 -153 -12q-83 0 -129 52q-34 39 -34 92q0 20 5 42l92 436q-165 -208 -411 -208q-134 0 -226.5 75 t-124.5 203zM383 530q-10 -44 -10 -83q0 -82 43 -143q62 -91 190 -91q161 0 303 176l56 254q-4 90 -71.5 152.5t-154.5 62.5q-123 0 -225 -97.5t-131 -230.5z" />
<glyph unicode="r" horiz-adv-x="802" d="M6 0l230 1073h251l-49 -229q79 110 183.5 178t201.5 68q24 0 54 -5l-54 -249q-128 -2 -235.5 -50t-167.5 -137l-139 -649h-275z" />
<glyph unicode="s" horiz-adv-x="1050" d="M-53 123l149 186q177 -133 369 -133q87 0 142 31t67 88q2 10 2 20q0 41 -38 63q-47 28 -187 62q-204 50 -275 114q-52 46 -52 124q0 28 7 61q35 161 177.5 258t330.5 97q229 0 412 -133l-150 -170q-145 108 -305 108q-78 0 -133 -30.5t-68 -90.5q-2 -12 -2 -22 q-1 -36 29 -56q38 -24 164 -57q64 -17 112.5 -32t91.5 -33t70.5 -37t50 -42.5t30 -49.5t11.5 -59q1 -8 0 -16q0 -26 -8 -55q-32 -156 -172.5 -247.5t-343.5 -91.5q-134 0 -267 39t-214 104z" />
<glyph unicode="t" horiz-adv-x="792" d="M80 862l45 211h139l74 348h274l-73 -348h227l-45 -211h-227l-113 -524q-4 -17 -3 -32q0 -32 16 -48q24 -26 69 -25q61 0 158 39l10 -217q-177 -73 -322 -73q-123 0 -187 64q-44 44 -43 122q0 35 9 78l131 616h-139z" />
<glyph unicode="u" horiz-adv-x="1284" d="M86 401l143 672h275l-131 -612q-12 -57 -12 -101q0 -147 137 -147q85 0 169.5 50t151.5 145l142 665h274l-162 -758q-9 -43 3.5 -62t53.5 -20l-51 -233q-83 -14 -135 -14q-73 0 -111 34q-31 28 -31 73q0 10 1 20l12 88q-96 -109 -219.5 -165t-261.5 -56q-166 0 -229 107 q-37 63 -37 161q0 68 18 153z" />
<glyph unicode="v" horiz-adv-x="1122" d="M127 1073h283l90 -850l456 850h258l-624 -1073h-297z" />
<glyph unicode="w" horiz-adv-x="1785" d="M131 1073h283l86 -745l372 745h258l54 -745l405 745h283l-598 -1073h-297l-68 647l-342 -647h-297z" />
<glyph unicode="x" horiz-adv-x="1091" d="M-111 0l504 535l-268 538h283l157 -336l10 -37l27 37l301 336h283l-496 -538l273 -535h-283l-164 334l-10 35l-27 -35l-307 -334h-283z" />
<glyph unicode="y" horiz-adv-x="1124" d="M-23 -446l52 237q58 -18 116 -18q55 0 99.5 45.5t117.5 181.5l-198 1073h282l115 -835l436 835h258l-725 -1286q-69 -121 -177.5 -188.5t-233.5 -67.5q-68 0 -142 23z" />
<glyph unicode="z" horiz-adv-x="1013" d="M-63 0l36 168l748 713h-574l41 192h863l-37 -168l-746 -712h604l-41 -193h-894z" />
<glyph unicode="{" horiz-adv-x="636" d="M27 -2l108 508q12 52 -11 90.5t-63 46.5l41 193q41 0 81 43.5t50 89.5l105 485q7 33 25 47.5t34 14.5h314l-47 -220h-113l-88 -417q-17 -76 -103 -142q57 -64 43 -141l-94 -440h113l-47 -219h-314q-18 0 -29.5 14t-4.5 47z" />
<glyph unicode="|" horiz-adv-x="528" d="M-55 -266l393 1853h233l-393 -1853h-233z" />
<glyph unicode="}" horiz-adv-x="636" d="M-82 -63l47 219h113l94 440q15 79 100 141q-58 65 -41 142l88 417h-112l47 220h313q16 0 29 -14.5t6 -47.5l-104 -485q-10 -46 11 -89.5t62 -43.5l-41 -193q-44 -8 -81.5 -46t-49.5 -91l-108 -508q-7 -32 -25 -46.5t-35 -14.5h-313z" />
<glyph unicode="~" horiz-adv-x="1161" d="M82 467q5 22 28.5 62.5t64.5 89t107.5 83.5t141.5 35q62 0 121 -27.5t113 -55t104 -27.5q32 0 60.5 10t46.5 24t31.5 30t19 27t6.5 15h151q-2 -11 -16.5 -38.5t-45.5 -67.5t-70 -75t-98 -60t-122 -25q-49 0 -98 16.5t-82 36.5t-76 36.5t-82 16.5q-31 0 -58.5 -10.5 t-44 -25.5t-29 -31t-17.5 -26.5t-5 -12.5h-151z" />
<glyph unicode="&#xa1;" horiz-adv-x="604" d="M4 -10h275l194 921h-274zM283 1319q12 58 61.5 99.5t108.5 41.5q58 0 91 -41t21 -100q-12 -58 -62.5 -99.5t-109.5 -41.5q-58 0 -90 41t-20 100z" />
<glyph unicode="&#xa2;" horiz-adv-x="1228" d="M73 373.5q-5 75.5 9 154.5q46 214 209 371.5t395 190.5l49 231h123l-49 -231q144 -5 245.5 -75.5t139.5 -197.5l-283 -82q-18 51 -58.5 80.5t-94.5 34.5l-133 -631q61 10 120 43t84 78l252 -82q-56 -88 -152.5 -153.5t-188.5 -95t-167 -29.5l-47 -226h-123l48 228 q-81 7 -149.5 41t-115 86.5t-77.5 120.5t-36 143.5zM365 528q-22 -102 16 -185t123 -112l129 607q-95 -18 -169.5 -107.5t-98.5 -202.5z" />
<glyph unicode="&#xa3;" horiz-adv-x="1130" d="M-12 178q257 181 303 395h-207l45 207h147q-2 8 -12 43.5t-13 47t-10.5 42t-9 47.5t-3.5 43.5t0.5 49.5t7.5 47q32 152 178 258t321 106q124 0 223.5 -57.5t153.5 -157.5l-178 -168q-35 70 -106 115t-146 45t-133.5 -48t-73.5 -120q-4 -34 -4.5 -56t6.5 -56t14.5 -57 t18 -60t16.5 -64h377l-45 -209h-330q-20 -94 -77.5 -177t-171.5 -181q85 25 157 25q51 0 139.5 -17.5t133.5 -17.5q69 0 159 33l25 -205q-124 -62 -250 -62q-62 0 -180 30t-184 30q-118 0 -271 -45z" />
<glyph unicode="&#xa5;" horiz-adv-x="1470" d="M170 268l39 178h317l15 66l-43 133h-246l39 178h151l-227 631h305l213 -700l510 700h307l-493 -631h149l-39 -178h-245l-103 -137l-12 -62h321l-38 -178h-322l-55 -268h-281l55 268h-317z" />
<glyph unicode="&#xa6;" horiz-adv-x="536" d="M-51 -266l172 807h233l-172 -807h-233zM170 780l172 807h233l-172 -807h-233z" />
<glyph unicode="&#xa7;" horiz-adv-x="1101" d="M-20 33l210 168q89 -121 230 -121q74 0 136 38.5t75 102.5q7 34 -2 57t-33 34t-47 15.5t-57 6.5q-199 13 -290 110t-57 254q16 76 72 152q-28 31 -39.5 86.5t2.5 138.5q34 159 185 274t329 115q263 0 381 -252l-231 -100q-17 52 -66 80.5t-119 28.5q-75 0 -132 -39 t-70 -103q-14 -70 25 -97.5t120 -29.5q53 -2 101.5 -10t96 -25.5t82.5 -43.5t61.5 -64t31.5 -87.5t-6 -113.5q-11 -55 -33.5 -100.5t-44.5 -67.5q59 -66 27 -209q-22 -106 -83 -188.5t-141 -129t-161 -70t-156 -23.5q-77 0 -145.5 21.5t-117 56.5t-80.5 68t-54 67zM403 662 q-10 -45 4 -73.5t46 -40.5t65.5 -17t73.5 -10t59 -13q20 15 36 41t22 51q7 36 -3.5 62.5t-34 41t-50.5 21t-56 6.5q-63 0 -110 19q-39 -30 -52 -88z" />
<glyph unicode="&#xa8;" horiz-adv-x="946" d="M131 1378q12 58 62.5 100t109.5 42q58 0 90.5 -41.5t20.5 -100.5q-12 -58 -62.5 -99.5t-109.5 -41.5q-58 0 -90.5 41t-20.5 100zM524 1378q12 58 62.5 100t109.5 42q58 0 90.5 -41.5t20.5 -100.5q-12 -58 -62.5 -99.5t-109.5 -41.5q-58 0 -90.5 41t-20.5 100z" />
<glyph unicode="&#xa9;" horiz-adv-x="1736" d="M76.5 487q-10.5 112 13.5 240q44 208 179.5 377t331.5 264.5t413 95.5q221 0 379.5 -95.5t223.5 -264.5t21 -377q-33 -157 -122 -294.5t-213 -235.5t-281.5 -154.5t-323.5 -56.5q-130 0 -241 36.5t-189 102.5t-129.5 158t-62 204zM190 521.5q9 -95.5 52.5 -175.5 t110.5 -137t162 -89t206 -32q187 0 356.5 80t289.5 226t159 331q38 177 -18 323t-192 230t-325 84q-184 0 -352.5 -84t-284 -230t-153.5 -323q-20 -108 -11 -203.5zM358 727q20 95 71.5 181t128.5 155t185.5 110t231.5 41q160 0 263 -70t134 -192l-285 -82 q-16 58 -60.5 84.5t-102.5 26.5q-104 0 -183 -74t-102 -180q-25 -116 31 -186t147 -70q59 0 118.5 31t100.5 84l248 -80q-75 -113 -212.5 -190.5t-301.5 -77.5q-150 0 -254 64.5t-145 176t-13 248.5z" />
<glyph unicode="&#xaa;" horiz-adv-x="919" d="M49 928q23 107 124 175t235 68q101 0 163 -32l9 39q15 68 -16 105.5t-107 37.5q-106 0 -242 -82l-35 125q161 96 326 96q160 0 230 -79t38 -228l-45 -213q-6 -31 3 -44.5t38 -14.5l-37 -174q-59 -9 -98 -9q-54 2 -80.5 24.5t-22.5 65.5l5 39q-130 -133 -291 -133 q-104 0 -160.5 67t-36.5 167zM242 946q-9 -44 18.5 -74t77.5 -30q41 0 83.5 15t70.5 40q32 23 40 53l17 80q-58 25 -131 25q-67 0 -116.5 -30t-59.5 -79z" />
<glyph unicode="&#xab;" horiz-adv-x="1339" d="M59 457l29 133l621 387l-47 -223l-371 -224l278 -211l-49 -225zM655 457l29 133l623 387l-47 -223l-373 -224l280 -211l-49 -225z" />
<glyph unicode="&#xac;" horiz-adv-x="1269" d="M141 573l52 246h999l-127 -602h-234l76 356h-766z" />
<glyph unicode="&#xad;" horiz-adv-x="1243" d="M90 438l53 248h1000l-53 -248h-1000z" />
<glyph unicode="&#xae;" horiz-adv-x="1736" d="M90 727q27 125 88 238.5t150 203.5t197 156.5t235 102.5t258 36q219 0 376.5 -95.5t222.5 -264.5t21 -377q-33 -157 -122 -294.5t-213 -235.5t-280.5 -154.5t-320.5 -56.5q-219 0 -374.5 96.5t-218.5 266t-19 378.5zM205 727q-38 -178 15 -324.5t185.5 -231.5t319.5 -85 q282 0 509.5 180t287.5 457q20 109 10.5 205t-53.5 175.5t-112 137t-164 89.5t-208 32q-140 0 -273 -49.5t-237 -134.5t-178 -202t-102 -249zM434 279l191 901h399q121 0 184 -93.5t39 -207.5q-19 -86 -79.5 -159t-139.5 -102l139 -339h-219l-125 303h-131l-63 -303h-195z M729 750h189q51 0 88.5 34t50.5 95t-14 95t-76 34h-185z" />
<glyph unicode="&#xaf;" horiz-adv-x="868" d="M104 1296l37 170h615l-37 -170h-615z" />
<glyph unicode="&#xb0;" horiz-adv-x="598" d="M86 1280q19 87 90.5 145t161.5 58q92 0 139.5 -58t28.5 -145q-22 -98 -93.5 -157.5t-164.5 -59.5q-91 0 -136.5 61t-25.5 156zM217 1272q-6 -31 11 -53.5t48 -22.5t59 22.5t34 53.5q8 34 -9 56t-51 22q-31 0 -58 -22.5t-34 -55.5z" />
<glyph unicode="&#xb1;" horiz-adv-x="976" d="M6 57l47 222h723l-47 -222h-723zM133 662l47 219h240l55 260h246l-55 -260h239l-47 -219h-240l-55 -261h-246l56 261h-240z" />
<glyph unicode="&#xb2;" horiz-adv-x="864" d="M-29 625q35 166 113 254.5t240 150.5q20 7 59 21.5t60 22.5t53.5 22t51 26t39 28.5t32 35.5t16.5 41q12 54 -26.5 83t-123.5 29q-145 0 -276 -100l-76 117q47 51 158 96t250 45q163 0 234.5 -71.5t43.5 -200.5q-11 -51 -38 -94t-59 -70.5t-76.5 -51t-78 -35.5t-75.5 -24 q-200 -56 -224 -166h432l-32 -159h-697z" />
<glyph unicode="&#xb3;" horiz-adv-x="845" d="M0 772l113 121q4 -36 62 -76.5t157 -40.5q91 0 157 27.5t76 77.5q12 57 -61.5 85.5t-218.5 28.5h-49l30 150h49q277 0 299 106q8 44 -40 69.5t-115 25.5q-148 0 -252 -101l-78 131q58 57 157.5 89t205.5 32q149 0 233.5 -68t62.5 -169q-15 -72 -75.5 -119t-157.5 -64 q97 -13 142 -74.5t26 -146.5q-17 -80 -83.5 -137.5t-153.5 -83t-185 -25.5q-129 0 -209 42.5t-92 119.5z" />
<glyph unicode="&#xb4;" horiz-adv-x="532" d="M76 1251l162 244h256l-252 -297z" />
<glyph unicode="&#xb5;" horiz-adv-x="1314" d="M-16 -434l319 1507h275l-129 -612q-53 -248 131 -248q79 0 163.5 50.5t149.5 144.5l141 665h275l-160 -758q-9 -44 2.5 -62.5t52.5 -19.5l-49 -233q-71 -12 -135 -12q-71 0 -108.5 33t-34.5 92l14 88q-58 -82 -168 -151.5t-209 -69.5q-74 0 -114 37.5t-46 82.5l-94 -534 h-276z" />
<glyph unicode="&#xb6;" horiz-adv-x="1345" d="M133 934q52 247 233 383.5t455 136.5h604l-43 -205h-143l-301 -1413h-233l124 590h-104l-125 -590h-233l125 590q-212 1 -310.5 140t-48.5 368zM365 940q-30 -135 21 -217.5t151 -91.5l131 618q-113 -6 -194 -89.5t-109 -219.5zM770 631h104l132 618h-105z" />
<glyph unicode="&#xb7;" horiz-adv-x="468" d="M86 664q12 58 62.5 99.5t109.5 41.5q58 0 90.5 -41t20.5 -100q-12 -58 -62.5 -100t-109.5 -42q-58 0 -90.5 41.5t-20.5 100.5z" />
<glyph unicode="&#xb8;" horiz-adv-x="677" d="M2 -360l78 100q24 -15 73 -27t101 -12q115 0 129 68q7 35 -17.5 51t-74.5 16q-65 0 -170 -24l178 245l98 -32l-94 -111q27 8 68 8q77 0 117 -35.5t26 -107.5q-18 -81 -95.5 -130.5t-205.5 -49.5q-120 0 -211 41z" />
<glyph unicode="&#xb9;" horiz-adv-x="620" d="M6 627l33 159h160l114 535q-32 -32 -101.5 -68t-113.5 -36l35 163q38 0 91.5 28.5t88.5 56t37 32.5h164l-152 -711h146l-33 -159h-469z" />
<glyph unicode="&#xba;" horiz-adv-x="917" d="M72 1077q33 161 161.5 272t301.5 111q116 0 192.5 -53t102.5 -139t4 -191q-34 -159 -161.5 -271t-301.5 -112q-173 0 -253 112t-46 271zM276 1075q-20 -90 18 -149.5t114 -59.5t139.5 59.5t83.5 151.5q20 91 -18.5 150t-114.5 59t-139 -59t-83 -152z" />
<glyph unicode="&#xbb;" horiz-adv-x="1339" d="M23 94l49 225l366 211l-274 224l47 223l459 -387l-29 -133zM618 94l50 225l366 211l-274 224l47 223l459 -387l-29 -133z" />
<glyph unicode="&#xbc;" horiz-adv-x="1916" d="M94 627l35 159h160l112 535q-32 -32 -101.5 -68t-113.5 -36l35 163q38 0 91.5 28.5t88.5 56t37 32.5h164l-149 -711h145l-35 -159h-469zM221 96l721 674l682 700l100 -110l-704 -660l-696 -714zM975 190l33 158l614 516h111l-111 -514h125l-33 -160h-125l-41 -190h-162 l41 190h-452zM1165 350h301l68 314z" />
<glyph unicode="&#xbd;" horiz-adv-x="1972" d="M96 627l35 159h160l112 535q-32 -32 -101.5 -68t-113.5 -36l35 163q38 0 91.5 28.5t88.5 56t37 32.5h164l-149 -711h145l-35 -159h-469zM145 96l721 674l682 700l101 -110l-705 -660l-696 -714zM1042 0q35 166 110 255t230 151q18 7 54.5 21t56 22t50 22t48.5 26t38 28.5 t31.5 35.5t16.5 41q11 54 -26.5 83.5t-116.5 29.5q-140 0 -256 -103l-74 119q50 52 154.5 96.5t234.5 44.5q152 0 218 -71.5t38 -200.5q-11 -51 -37.5 -93.5t-56.5 -69.5t-73.5 -50.5t-73.5 -34.5t-70 -24q-190 -60 -211 -168h432l-35 -160h-682z" />
<glyph unicode="&#xbe;" horiz-adv-x="1945" d="M88 772l115 121q2 -35 60.5 -76t158.5 -41q91 0 156 27.5t75 77.5q13 57 -61 85.5t-219 28.5h-49l32 150h50q274 0 296 106q10 44 -38 69.5t-115 25.5q-150 0 -254 -101l-76 131q57 57 156 89t205 32q149 0 235 -68t64 -169q-15 -71 -76 -118.5t-158 -64.5 q95 -13 140.5 -74.5t27.5 -146.5q-18 -80 -84.5 -137.5t-154 -83t-185.5 -25.5q-129 0 -209 42.5t-92 119.5zM289 96l721 674l682 700l100 -110l-705 -660l-696 -714zM995 190l33 158l614 516h111l-111 -514h125l-32 -160h-125l-41 -190h-162l41 190h-453zM1186 350h301 l67 314z" />
<glyph unicode="&#xbf;" horiz-adv-x="999" d="M-2.5 -216.5q18.5 -76.5 72 -125t121.5 -71.5t149 -23q142 0 273.5 70t209.5 194l-151 123q-131 -164 -277 -164q-80 0 -127.5 47.5t-29.5 128.5q8 37 30 71t46.5 58t64 49.5t64.5 38.5t67 33.5t53 26.5q108 56 160 132.5t76 186.5h-226q-7 -34 -24 -62.5t-35.5 -48 t-50 -40.5t-54 -33t-62 -32t-60.5 -32q-120 -66 -191 -144t-98 -200q-19 -107 -0.5 -183.5zM610 895q12 58 61.5 99.5t108.5 41.5q60 0 92.5 -41t20.5 -100q-12 -58 -62.5 -99.5t-109.5 -41.5q-58 0 -90.5 41t-20.5 100z" />
<glyph unicode="&#xc0;" horiz-adv-x="1392" d="M-195 0l883 1454h230l262 -1454h-299l-58 362h-510l-209 -362h-299zM403 561h412l-78 588zM631 1876h254l61 -244l-186 -53z" />
<glyph unicode="&#xc1;" horiz-adv-x="1392" d="M-195 0l883 1454h230l262 -1454h-299l-58 362h-510l-209 -362h-299zM403 561h412l-78 588zM735 1630l162 244h256l-254 -297z" />
<glyph unicode="&#xc2;" horiz-adv-x="1392" d="M-195 0l883 1454h230l262 -1454h-299l-58 362h-510l-209 -362h-299zM403 561h412l-78 588zM532 1667l261 207h198l174 -207l-155 -65l-148 129l-200 -129z" />
<glyph unicode="&#xc3;" horiz-adv-x="1392" d="M-195 0l883 1454h230l262 -1454h-299l-58 362h-510l-209 -362h-299zM403 561h412l-78 588zM444 1606q4 18 18 47t40.5 67t59.5 70.5t80.5 55t98.5 22.5q42 0 78 -15t57.5 -33t52 -33t62.5 -15q34 0 60.5 14t40.5 35t20 33t8 20h152q-3 -14 -16.5 -42t-40.5 -66.5 t-61.5 -72.5t-84.5 -57.5t-104 -23.5q-52 0 -95 23t-79.5 46t-73.5 23q-26 0 -48 -10.5t-34 -22t-22 -29t-12 -23t-5 -13.5h-152z" />
<glyph unicode="&#xc4;" horiz-adv-x="1392" d="M-199 0h299l211 362h510l56 -362h299l-263 1454h-229zM401 561l334 588l78 -588h-412zM526 1759q12 58 62.5 100t109.5 42q58 0 90.5 -41.5t20.5 -100.5q-12 -58 -62.5 -99.5t-109.5 -41.5q-58 0 -90.5 41t-20.5 100zM920 1759q12 58 62.5 100t109.5 42q58 0 90 -41.5 t20 -100.5q-12 -58 -62.5 -99.5t-109.5 -41.5q-58 0 -90 41t-20 100z" />
<glyph unicode="&#xc5;" horiz-adv-x="1392" d="M-195 0l883 1454h230l262 -1454h-299l-58 362h-510l-209 -362h-299zM403 561h412l-78 588zM659 1716q15 74 78 116t154 42q90 0 135.5 -42t30.5 -116q-17 -74 -79.5 -115.5t-152.5 -41.5q-91 0 -137 41.5t-29 115.5zM776 1716q-6 -31 12.5 -52.5t53.5 -21.5q33 0 63 21.5 t37 52.5q7 33 -12.5 53.5t-55.5 20.5q-35 0 -63 -20.5t-35 -53.5z" />
<glyph unicode="&#xc6;" horiz-adv-x="2019" d="M-182 0l1216 1454h1034l-51 -248h-682l-73 -342h571l-51 -248h-572l-80 -368h701l-51 -248h-979l76 362h-467l-291 -362h-301zM584 608h325l113 529z" />
<glyph unicode="&#xc7;" horiz-adv-x="1384" d="M95 561q-5 88 16 176q29 134 104.5 263t184 232t256.5 166.5t307 63.5q189 0 314.5 -86t164.5 -231l-250 -150q-16 78 -63.5 128.5t-104 69.5t-123.5 19q-97 0 -184.5 -42.5t-151 -112.5t-107.5 -154.5t-63 -173.5q-28 -129 -0.5 -241t108 -181t197.5 -69q104 0 210.5 55 t176.5 166l203 -133q-87 -140 -247 -228t-330 -106l-66 -78q27 8 68 8q77 0 117 -35.5t26 -107.5q-18 -81 -95.5 -130.5t-205.5 -49.5q-122 0 -209 41l76 100q24 -15 73 -27t101 -12q115 0 129 68q7 35 -17.5 51t-74.5 16q-65 0 -170 -24l129 178q-91 7 -170.5 40.5 t-137 86.5t-101.5 123.5t-64.5 151.5t-25.5 169z" />
<glyph unicode="&#xc8;" d="M-47 0l309 1454h991l-53 -248h-708l-76 -350h612l-47 -229h-612l-82 -379h727l-51 -248h-1010zM604 1876h254l62 -244l-187 -53z" />
<glyph unicode="&#xc9;" d="M-47 0l309 1454h991l-53 -248h-708l-74 -350h612l-49 -229h-612l-82 -379h727l-51 -248h-1010zM711 1630l161 244h256l-254 -297z" />
<glyph unicode="&#xca;" d="M-47 0l309 1454h991l-53 -248h-708l-74 -350h612l-49 -229h-612l-82 -379h727l-51 -248h-1010zM506 1667l260 207h199l174 -207l-156 -65l-147 129l-201 -129z" />
<glyph unicode="&#xcb;" d="M-51 0h1009l54 248h-727l80 379h612l49 229h-612l75 350h709l51 248h-991zM500 1759q12 58 62.5 100t109.5 42q58 0 90 -41.5t20 -100.5q-12 -58 -62.5 -99.5t-109.5 -41.5q-58 0 -90 41t-20 100zM893 1759q12 58 62.5 100t109.5 42q58 0 90.5 -41.5t20.5 -100.5 q-12 -58 -62.5 -99.5t-109.5 -41.5q-58 0 -90.5 41t-20.5 100z" />
<glyph unicode="&#xcc;" horiz-adv-x="595" d="M-47 0l307 1452h283l-307 -1452h-283zM229 1876h254l62 -244l-187 -53z" />
<glyph unicode="&#xcd;" horiz-adv-x="595" d="M-47 0l307 1452h283l-307 -1452h-283zM334 1630l162 244h256l-254 -297z" />
<glyph unicode="&#xce;" horiz-adv-x="595" d="M-47 0l307 1452h283l-307 -1452h-283zM131 1667l260 207h199l174 -207l-156 -65l-147 129l-201 -129z" />
<glyph unicode="&#xcf;" horiz-adv-x="595" d="M-51 0h282l310 1452h-283zM125 1759q12 58 62.5 100t109.5 42q58 0 90.5 -41.5t20.5 -100.5q-12 -58 -62.5 -99.5t-109.5 -41.5q-58 0 -90.5 41t-20.5 100zM518 1759q12 58 62.5 100t109.5 42q58 0 90.5 -41.5t20.5 -100.5q-12 -58 -62.5 -99.5t-109.5 -41.5 q-58 0 -90.5 41t-20.5 100z" />
<glyph unicode="&#xd0;" horiz-adv-x="1488" d="M8 0l133 629h-98l43 205h98l131 620h529q117 0 213 -26t163.5 -73t115.5 -113t69 -146.5t23.5 -173.5t-21.5 -193q-69 -331 -306.5 -530t-563.5 -199h-529zM342 248h246q204 0 347 134.5t187 346.5q45 215 -41 346t-288 131h-246l-80 -372h285l-43 -205h-285z" />
<glyph unicode="&#xd1;" horiz-adv-x="1572" d="M-47 0l309 1454h219l555 -954l201 952h283l-308 -1452h-229l-551 932l-196 -932h-283zM532 1606q4 18 18 47t40.5 67t59.5 70.5t80.5 55t98.5 22.5q42 0 78 -15t57.5 -33t52 -33t62.5 -15q34 0 60.5 14t40.5 35t20 33t8 20h152q-3 -14 -16.5 -42t-40.5 -66.5t-61.5 -72.5 t-84.5 -57.5t-104 -23.5q-52 0 -95 23t-79.5 46t-73.5 23q-26 0 -48 -10.5t-34 -22t-22 -29t-12 -23t-5 -13.5h-152z" />
<glyph unicode="&#xd2;" horiz-adv-x="1525" d="M8 543q-5 91 17 184q30 144 111.5 278.5t193.5 235.5t255 162t289 61q101 0 188 -29.5t149.5 -81t110.5 -122t70 -153t27.5 -173t-16.5 -182.5q-30 -143 -111 -276.5t-192.5 -234.5t-254.5 -161.5t-290 -60.5q-101 0 -188 28.5t-150.5 79.5t-111 120.5t-70 151.5 t-27.5 173zM294.5 580q0.5 -71 23.5 -133t61 -108t98 -72.5t135 -26.5q94 0 181.5 42t151.5 111.5t110 156t65 177.5q14 76 13 147t-24.5 132.5t-61.5 107.5t-97.5 72t-132.5 26q-94 0 -181 -42t-151.5 -111t-110.5 -155t-65 -177q-15 -76 -14.5 -147zM700 1876h254l62 -244 l-189 -53z" />
<glyph unicode="&#xd3;" horiz-adv-x="1525" d="M8 543q-5 91 17 184q30 144 111.5 278.5t193.5 235.5t255 162t289 61q101 0 188 -29.5t149.5 -81t110.5 -122t70 -153t27.5 -173t-16.5 -182.5q-30 -143 -111 -276.5t-192.5 -234.5t-254.5 -161.5t-290 -60.5q-101 0 -188 28.5t-150.5 79.5t-111 120.5t-70 151.5 t-27.5 173zM295.5 580q0.5 -71 23.5 -133t60.5 -108t97.5 -72.5t135 -26.5q94 0 181.5 42t151.5 111.5t110 156t65 177.5q14 76 13 147t-24.5 132.5t-61.5 107.5t-97.5 72t-132.5 26q-94 0 -181 -42t-151.5 -111t-110.5 -155t-65 -177q-14 -76 -13.5 -147zM805 1630l164 244 h256l-254 -297z" />
<glyph unicode="&#xd4;" horiz-adv-x="1525" d="M8 543q-5 91 17 184q30 144 111.5 278.5t193.5 235.5t255 162t289 61q101 0 188 -29.5t149.5 -81t110.5 -122t70 -153t27.5 -173t-16.5 -182.5q-30 -143 -111 -276.5t-192.5 -234.5t-254.5 -161.5t-290 -60.5q-101 0 -188 28.5t-150.5 79.5t-111 120.5t-70 151.5 t-27.5 173zM295.5 580q0.5 -71 23.5 -133t60.5 -108t97.5 -72.5t135 -26.5q94 0 181.5 42t151.5 111.5t110 156t65 177.5q14 76 13 147t-24.5 132.5t-61.5 107.5t-97.5 72t-132.5 26q-94 0 -181 -42t-151.5 -111t-110.5 -155t-65 -177q-14 -76 -13.5 -147zM602 1667l262 207 h199l172 -207l-154 -65l-147 129l-201 -129z" />
<glyph unicode="&#xd5;" horiz-adv-x="1525" d="M8 543q-5 91 17 184q30 144 111.5 278.5t193.5 235.5t255 162t289 61q101 0 188 -29.5t149.5 -81t110.5 -122t70 -153t27.5 -173t-16.5 -182.5q-30 -143 -111 -276.5t-192.5 -234.5t-254.5 -161.5t-290 -60.5q-101 0 -188 28.5t-150.5 79.5t-111 120.5t-70 151.5 t-27.5 173zM295.5 580q0.5 -71 23.5 -133t60.5 -108t97.5 -72.5t135 -26.5q94 0 181.5 42t151.5 111.5t110 156t65 177.5q14 76 13 147t-24.5 132.5t-61.5 107.5t-97.5 72t-132.5 26q-94 0 -181 -42t-151.5 -111t-110.5 -155t-65 -177q-14 -76 -13.5 -147zM516 1606 q3 18 16.5 47t40 67t59.5 70.5t80.5 55t98.5 22.5q42 0 78 -15t57.5 -33t52 -33t62.5 -15q34 0 61 14t41 34.5t20.5 33.5t8.5 20h151q-3 -14 -16.5 -42t-40.5 -66.5t-61.5 -72.5t-84.5 -57.5t-104 -23.5q-52 0 -95.5 23t-80.5 46t-74 23q-85 0 -118 -98h-152z" />
<glyph unicode="&#xd6;" horiz-adv-x="1525" d="M3 569q0 -79 16.5 -151.5t47.5 -137t79 -117.5t107.5 -92t136 -60t163.5 -21q147 0 290 60.5t254.5 161.5t192.5 234.5t111 276.5q22 92 16.5 182.5t-27.5 173t-70 153t-110.5 122t-149.5 81t-188 29.5q-146 0 -289 -61t-255.5 -162t-194.5 -235.5t-113 -278.5 q-17 -79 -17 -158zM291.5 580q-0.5 71 13.5 147q19 91 65 177t111 155t152.5 111t181.5 42q73 0 132.5 -26t97.5 -72t61 -107.5t24 -132.5t-14 -147q-19 -91 -64.5 -177.5t-109.5 -156t-151 -111.5t-181 -42q-75 0 -135 26.5t-98 72.5t-61.5 108t-24 133zM596 1759 q14 59 64 100.5t108 41.5q59 0 91.5 -42t19.5 -100q-12 -58 -61.5 -99.5t-108.5 -41.5t-92 41.5t-21 99.5zM989 1759q14 59 64 100.5t108 41.5q59 0 91.5 -42t19.5 -100q-12 -58 -61.5 -99.5t-108.5 -41.5t-92 41.5t-21 99.5z" />
<glyph unicode="&#xd7;" horiz-adv-x="989" d="M66 354l249 209l-157 203l211 170l157 -201l246 203l131 -172l-244 -203l168 -211l-209 -170l-165 211l-256 -211z" />
<glyph unicode="&#xd8;" horiz-adv-x="1529" d="M-53 0l198 221q-66 103 -86 234.5t9 271.5q30 144 112 278.5t194.5 235.5t256 162t289.5 61q162 0 286 -78l62 68h305l-205 -225q67 -103 87.5 -236.5t-7.5 -269.5q-30 -143 -111.5 -276.5t-193.5 -234.5t-255 -161.5t-290 -60.5q-167 0 -291 76l-57 -66h-303zM352 727 q-32 -155 8 -272l656 721q-67 36 -156 36q-94 0 -181 -42t-151.5 -111t-110.5 -155t-65 -177zM500 274q64 -34 155 -34q94 0 181.5 42t151.5 111.5t110 156t65 177.5q31 151 -8 268z" />
<glyph unicode="&#xd9;" horiz-adv-x="1542" d="M56.5 492.5q0.5 103.5 25.5 220.5l158 741h282l-157 -741q-16 -76 -19 -143t10 -128.5t43 -105.5t85 -70t132 -26q97 0 177 39.5t134.5 108.5t90 149.5t55.5 175.5l158 741h280l-157 -741q-26 -122 -71 -228t-114 -198t-156 -157t-202 -102.5t-246 -37.5 q-135 0 -235.5 39.5t-158.5 106.5t-86.5 160t-28 196.5zM705 1876h253l62 -244l-189 -53z" />
<glyph unicode="&#xda;" horiz-adv-x="1542" d="M56.5 492.5q0.5 103.5 25.5 220.5l158 741h282l-157 -741q-16 -76 -19 -143t10 -128.5t43 -105.5t85 -70t132 -26q78 0 146 26.5t117.5 71t89 106.5t64.5 128.5t40 140.5l158 741h280l-157 -741q-26 -122 -71 -228t-114 -198t-156 -157t-202 -102.5t-246 -37.5 q-135 0 -235.5 39.5t-158.5 106.5t-86.5 160t-28 196.5zM809 1630l164 244h256l-254 -297z" />
<glyph unicode="&#xdb;" horiz-adv-x="1542" d="M56.5 492.5q0.5 103.5 25.5 220.5l158 741h282l-157 -741q-16 -76 -19 -143t10 -128.5t43 -105.5t85 -70t132 -26q78 0 146 26.5t117.5 71t89 106.5t64.5 128.5t40 140.5l158 741h280l-157 -741q-26 -122 -71 -228t-114 -198t-156 -157t-202 -102.5t-246 -37.5 q-135 0 -235.5 39.5t-158.5 106.5t-86.5 160t-28 196.5zM604 1667l262 207h199l172 -207l-154 -65l-147 129l-201 -129z" />
<glyph unicode="&#xdc;" horiz-adv-x="1542" d="M54.5 492.5q-0.5 -103.5 28 -196.5t86.5 -160t158.5 -106.5t235.5 -39.5q131 0 246 37.5t202 102.5t156 157t114 198t71 228l157 741h-280l-158 -741q-20 -95 -55.5 -175.5t-90 -149.5t-134.5 -108.5t-177 -39.5q-77 0 -132.5 26t-85.5 70t-43 105.5t-10 128.5t19 143 l158 741h-282l-158 -741q-25 -117 -25.5 -220.5zM600 1759q14 59 64 100.5t108 41.5q59 0 91.5 -42t19.5 -100q-12 -58 -61.5 -99.5t-108.5 -41.5t-92 41.5t-21 99.5zM993 1759q14 59 64 100.5t108 41.5q59 0 91.5 -42t19.5 -100q-12 -58 -61.5 -99.5t-108.5 -41.5t-92 41.5 t-21 99.5z" />
<glyph unicode="&#xdd;" horiz-adv-x="1329" d="M102 1454h308l208 -700l515 700h305l-731 -946l-107 -508h-281l109 512zM700 1630l162 244h256l-254 -297z" />
<glyph unicode="&#xde;" horiz-adv-x="1251" d="M-2 0l307 1454h283l-56 -262h299q78 0 145 -27t112.5 -73.5t76 -108.5t35.5 -131.5t-8 -142.5q-27 -126 -106 -236t-198 -179t-249 -69h-311l-47 -225h-283zM381 473h297q79 0 145.5 69t87.5 167q21 99 -23 167t-122 68h-285z" />
<glyph unicode="&#xdf;" horiz-adv-x="1153" d="M-31 0l228 1069q37 171 189.5 282t346.5 111q175 0 268.5 -91.5t61.5 -244.5q-23 -104 -93.5 -190t-150.5 -113q125 -37 179 -141.5t22 -251.5q-19 -91 -66 -165t-111 -124t-146 -84.5t-169 -50.5t-182 -18l55 252q133 2 223.5 57t114.5 164q21 102 -34 161.5t-152 59.5 h-41l51 246h39q73 0 124.5 41.5t66.5 109.5q9 41 -0.5 71.5t-31.5 47t-47 24t-52 7.5q-90 0 -145 -63t-71 -144l-217 -1022h-260z" />
<glyph unicode="&#xe0;" d="M16 537q50 234 222.5 394.5t377.5 160.5q118 0 200.5 -56t115.5 -153l37 176h274l-225 -1059h-273l39 174q-151 -194 -378 -194q-146 0 -247.5 74t-138.5 201t-4 282zM299 530q-30 -133 34.5 -225t192.5 -92q174 0 303 180l56 254q-17 95 -80.5 153t-151.5 58 q-122 0 -224.5 -99t-129.5 -229zM520 1495h254l60 -244l-187 -53z" />
<glyph unicode="&#xe1;" d="M16 537q50 234 222.5 394.5t377.5 160.5q118 0 200.5 -56t115.5 -153l37 176h274l-225 -1059h-273l39 174q-151 -194 -378 -194q-146 0 -247.5 74t-138.5 201t-4 282zM299 530q-30 -133 34.5 -225t192.5 -92q174 0 303 180l56 254q-17 95 -80.5 153t-151.5 58 q-122 0 -224.5 -99t-129.5 -229zM602 1251l164 244h256l-254 -297z" />
<glyph unicode="&#xe2;" d="M16 537q50 234 222.5 394.5t377.5 160.5q118 0 200.5 -56t115.5 -153l37 176h274l-225 -1059h-273l39 174q-151 -194 -378 -194q-146 0 -247.5 74t-138.5 201t-4 282zM299 530q-30 -133 34.5 -225t192.5 -92q174 0 303 180l56 254q-17 95 -80.5 153t-151.5 58 q-122 0 -224.5 -99t-129.5 -229zM399 1288l263 207h198l172 -207l-155 -65l-146 129l-203 -129z" />
<glyph unicode="&#xe3;" d="M16 537q50 234 222.5 394.5t377.5 160.5q118 0 200.5 -56t115.5 -153l37 176h274l-225 -1059h-273l39 174q-151 -194 -378 -194q-146 0 -247.5 74t-138.5 201t-4 282zM299 530q-30 -133 34.5 -225t192.5 -92q174 0 303 180l56 254q-17 95 -80.5 153t-151.5 58 q-122 0 -224.5 -99t-129.5 -229zM354 1227q3 18 16.5 47t40 67t59.5 70.5t80.5 55t98.5 22.5q42 0 78 -15t57.5 -33t52 -33t62.5 -15q34 0 61 14t41 34.5t20.5 33.5t8.5 20h152q-3 -14 -16.5 -42.5t-41.5 -66.5t-62.5 -72t-85 -57.5t-104.5 -23.5q-41 0 -77.5 14.5 t-58.5 31.5t-51.5 31.5t-59.5 14.5q-26 0 -47.5 -9.5t-34 -23t-21.5 -28.5t-12.5 -24.5t-3.5 -12.5h-152z" />
<glyph unicode="&#xe4;" d="M14 537q-33 -155 4 -282t138 -201t247 -74q229 0 377 194l-37 -174h273l225 1059h-274l-37 -176q-33 97 -116.5 153t-201.5 56q-135 0 -261 -73.5t-215 -200.5t-122 -281zM295 530q29 131 130.5 229.5t223.5 98.5q88 0 151.5 -58t80.5 -153l-54 -254 q-60 -85 -138.5 -132.5t-166.5 -47.5q-127 0 -191 91.5t-36 225.5zM432 1378q12 58 62.5 100t109.5 42q58 0 90.5 -41.5t20.5 -100.5q-12 -58 -61.5 -99.5t-108.5 -41.5q-60 0 -92.5 41t-20.5 100zM825 1378q12 58 62.5 100t109.5 42q58 0 90.5 -41.5t20.5 -100.5 q-12 -58 -61.5 -99.5t-108.5 -41.5q-60 0 -92.5 41t-20.5 100z" />
<glyph unicode="&#xe5;" d="M16 537q50 234 222.5 394.5t377.5 160.5q118 0 200.5 -56t115.5 -153l37 176h274l-225 -1059h-273l39 174q-151 -194 -378 -194q-146 0 -247.5 74t-138.5 201t-4 282zM299 530q-30 -133 34.5 -225t192.5 -92q174 0 303 180l56 254q-17 95 -80.5 153t-151.5 58 q-122 0 -224.5 -99t-129.5 -229zM567 1337q17 74 80.5 116t153.5 42q91 0 136 -42t28 -116q-15 -74 -78 -115.5t-154 -41.5q-90 0 -135.5 41.5t-30.5 115.5zM684 1337q-6 -31 13.5 -52t54.5 -21q33 0 62.5 21t35.5 52q7 33 -12.5 53.5t-55.5 20.5q-35 0 -63 -20.5t-35 -53.5 z" />
<glyph unicode="&#xe6;" horiz-adv-x="1931" d="M8 319q32 154 180 250.5t349 96.5q143 0 233 -41q20 62 37 90q9 92 -40 139t-157 47q-160 0 -364 -121l-45 174q240 138 477 138q249 0 342 -152q183 152 414 152q103 0 186.5 -29t138.5 -80t90 -121t40 -152t-11 -173q-8 -40 -25 -88h-839q-17 -122 52 -195.5t185 -73.5 q83 0 164.5 40.5t120.5 105.5l221 -66q-87 -126 -236 -203t-323 -77q-148 0 -254.5 59t-157.5 162q-92 -109 -226.5 -165t-258.5 -56q-157 0 -241 96.5t-52 242.5zM270 342q-15 -69 29.5 -115.5t122.5 -46.5q69 0 137.5 24.5t112.5 65.5q53 34 59 74q-7 27 8 133 q-96 35 -188 35q-106 0 -186 -48.5t-95 -121.5zM1047 618h567q15 123 -48 199t-180 76t-210.5 -76t-128.5 -199z" />
<glyph unicode="&#xe7;" horiz-adv-x="1169" d="M100 537q32 151 125.5 276t240 202t316.5 77t281 -74t147 -201l-286 -82q-20 58 -71.5 90.5t-121.5 32.5q-120 0 -219 -90t-129 -231q-30 -139 32 -231.5t179 -92.5q73 0 143.5 36.5t106.5 90.5l252 -82q-75 -113 -202.5 -187t-279.5 -87l-57 -70q27 8 68 8q77 0 118 -36 t25 -107q-18 -81 -95 -130.5t-204 -49.5q-124 0 -211 41l76 100q24 -15 73 -27t101 -12q115 0 129 68q7 35 -17.5 51t-74.5 16q-69 0 -168 -24l121 170q-152 12 -254 91.5t-138 200.5t-6 263z" />
<glyph unicode="&#xe8;" horiz-adv-x="1239" d="M14 530q24 114 85.5 216.5t149.5 179t205.5 121.5t245.5 45q169 0 282 -77.5t152.5 -202t8.5 -271.5q-10 -42 -27 -92h-829q-15 -123 50.5 -196t176.5 -73q84 0 165 40.5t120 105.5l221 -66q-87 -126 -236 -203t-323 -77q-168 0 -282 76t-155.5 200.5t-9.5 273.5z M322 627h557q13 119 -50 192.5t-176 73.5q-112 0 -205 -73.5t-126 -192.5zM520 1495h254l60 -244l-187 -53z" />
<glyph unicode="&#xe9;" horiz-adv-x="1239" d="M14 530q24 114 85.5 216.5t149.5 179t205.5 121.5t245.5 45q169 0 282 -77.5t152.5 -202t8.5 -271.5q-10 -42 -27 -92h-829q-15 -123 50.5 -196t176.5 -73q84 0 165 40.5t120 105.5l221 -66q-87 -126 -236 -203t-323 -77q-168 0 -282 76t-155.5 200.5t-9.5 273.5z M322 627h557q13 119 -50 192.5t-176 73.5q-112 0 -205 -73.5t-126 -192.5zM623 1251l163 244h256l-254 -297z" />
<glyph unicode="&#xea;" horiz-adv-x="1239" d="M14 530q24 114 85.5 216.5t149.5 179t205.5 121.5t245.5 45q169 0 282 -77.5t152.5 -202t8.5 -271.5q-10 -42 -27 -92h-829q-15 -123 50.5 -196t176.5 -73q84 0 165 40.5t120 105.5l221 -66q-87 -126 -236 -203t-323 -77q-168 0 -282 76t-155.5 200.5t-9.5 273.5z M322 627h557q13 119 -50 192.5t-176 73.5q-112 0 -205 -73.5t-126 -192.5zM420 1288l262 207h199l172 -207l-156 -65l-145 129l-203 -129z" />
<glyph unicode="&#xeb;" horiz-adv-x="1239" d="M10 530q-32 -149 10 -273.5t156.5 -200.5t282.5 -76q174 0 323 77t236 203l-221 66q-39 -65 -120 -105.5t-165 -40.5q-111 0 -177.5 73.5t-49.5 195.5h829q18 52 25 92q16 88 11.5 169t-39.5 150.5t-89.5 121t-139 81t-186.5 29.5q-128 0 -245 -45t-205 -121.5 t-149.5 -179t-86.5 -216.5zM317 627q35 119 129 192.5t205 73.5q113 0 175.5 -73.5t47.5 -192.5h-557zM432 1378q12 58 62.5 100t109.5 42q58 0 90.5 -41.5t20.5 -100.5q-12 -58 -61.5 -99.5t-108.5 -41.5q-60 0 -92.5 41t-20.5 100zM825 1378q12 58 62.5 100t109.5 42 q58 0 90.5 -41.5t20.5 -100.5q-12 -58 -61.5 -99.5t-108.5 -41.5q-60 0 -92.5 41t-20.5 100z" />
<glyph unicode="&#xec;" horiz-adv-x="528" d="M-37 0l230 1073h274l-229 -1073h-275zM158 1495h254l59 -244l-186 -53z" />
<glyph unicode="&#xed;" horiz-adv-x="528" d="M-37 0l230 1073h274l-229 -1073h-275zM260 1251l164 244h256l-254 -297z" />
<glyph unicode="&#xee;" horiz-adv-x="528" d="M-37 0l230 1073h274l-229 -1073h-275zM57 1288l262 207h199l172 -207l-155 -65l-146 129l-203 -129z" />
<glyph unicode="&#xef;" horiz-adv-x="528" d="M-37 0h275l227 1073h-275zM53 1366q12 58 61.5 99.5t108.5 41.5t92 -41.5t21 -99.5q-14 -59 -64 -100t-108 -41q-59 0 -91.5 41.5t-19.5 99.5zM446 1366q12 58 61.5 99.5t108.5 41.5t92 -41.5t21 -99.5q-14 -59 -64 -100t-108 -41q-59 0 -91.5 41.5t-19.5 99.5z" />
<glyph unicode="&#xf0;" horiz-adv-x="1265" d="M8 477q43 203 218 346.5t380 143.5q106 0 190 -43.5t126 -116.5q0 211 -107 369l-215 -107l-55 107l192 96q-114 124 -278 223h352q89 -54 158 -129l182 94l55 -108l-164 -80q65 -97 100 -214t36.5 -232.5t-21.5 -231.5q-59 -281 -253.5 -447.5t-446.5 -166.5 q-155 0 -268.5 64.5t-162 178.5t-18.5 254zM289 479q-25 -114 39.5 -190t183.5 -76q122 0 219.5 78.5t122.5 193.5q25 113 -39.5 186.5t-185.5 73.5t-218 -76t-122 -190z" />
<glyph unicode="&#xf1;" horiz-adv-x="1243" d="M-37 0l230 1073h247l-43 -199q82 102 207.5 160t265.5 58q325 0 234 -422l-143 -670h-275l129 602q53 248 -117 248q-85 0 -180 -64t-147 -159l-133 -627h-275zM358 1227q3 18 16.5 47t40 67t59.5 70.5t80.5 55t98.5 22.5q42 0 78 -15t57.5 -33t52 -33t62.5 -15 q34 0 61 14t41 34.5t20.5 33.5t8.5 20h152q-3 -14 -16.5 -42.5t-41 -66.5t-62.5 -72t-85 -57.5t-104 -23.5q-52 0 -95 23t-79.5 46t-73.5 23q-26 0 -47.5 -9.5t-34 -23t-21.5 -28.5t-12.5 -24.5t-3.5 -12.5h-152z" />
<glyph unicode="&#xf2;" horiz-adv-x="1249" d="M2.5 364q-4.5 82 11.5 171q24 112 85 213t148.5 177.5t204.5 121.5t244 45q169 0 282 -77.5t153 -203t8 -276.5q-24 -111 -84.5 -211.5t-147.5 -177t-203.5 -121.5t-244.5 -45q-103 0 -187 29.5t-139 81t-90.5 121.5t-40 152zM297 535q-30 -140 31.5 -231t181.5 -91 q119 0 219 92t129 232q31 138 -30.5 229.5t-180.5 91.5t-220 -92t-130 -231zM522 1495h254l60 -244l-187 -53z" />
<glyph unicode="&#xf3;" horiz-adv-x="1249" d="M2.5 364q-4.5 82 11.5 171q24 112 85 213t148.5 177.5t204.5 121.5t244 45q169 0 282 -77.5t153 -203t8 -276.5q-24 -111 -84.5 -211.5t-147.5 -177t-203.5 -121.5t-244.5 -45q-103 0 -187 29.5t-139 81t-90.5 121.5t-40 152zM297 535q-30 -140 31.5 -231t181.5 -91 q119 0 219 92t129 232q31 138 -30.5 229.5t-180.5 91.5t-220 -92t-130 -231zM623 1251l163 244h256l-254 -297z" />
<glyph unicode="&#xf4;" horiz-adv-x="1249" d="M2.5 364q-4.5 82 11.5 171q24 112 85 213t148.5 177.5t204.5 121.5t244 45q169 0 282 -77.5t153 -203t8 -276.5q-24 -111 -84.5 -211.5t-147.5 -177t-203.5 -121.5t-244.5 -45q-103 0 -187 29.5t-139 81t-90.5 121.5t-40 152zM297 535q-30 -140 31.5 -231t181.5 -91 q119 0 219 92t129 232q31 138 -30.5 229.5t-180.5 91.5t-220 -92t-130 -231zM420 1288l262 207h199l172 -207l-156 -65l-145 129l-203 -129z" />
<glyph unicode="&#xf5;" horiz-adv-x="1249" d="M2.5 364q-4.5 82 11.5 171q24 112 85 213t148.5 177.5t204.5 121.5t244 45q169 0 282 -77.5t153 -203t8 -276.5q-24 -111 -84.5 -211.5t-147.5 -177t-203.5 -121.5t-244.5 -45q-103 0 -187 29.5t-139 81t-90.5 121.5t-40 152zM297 535q-30 -140 31.5 -231t181.5 -91 q119 0 219 92t129 232q31 138 -30.5 229.5t-180.5 91.5t-220 -92t-130 -231zM336 1227q3 18 16.5 47t40 67t59.5 70.5t80.5 55t98.5 22.5q42 0 78 -15t57.5 -33t52 -33t62.5 -15q34 0 61 14t41 34.5t20.5 33.5t8.5 20h151q-3 -14 -16.5 -42.5t-41 -66.5t-62.5 -72t-85 -57.5 t-104 -23.5q-52 0 -95 23t-79.5 46t-73.5 23q-26 0 -47.5 -9.5t-34 -23t-21.5 -28.5t-12.5 -24.5t-3.5 -12.5h-151z" />
<glyph unicode="&#xf6;" horiz-adv-x="1249" d="M0.5 364q4.5 -82 40 -152t90.5 -121.5t139 -81t187 -29.5q128 0 244.5 45t203.5 121.5t147.5 177t84.5 211.5q32 151 -8.5 276.5t-154 203t-282.5 77.5q-127 0 -243.5 -45t-204 -121.5t-148 -177.5t-84.5 -213q-16 -89 -11.5 -171zM295 535q29 139 129 231t219 92 t180.5 -91t32.5 -230q-31 -140 -131 -232t-219 -92q-120 0 -180.5 91t-30.5 231zM416 1378q12 58 62.5 100t109.5 42q58 0 90 -41.5t20 -100.5q-12 -58 -61.5 -99.5t-108.5 -41.5q-60 0 -92 41t-20 100zM809 1378q12 58 62.5 100t109.5 42q58 0 90.5 -41.5t20.5 -100.5 q-12 -58 -61.5 -99.5t-108.5 -41.5q-60 0 -92.5 41t-20.5 100z" />
<glyph unicode="&#xf7;" horiz-adv-x="1052" d="M86 500h825l45 219h-825zM299 221q12 58 61.5 99.5t108.5 41.5t92 -41.5t21 -99.5t-62.5 -99.5t-109.5 -41.5q-58 0 -90.5 41t-20.5 100zM463 999q12 58 62.5 100t109.5 42q58 0 90 -41.5t20 -100.5q-12 -58 -61.5 -99.5t-108.5 -41.5q-58 0 -91 41t-21 100z" />
<glyph unicode="&#xf8;" horiz-adv-x="1249" d="M-12 -8l147 139q-63 78 -83 182.5t5 221.5q24 112 85 213t148.5 177.5t204.5 121.5t244 45q163 0 279 -76l69 65h156l-145 -137q66 -76 87.5 -182.5t-3.5 -226.5q-24 -111 -84.5 -211.5t-147.5 -177t-203.5 -121.5t-244.5 -45q-175 0 -287 79l-72 -67h-155zM340 535 q-24 -118 12 -201l469 483q-53 41 -133 41q-119 0 -219 -92t-129 -231zM412 258q57 -45 141 -45q119 0 219 92t129 232q24 122 -16 204z" />
<glyph unicode="&#xf9;" horiz-adv-x="1284" d="M41 401l143 672h275l-131 -612q-26 -122 6.5 -185t120.5 -63q84 0 168 49.5t151 145.5l141 665h275l-162 -758q-9 -43 3.5 -62t53.5 -20l-51 -233q-83 -14 -135 -14q-73 0 -111 34t-30 93l12 88q-96 -109 -219.5 -165t-261.5 -56q-166 0 -229 107t-19 314zM516 1495h254 l59 -244l-186 -53z" />
<glyph unicode="&#xfa;" horiz-adv-x="1284" d="M41 401l143 672h275l-131 -612q-26 -122 6.5 -185t120.5 -63q84 0 168 49.5t151 145.5l141 665h275l-162 -758q-9 -43 3.5 -62t53.5 -20l-51 -233q-83 -14 -135 -14q-73 0 -111 34t-30 93l12 88q-96 -109 -219.5 -165t-261.5 -56q-166 0 -229 107t-19 314zM616 1251 l164 244h256l-254 -297z" />
<glyph unicode="&#xfb;" horiz-adv-x="1284" d="M41 401l143 672h275l-131 -612q-26 -122 6.5 -185t120.5 -63q84 0 168 49.5t151 145.5l141 665h275l-162 -758q-9 -43 3.5 -62t53.5 -20l-51 -233q-83 -14 -135 -14q-73 0 -111 34t-30 93l12 88q-96 -109 -219.5 -165t-261.5 -56q-166 0 -229 107t-19 314zM414 1288 l262 207h198l173 -207l-156 -65l-146 129l-202 -129z" />
<glyph unicode="&#xfc;" horiz-adv-x="1284" d="M39 401q-44 -207 19 -314t229 -107q138 0 261.5 56t219.5 165l-12 -88q-9 -58 29 -92.5t112 -34.5q52 0 135 14l49 233q-39 1 -51.5 20t-3.5 62l162 758h-275l-141 -665q-67 -95 -151.5 -145t-169.5 -50q-178 0 -125 248l131 612h-275zM408 1378q12 58 62.5 100t109.5 42 q58 0 90 -41.5t20 -100.5q-12 -58 -61.5 -99.5t-108.5 -41.5q-60 0 -92 41t-20 100zM801 1378q12 58 62.5 100t109.5 42q58 0 90 -41.5t20 -100.5q-12 -58 -61.5 -99.5t-108.5 -41.5q-60 0 -92 41t-20 100z" />
<glyph unicode="&#xfd;" horiz-adv-x="1124" d="M-68 -446l52 237q60 -18 116 -18q55 0 99.5 45.5t117.5 181.5l-198 1073h282l115 -835l436 835h258l-725 -1286q-69 -121 -177.5 -188.5t-233.5 -67.5q-68 0 -142 23zM629 1251l162 244h256l-254 -297z" />
<glyph unicode="&#xfe;" horiz-adv-x="1239" d="M-78 -436l402 1890h280l-98 -465q101 115 272 115q78 0 144.5 -24t114 -65t83.5 -97.5t51.5 -120.5t19.5 -134t-13 -139q-24 -112 -90 -217t-155 -183.5t-199 -125.5t-218 -47q-86 0 -139.5 31.5t-69.5 72.5l-104 -491h-281zM373 360q-12 -57 49 -109t139 -52 q114 0 209 96t125 233q29 137 -20.5 232.5t-165.5 95.5q-145 0 -267 -168z" />
<glyph unicode="&#xff;" horiz-adv-x="1124" d="M-70 -446q74 -23 142 -23q125 0 233.5 67.5t175.5 188.5l727 1286h-258l-436 -835l-115 835h-282l196 -1073q-71 -136 -115.5 -181.5t-99.5 -45.5q-58 0 -116 18zM422 1378q12 59 62 100.5t108 41.5q59 0 92 -42t21 -100q-14 -59 -64.5 -100t-108.5 -41q-59 0 -91 41.5 t-19 99.5zM815 1378q12 59 62 100.5t108 41.5q59 0 92 -42t21 -100q-14 -59 -64 -100t-108 -41q-59 0 -91.5 41.5t-19.5 99.5z" />
<glyph unicode="&#x152;" horiz-adv-x="2242" d="M51 543q-5 91 17 184q30 144 112 278.5t194.5 235.5t256 162t289.5 61q127 0 221.5 -61.5t142.5 -161.5l45 213h963l-51 -248h-682l-74 -342h571l-51 -248h-571l-80 -368h700l-51 -248h-981l45 215q-95 -101 -218 -163t-249 -62q-101 0 -188 28.5t-150.5 79.5t-112 120.5 t-71 151.5t-27.5 173zM338.5 580q0.5 -71 23.5 -133t60.5 -108t97.5 -72.5t135 -26.5q94 0 181 42t151.5 112t110.5 156.5t65 178.5q14 76 13 146.5t-24 132t-60.5 107.5t-97 72.5t-132.5 26.5q-94 0 -181.5 -42t-152.5 -111.5t-111 -156t-65 -177.5q-14 -76 -13.5 -147z " />
<glyph unicode="&#x153;" horiz-adv-x="2082" d="M57 535q51 241 243.5 399t434.5 158q137 0 231 -64.5t140 -185.5q206 250 483 250q240 0 362.5 -154t76.5 -401q-4 -27 -25 -88h-827q-17 -117 49.5 -196t183.5 -79q86 0 168.5 43t122.5 109l213 -66q-87 -128 -238.5 -204t-316.5 -76q-246 0 -383 241 q-120 -123 -235.5 -182t-241.5 -59q-241 0 -366.5 158t-74.5 397zM340 532q-29 -138 31.5 -228.5t181.5 -90.5t220 92t128 230q29 140 -31.5 231.5t-181.5 91.5q-120 0 -219.5 -93t-128.5 -233zM1204 618h561q15 122 -49.5 198.5t-177.5 76.5q-114 0 -208 -77t-126 -198z " />
<glyph unicode="&#x178;" horiz-adv-x="1329" d="M98 1454l328 -942l-111 -512h281l109 508l729 946h-306l-512 -700l-210 700h-308zM492 1759q12 58 62.5 100t109.5 42q58 0 90 -41.5t20 -100.5q-12 -58 -62.5 -99.5t-109.5 -41.5q-58 0 -90 41t-20 100zM885 1759q12 58 62.5 100t109.5 42q58 0 90 -41.5t20 -100.5 q-12 -58 -62.5 -99.5t-109.5 -41.5q-58 0 -90 41t-20 100z" />
<glyph unicode="&#x2c6;" horiz-adv-x="765" d="M47 1288l260 207h199l174 -207l-156 -65l-147 129l-201 -129z" />
<glyph unicode="&#x2dc;" horiz-adv-x="905" d="M35 1227q3 18 16.5 47t40 67t59.5 70.5t80.5 55t98.5 22.5q42 0 78 -15t57.5 -33t52 -33t62.5 -15q34 0 61 14t41 34.5t20.5 33.5t8.5 20h151q-3 -14 -16.5 -42t-40.5 -66.5t-61.5 -72.5t-84.5 -57.5t-104 -23.5q-52 0 -95.5 23t-80.5 46t-74 23q-86 0 -119 -98h-151z " />
<glyph unicode="&#x2000;" horiz-adv-x="950" />
<glyph unicode="&#x2001;" horiz-adv-x="1901" />
<glyph unicode="&#x2002;" horiz-adv-x="950" />
<glyph unicode="&#x2003;" horiz-adv-x="1901" />
<glyph unicode="&#x2004;" horiz-adv-x="633" />
<glyph unicode="&#x2005;" horiz-adv-x="475" />
<glyph unicode="&#x2006;" horiz-adv-x="316" />
<glyph unicode="&#x2007;" horiz-adv-x="316" />
<glyph unicode="&#x2008;" horiz-adv-x="237" />
<glyph unicode="&#x2009;" horiz-adv-x="380" />
<glyph unicode="&#x200a;" horiz-adv-x="105" />
<glyph unicode="&#x2010;" horiz-adv-x="864" d="M90 438l53 248h621l-53 -248h-621z" />
<glyph unicode="&#x2011;" horiz-adv-x="864" d="M90 438l53 248h621l-53 -248h-621z" />
<glyph unicode="&#x2012;" horiz-adv-x="864" d="M90 438l53 248h621l-53 -248h-621z" />
<glyph unicode="&#x2013;" horiz-adv-x="1243" d="M90 438l53 248h1000l-53 -248h-1000z" />
<glyph unicode="&#x2014;" horiz-adv-x="1908" d="M90 438l53 248h1663l-53 -248h-1663z" />
<glyph unicode="&#x2018;" horiz-adv-x="507" d="M94 1047q5 26 16 57t36.5 77.5t60.5 89t93.5 88t129.5 77.5l-24 -121q-44 -29 -80.5 -81.5t-49.5 -107.5q45 -8 68.5 -35t23.5 -53.5t-1 -46.5q-12 -56 -60.5 -94.5t-103.5 -38.5q-67 0 -97 55t-12 134z" />
<glyph unicode="&#x2019;" horiz-adv-x="509" d="M84 858l25 121q45 31 80.5 82.5t48.5 107.5q-34 6 -56 23t-28.5 37t-9 40.5t2.5 33.5q12 56 60.5 94.5t103.5 38.5q67 0 97 -55t12 -134q-5 -26 -16 -57t-36.5 -77.5t-60.5 -89t-93.5 -88t-129.5 -77.5z" />
<glyph unicode="&#x201a;" horiz-adv-x="526" d="M84 -309l25 119q45 31 80.5 82.5t48.5 107.5q-45 8 -68.5 34.5t-23.5 52.5t1 46q12 56 60.5 94.5t103.5 38.5q67 0 97 -54.5t12 -133.5q-4 -21 -12.5 -46t-25 -60.5t-42.5 -72t-60.5 -74t-85 -73t-110.5 -61.5z" />
<glyph unicode="&#x201c;" horiz-adv-x="907" d="M94 1047q5 26 16 57t36.5 77.5t60.5 89t93.5 88t129.5 77.5l-24 -121q-44 -29 -80.5 -81.5t-49.5 -107.5q45 -8 68.5 -35t23.5 -53.5t-1 -46.5q-12 -56 -60.5 -94.5t-103.5 -38.5q-67 0 -97 55t-12 134zM467 1047q5 26 16 57t36.5 77.5t60.5 89t93.5 88t129.5 77.5 l-25 -121q-44 -29 -80 -81.5t-49 -107.5q34 -6 56 -23.5t28 -37.5t8.5 -40.5t-2.5 -33.5q-12 -56 -60.5 -94.5t-103.5 -38.5q-67 0 -96.5 55t-11.5 134z" />
<glyph unicode="&#x201d;" horiz-adv-x="907" d="M84 858l25 121q45 31 80.5 82.5t48.5 107.5q-34 6 -56 23t-28.5 37t-9 40.5t2.5 33.5q12 56 60.5 94.5t103.5 38.5q67 0 97 -55t12 -134q-5 -26 -16 -57t-36.5 -77.5t-60.5 -89t-93.5 -88t-129.5 -77.5zM457 858l24 121q45 31 80.5 82.5t48.5 107.5q-34 6 -56 23t-28 37 t-8.5 40.5t2.5 33.5q12 56 60.5 94.5t103.5 38.5q67 0 97 -55t12 -134q-5 -26 -16 -57t-36.5 -77.5t-60.5 -89t-93.5 -88t-129.5 -77.5z" />
<glyph unicode="&#x201e;" horiz-adv-x="866" d="M84 -309l25 119q45 31 80.5 82.5t48.5 107.5q-45 8 -68.5 34.5t-23.5 52.5t1 46q12 56 60.5 94.5t103.5 38.5q67 0 97 -54.5t12 -133.5q-4 -21 -12.5 -46t-25 -60.5t-42.5 -72t-60.5 -74t-85 -73t-110.5 -61.5zM457 -309l24 119q45 31 80.5 82.5t48.5 107.5 q-34 6 -56 23.5t-28 37t-8.5 39.5t2.5 33q12 56 60.5 94.5t103.5 38.5q67 0 97 -54.5t12 -133.5q-4 -21 -12.5 -46t-25 -60.5t-42.5 -72t-60.5 -74t-85 -73t-110.5 -61.5z" />
<glyph unicode="&#x2022;" horiz-adv-x="753" d="M158 717q19 88 95.5 150.5t164.5 62.5q89 0 138 -62.5t30 -150.5q-19 -89 -94 -152t-164 -63q-88 0 -138.5 63t-31.5 152z" />
<glyph unicode="&#x2026;" horiz-adv-x="1241" d="M82 141q12 58 62.5 100t109.5 42q58 0 90.5 -41.5t20.5 -100.5q-12 -58 -62.5 -99.5t-109.5 -41.5q-58 0 -90.5 41t-20.5 100zM475 141q12 58 62.5 100t109.5 42q58 0 90.5 -41.5t20.5 -100.5q-12 -58 -62.5 -99.5t-109.5 -41.5q-58 0 -90.5 41t-20.5 100zM862 141 q12 58 62.5 100t109.5 42q58 0 90.5 -41.5t20.5 -100.5q-12 -58 -62.5 -99.5t-109.5 -41.5q-58 0 -90.5 41t-20.5 100z" />
<glyph unicode="&#x202f;" horiz-adv-x="380" />
<glyph unicode="&#x2039;" horiz-adv-x="741" d="M59 457l29 133l621 387l-47 -223l-371 -224l278 -211l-49 -225z" />
<glyph unicode="&#x203a;" horiz-adv-x="741" d="M23 94l49 225l366 211l-274 224l47 223l459 -387l-29 -133z" />
<glyph unicode="&#x205f;" horiz-adv-x="475" />
<glyph unicode="&#x20ac;" horiz-adv-x="1607" d="M18 485l95 152h116q2 27 17 106h-146l93 150h100q48 114 126 215.5t180 181t231 126t266 46.5q189 0 314.5 -86t164.5 -231l-250 -150q-16 78 -63.5 128.5t-104 69.5t-123.5 19q-146 0 -264 -90t-186 -229h530l-92 -150h-492q-13 -57 -16 -106h481l-94 -152h-373 q29 -113 107 -180t196 -67q104 0 211.5 55t176.5 166l204 -133q-97 -155 -284.5 -246.5t-368.5 -91.5q-113 0 -209 39t-162.5 107.5t-109 158t-56.5 192.5h-215z" />
<glyph unicode="&#x2122;" horiz-adv-x="1701" d="M147 1280l39 178h570l-39 -178h-195l-92 -438h-180l92 438h-195zM719 842l131 612h262l49 -321l189 321h264l-131 -612h-178l81 383l-194 -297h-145l-68 297l-82 -383h-178z" />
<glyph unicode="&#x25fc;" horiz-adv-x="1075" d="M0 0v1075h1075v-1075h-1075z" />
<glyph unicode="&#xfb01;" horiz-adv-x="1175" d="M31 0l157 737h-139l45 211h139l29 133q38 185 184 310t347 125q195 0 368 -134l-153 -204q-46 47 -112 75.5t-138 28.5q-86 0 -144.5 -55t-74.5 -135l-31 -144h575l-202 -948h-275l158 737h-301l-158 -737h-274z" />
<glyph unicode="&#xfb02;" horiz-adv-x="1359" d="M33 0l157 737h-139l45 211h140l32 158q41 196 182.5 303t352.5 107q226 0 318.5 -108t52.5 -294l-162 -764q-10 -46 7.5 -83.5t65.5 -37.5q21 0 51 6.5t52 13.5l22 7l-10 -221q-5 -4 -43 -15t-104 -23.5t-121 -12.5q-123 0 -184 66.5t-41 162.5l178 836q10 42 10 80 t-10.5 74t-42.5 57.5t-84 21.5q-91 0 -149 -69t-81 -171l-18 -94h180l-45 -211h-180l-158 -737h-274z" />
<glyph unicode="&#xfb03;" horiz-adv-x="1714" d="M31 0l157 737h-139l45 211h139l15 66q39 187 162 307.5t292 120.5q122 0 252 -60q150 134 371 134q191 0 373 -134l-154 -204q-42 45 -108.5 74.5t-132.5 29.5q-94 0 -153 -54.5t-75 -135.5l-31 -144h578l-203 -948h-274l158 737h-304l-157 -737h-275l158 737h-262 l-158 -737h-274zM508 948h262l23 107q4 22 18.5 65t26.5 60q-52 28 -129 28q-74 0 -122 -54t-63 -130z" />
<glyph unicode="&#xfb04;" horiz-adv-x="1898" d="M33 0l157 737h-139l45 211h140l14 72q40 188 165.5 305t293.5 117q115 0 249 -60q143 134 383 134q226 0 318.5 -108t52.5 -294l-162 -764q-10 -46 7 -83.5t65 -37.5q22 0 52.5 6.5t52.5 13.5l22 7l-10 -221q-5 -4 -43 -15t-103.5 -23.5t-119.5 -12.5q-125 0 -186.5 66.5 t-41.5 162.5l178 836q10 42 10 80t-10.5 74t-42.5 57.5t-84 21.5q-91 0 -148.5 -69t-80.5 -171l-18 -94h178l-45 -211h-178l-158 -737h-275l158 737h-264l-158 -737h-274zM510 948h264l21 105q6 27 20 71t23 58q-48 26 -119 26q-76 0 -126.5 -50t-66.5 -128z" />
</font>
</defs>
</svg>
