<?xml version="1.0" standalone="no"?>
<!DOCTYPE svg PUBLIC "-//W3C//DTD SVG 1.1//EN" "http://www.w3.org/Graphics/SVG/1.1/DTD/svg11.dtd" >
<svg xmlns="http://www.w3.org/2000/svg">
<metadata></metadata>
<defs>
<font id="childlineregular" horiz-adv-x="1558" >
<font-face units-per-em="2048" ascent="1638" descent="-410" />
<missing-glyph horiz-adv-x="534" />
<glyph horiz-adv-x="0" />
<glyph horiz-adv-x="682" />
<glyph horiz-adv-x="10" />
<glyph horiz-adv-x="10" />
<glyph unicode="&#xd;" horiz-adv-x="10" />
<glyph unicode=" "  horiz-adv-x="534" />
<glyph unicode="&#x09;" horiz-adv-x="534" />
<glyph unicode="&#xa0;" horiz-adv-x="534" />
<glyph unicode="!" horiz-adv-x="507" d="M182 80q0 -34 23 -57t57 -23t57 23t23 57t-23 57t-57 23t-57 -23t-23 -57zM190 467v1001h140v-1001h-140z" />
<glyph unicode="&#x22;" horiz-adv-x="677" d="M121 1417q0 36 24 59t58 23q47 0 73.5 -38t26.5 -91q0 -19 -4 -42t-17.5 -63t-49.5 -77.5t-89 -61.5v68q35 23 56 70t18 77q-28 -1 -48.5 6.5t-30 21t-13.5 25.5t-4 23zM360 1417q0 36 24 59t58 23q47 0 73 -38t26 -91q0 -14 -1.5 -30t-10.5 -47.5t-24.5 -59t-47 -58 t-74.5 -49.5v68q35 23 56 70t18 77q-29 -1 -49.5 6.5t-30 21t-13.5 25.5t-4 23z" />
<glyph unicode="#" horiz-adv-x="1411" d="M92 424v111h256l98 401h-268v104h295l98 414h119l-102 -414h387l100 414h119l-102 -414h239v-104h-266l-96 -401h274v-111h-301l-102 -424h-119l104 424h-387l-102 -424h-119l107 424h-232zM465 535h387l98 401h-389z" />
<glyph unicode="$" horiz-adv-x="1273" d="M86 199l70 116q76 -80 197 -134.5t263 -63.5v547q-103 24 -172.5 46t-131.5 53t-97.5 69t-55.5 91.5t-20 123.5q0 188 127.5 296t341.5 119v207h76v-205q249 -8 436 -168l-67 -114q-61 68 -159.5 109.5t-217.5 45.5v-546q102 -20 175 -41t141 -53.5t109.5 -74.5 t66 -102.5t24.5 -138.5q0 -191 -138.5 -290.5t-369.5 -102.5v-199h-76v201q-304 18 -522 209zM285 1067q0 -112 74.5 -166t256.5 -96v530q-331 -14 -331 -268zM676 115q175 0 270.5 64t95.5 188q0 60 -22 104t-71.5 76.5t-112.5 55t-160 46.5v-534z" />
<glyph unicode="%" horiz-adv-x="1492" d="M102 1180q0 123 90 209t216 86q128 0 217.5 -86t89.5 -209q0 -122 -90 -207.5t-217 -85.5q-126 0 -216 86t-90 207zM152 55l573 697l555 710l72 -61l-570 -696l-559 -713zM207 1180q0 -87 59.5 -150t141.5 -63q84 0 143 63.5t59 149.5q0 88 -60.5 150.5t-141.5 62.5 q-83 0 -142 -63.5t-59 -149.5zM791 274q0 121 89.5 207t215.5 86q127 0 216 -85.5t89 -207.5q0 -123 -88.5 -208.5t-216.5 -85.5q-126 0 -215.5 85.5t-89.5 208.5zM895 274q0 -89 59 -151t142 -62q84 0 142 63t58 150t-60 150t-140 63q-84 0 -142.5 -63.5t-58.5 -149.5z" />
<glyph unicode="&#x26;" horiz-adv-x="1386" d="M109 375q0 71 23.5 133t70 116t94.5 94t119 89q-112 120 -155.5 195t-43.5 151q0 135 105 227.5t260 92.5q145 0 242.5 -80.5t97.5 -206.5q0 -49 -17.5 -95t-43.5 -82.5t-70.5 -76t-85.5 -69t-101 -68.5l408 -426q88 166 88 360h119q-3 -250 -125 -446l272 -283h-184 l-168 176q-88 -94 -201.5 -145t-241.5 -51q-194 0 -328 110.5t-134 284.5zM244 371q0 -87 51 -152t127.5 -96t163.5 -31q204 0 350 166l-440 465q-122 -85 -187 -167.5t-65 -184.5zM346 1157q0 -51 35.5 -108.5t140.5 -169.5q75 51 112 78.5t80.5 68t61 77.5t17.5 79 q0 79 -60 130.5t-151 51.5q-100 0 -168 -60.5t-68 -146.5z" />
<glyph unicode="'" horiz-adv-x="415" d="M121 1417q0 36 24 59t58 23q47 0 73.5 -38t26.5 -91q0 -19 -4 -42t-17.5 -63t-49.5 -77.5t-89 -61.5v68q35 23 56 70t18 77q-28 -1 -48.5 6.5t-30 21t-13.5 25.5t-4 23z" />
<glyph unicode="(" horiz-adv-x="559" d="M100 709q0 192 74 383t213 421l107 -51q-98 -145 -180.5 -362.5t-82.5 -397.5q0 -158 69 -346.5t192 -375.5l-105 -56q-287 427 -287 785z" />
<glyph unicode=")" horiz-adv-x="559" d="M76 1462l106 51q139 -230 213 -421t74 -383q0 -358 -287 -785l-104 56q123 187 191.5 375.5t68.5 346.5q0 180 -82 397t-180 363z" />
<glyph unicode="*" horiz-adv-x="671" d="M137 1290l23 74l141 -53l-6 149h90l-6 -149l141 53l23 -74l-140 -45l91 -127l-66 -45l-88 133l-88 -133l-62 45l89 127z" />
<glyph unicode="+" horiz-adv-x="866" d="M119 670v114h256v277h127v-277h256v-114h-256v-277h-127v277h-256z" />
<glyph unicode="," horiz-adv-x="403" d="M106 78q0 35 24 57.5t58 22.5q47 0 73 -37t26 -90q0 -20 -4 -43t-17.5 -63.5t-48.5 -78t-88 -61.5v68q35 23 56 70.5t18 76.5q-54 -1 -75.5 24t-21.5 54z" />
<glyph unicode="-" horiz-adv-x="876" d="M145 494v129h596v-129h-596z" />
<glyph unicode="." horiz-adv-x="397" d="M123 80q0 34 23 57t57 23t57 -23t23 -57t-23 -57t-57 -23t-57 23t-23 57z" />
<glyph unicode="/" horiz-adv-x="1251" d="M70 0l966 1454h160l-969 -1454h-157z" />
<glyph unicode="0" horiz-adv-x="1419" d="M115 717q0 105 26.5 210.5t78.5 200t123 167.5t167.5 116t204.5 43q96 0 182 -32.5t150.5 -88.5t116 -128.5t84.5 -155.5t50 -167.5t17 -164.5q0 -106 -26.5 -212.5t-78.5 -200.5t-123 -167t-167.5 -115.5t-204.5 -41.5q-114 1 -213.5 46.5t-169 120t-119.5 170.5 t-74 198t-24 202zM258 717q1 -87 20 -172.5t57.5 -164.5t91 -139t127.5 -96t161 -36q89 0 165.5 38.5t129 101t89.5 143t54.5 163.5t17.5 162q0 86 -19.5 172.5t-58.5 164.5t-92.5 138.5t-127.5 96.5t-158 36q-110 0 -201 -58.5t-145.5 -150t-83.5 -196t-27 -203.5z" />
<glyph unicode="1" horiz-adv-x="913" d="M94 1141v131q40 0 88 20t87 48.5t74 58.5t54 50t21 24h141v-1346h260v-127h-678v127h277v1190q-38 -53 -142.5 -114.5t-181.5 -61.5z" />
<glyph unicode="2" horiz-adv-x="1210" d="M115 0v29q0 106 17.5 192.5t49.5 152.5t82 120.5t109 94.5t137 77q28 13 72 32t75 32t71 33.5t68 38.5t57 45t46.5 56t29 67.5t11.5 82.5q0 124 -81 206t-234 82q-74 0 -141.5 -20t-117.5 -54t-85 -66t-62 -68l-92 90q17 21 36 42t68.5 62t103 70t136 52.5t170.5 23.5 q110 0 197.5 -33.5t142.5 -92t84 -133t29 -159.5q0 -58 -17 -111t-36.5 -90.5t-63.5 -76.5t-69 -59.5t-83.5 -50t-76.5 -38t-77 -32.5q-11 -5 -16 -7q-111 -46 -184 -96t-114 -108t-57.5 -119t-16.5 -140h813v-127h-981z" />
<glyph unicode="3" horiz-adv-x="1214" d="M113 319l86 78q8 -112 120.5 -198t278.5 -86q157 0 261 78.5t104 201.5q0 134 -126 211.5t-341 77.5h-70v121h70q203 0 315.5 67t112.5 195q0 126 -98 204.5t-238 78.5q-131 0 -229 -58t-138 -149l-96 94q56 109 183.5 173.5t277.5 64.5q208 0 345.5 -115.5t137.5 -288.5 q0 -124 -73 -205.5t-212 -115.5q145 -28 233.5 -130.5t88.5 -240.5q0 -118 -70.5 -209.5t-185.5 -138.5t-252 -47q-194 0 -328 93t-157 244z" />
<glyph unicode="4" horiz-adv-x="1171" d="M61 389v125l758 940h96v-938h181v-127h-181v-389h-139v389h-715zM211 516h577v721z" />
<glyph unicode="5" horiz-adv-x="1165" d="M102 260l93 70q58 -103 157.5 -163.5t216.5 -60.5q154 0 257.5 99t103.5 254q0 149 -100 245.5t-248 96.5q-95 0 -181 -43.5t-139 -120.5h-129l162 817h702v-129h-598l-100 -522q109 121 299 121q202 0 337.5 -130.5t135.5 -332.5q0 -140 -68 -251t-182.5 -170.5 t-253.5 -59.5q-154 0 -277.5 75.5t-187.5 204.5z" />
<glyph unicode="6" horiz-adv-x="1251" d="M123 588q0 432 143.5 654t392.5 222q142 0 257.5 -72t175.5 -198l-91 -82q-41 104 -135 166.5t-209 62.5q-182 0 -291 -168.5t-110 -465.5q44 120 154.5 192t248.5 72q137 0 252 -65.5t181.5 -178.5t66.5 -248q0 -136 -67.5 -250.5t-186 -181.5t-260.5 -67 q-234 0 -378 164t-144 444zM266 479q0 -154 113 -265.5t268 -111.5t267 111t112 266t-112.5 266t-266.5 111q-157 0 -269 -111t-112 -266z" />
<glyph unicode="7" horiz-adv-x="1079" d="M76 1325v129h1005l-735 -1454h-158l672 1325h-784z" />
<glyph unicode="8" horiz-adv-x="1230" d="M115 412q0 130 86.5 227.5t204.5 138.5q-104 43 -172 123t-68 182q0 87 40.5 159t106 117t145.5 70t163 25q112 0 214 -41.5t171 -128t69 -199.5q0 -102 -69.5 -183t-174.5 -124q127 -44 210 -143.5t83 -231.5q0 -123 -70.5 -220t-186 -148t-253.5 -51 q-216 0 -357.5 124.5t-141.5 303.5zM258 412q0 -91 56 -162t138.5 -106t170.5 -35q139 0 249.5 86.5t110.5 218.5q0 93 -56.5 164.5t-138.5 106t-170 34.5q-91 0 -172.5 -37t-134.5 -109t-53 -161zM307 1077q0 -76 49 -134.5t119.5 -86t145.5 -27.5q74 0 144.5 28.5 t119.5 88t49 135.5q0 112 -93.5 179t-222.5 67q-127 0 -219 -68.5t-92 -181.5z" />
<glyph unicode="9" horiz-adv-x="1251" d="M100 965q0 103 40.5 195.5t109 159t164 105.5t202.5 39q234 0 378.5 -163t144.5 -443q0 -433 -144 -655.5t-393 -222.5q-143 0 -258.5 72.5t-173.5 199.5l88 80q43 -103 137 -165.5t209 -62.5q182 0 291.5 168t110.5 465q-46 -120 -156.5 -192t-247.5 -72 q-138 0 -253.5 66t-182 179t-66.5 247zM236 967q0 -155 112.5 -267t267.5 -112t267 111.5t112 265.5t-113 266t-268 112t-266.5 -111t-111.5 -265z" />
<glyph unicode=":" horiz-adv-x="413" d="M123 80q0 34 23 57t57 23t57 -23t23 -57t-23 -57t-57 -23t-57 23t-23 57zM123 721q0 34 23 57t57 23t57 -23t23 -57t-23 -57t-57 -23t-57 23t-23 57z" />
<glyph unicode=";" horiz-adv-x="444" d="M106 78q0 -29 21.5 -54t75.5 -24q3 -29 -18 -76.5t-56 -70.5v-68q53 24 88 61.5t48.5 78t17.5 63.5t4 43q0 53 -26 90t-73 37q-34 0 -58 -22.5t-24 -57.5zM123 721q0 34 23 57t57 23t57 -23t23 -57t-23 -57t-57 -23t-57 23t-23 57z" />
<glyph unicode="&#x3c;" horiz-adv-x="1046" d="M80 489v76l858 516v-149l-657 -402l657 -399v-154z" />
<glyph unicode="=" horiz-adv-x="913" d="M154 397v101h618v-101h-618zM154 633v100h618v-100h-618z" />
<glyph unicode="&#x3e;" horiz-adv-x="1046" d="M119 -23v154l657 399l-657 402v149l860 -516v-76z" />
<glyph unicode="?" horiz-adv-x="991" d="M82 1208q56 123 173.5 194t254.5 71q77 0 147.5 -24.5t127 -71.5t90.5 -124t34 -172q0 -45 -9 -85t-20.5 -68.5t-36.5 -57.5t-42 -45.5t-54 -40.5t-54 -34t-60 -33q-37 -20 -57.5 -33t-49 -39.5t-43.5 -54.5t-26 -73.5t-11 -102.5h-118q0 132 41.5 212.5t132.5 135.5 q16 9 58 32.5t65.5 37.5t58.5 42.5t54 56t33.5 69.5t14.5 90q0 126 -82 196t-196 70q-105 0 -194.5 -59t-135.5 -150zM311 80q0 -34 23 -57t57 -23t57 23t23 57t-23 57t-57 23t-57 -23t-23 -57z" />
<glyph unicode="@" horiz-adv-x="1701" d="M113 471q0 169 63 314t167.5 242.5t241.5 152.5t285 55q150 0 286.5 -57t238 -158t161.5 -248t60 -317q0 -31 -2 -64t-9.5 -83.5t-19.5 -94.5t-35 -90.5t-53 -79.5t-76.5 -54.5t-103.5 -21.5q-184 0 -195 244q-44 -79 -116.5 -124.5t-163.5 -45.5q-157 0 -261 118 t-104 279q0 164 104.5 282t252.5 118q94 0 169.5 -48.5t118.5 -127.5v157h101v-571q0 -51 3.5 -84t14 -63t32 -44t54.5 -14q61 0 105.5 42.5t67 110.5t32.5 133.5t10 129.5q0 195 -88 357t-243 255.5t-343 93.5q-186 0 -342 -88.5t-248 -248.5t-92 -357q0 -192 87 -352.5 t241 -254t342 -93.5q158 0 315 77l27 -65q-165 -82 -342 -82q-202 0 -372 99t-270.5 276.5t-100.5 394.5zM580 438q0 -127 80.5 -218t201.5 -91q89 0 156.5 52.5t103.5 137.5v232q-35 88 -105.5 143.5t-156.5 55.5q-81 0 -146.5 -47t-99.5 -118t-34 -147z" />
<glyph unicode="A" horiz-adv-x="1400" d="M41 0l608 1454h117l608 -1454h-153l-189 455h-653l-186 -455h-152zM410 567h589l-290 719z" />
<glyph unicode="B" horiz-adv-x="1378" d="M195 0v1454h698q98 0 176 -55.5t117 -139t39 -176.5q0 -110 -56 -202t-153 -136q124 -37 197 -137.5t73 -232.5q0 -161 -119 -268t-288 -107h-684zM336 125h543q110 0 187 82.5t77 191.5q0 110 -72.5 193.5t-177.5 83.5h-557v-551zM336 793h500q105 0 177 80t72 188 q0 112 -67.5 190t-169.5 78h-512v-536z" />
<glyph unicode="C" horiz-adv-x="1421" d="M100 737q0 133 47.5 261.5t133 232t219 167.5t291.5 64q188 0 327 -86t209 -231l-115 -70q-33 70 -83 121.5t-108 80.5t-117.5 42.5t-121.5 13.5q-126 0 -230 -53t-170 -139.5t-102 -193t-36 -218.5q0 -119 42 -231t113.5 -196t173.5 -134.5t215 -50.5q86 0 169 27.5 t159.5 90t120.5 152.5l119 -61q-45 -104 -140.5 -182.5t-208.5 -117t-227 -38.5q-116 0 -223 42t-189 115.5t-143 168t-93 204t-32 219.5z" />
<glyph unicode="D" horiz-adv-x="1480" d="M195 0v1454h491q136 0 250.5 -37t196 -103t138 -157t84 -199t27.5 -229q0 -331 -189 -530t-507 -199h-491zM336 127h350q133 0 239 46t174 127t104 190.5t36 238.5q0 267 -146.5 432.5t-406.5 165.5h-350v-1200z" />
<glyph unicode="E" horiz-adv-x="1265" d="M195 0v1454h958v-127h-817v-524h713v-121h-713v-555h835v-127h-976z" />
<glyph unicode="F" horiz-adv-x="1208" d="M195 0v1454h952v-127h-811v-534h686v-119h-686v-674h-141z" />
<glyph unicode="G" horiz-adv-x="1515" d="M102 731q0 142 51.5 275t141 234.5t219.5 162.5t277 61q178 0 322 -84.5t233 -228.5l-111 -92q-71 117 -188 196.5t-265 79.5q-119 0 -221.5 -52.5t-170 -139t-106 -195.5t-38.5 -223t39 -222.5t107 -194t171 -137.5t221 -52q134 0 248 67.5t183 172.5t90 227h-426v129 h579q0 -5 -1 -41t-1 -43q-12 -127 -66.5 -243.5t-139.5 -204.5t-204 -140.5t-253 -52.5q-118 0 -226 40.5t-191.5 111.5t-146 164t-95 202.5t-32.5 222.5z" />
<glyph unicode="H" horiz-adv-x="1523" d="M195 0v1454h141v-647h862v647h143v-1454h-143v680h-862v-680h-141z" />
<glyph unicode="I" horiz-adv-x="520" d="M195 0v1452h141v-1452h-141z" />
<glyph unicode="J" horiz-adv-x="1005" d="M47 68l41 114q109 -76 274 -76q63 0 112 14t84 38t60 65.5t40 87.5t23.5 113.5t11.5 133.5t3 157v737h144v-737q0 -103 -4 -180.5t-16.5 -158.5t-34 -138t-57.5 -109t-86 -83.5t-120 -50t-160 -18.5q-182 0 -315 91z" />
<glyph unicode="K" horiz-adv-x="1323" d="M195 0v1452h141v-844l801 846h157l-594 -639l627 -815h-158l-557 731l-276 -285v-446h-141z" />
<glyph unicode="L" horiz-adv-x="1218" d="M195 0v1454h141v-1327h842v-127h-983z" />
<glyph unicode="M" horiz-adv-x="1808" d="M195 0v1454h145l569 -995l570 995h145v-1454h-141v1194l-531 -924h-84l-532 924v-1194h-141z" />
<glyph unicode="N" horiz-adv-x="1593" d="M195 0v1454h110l963 -1210v1208h141v-1452h-123l-950 1188v-1188h-141z" />
<glyph unicode="O" d="M102 727q0 144 53 278.5t142.5 235.5t218 162t270.5 61q118 0 226 -41.5t189.5 -113.5t142 -166t91.5 -201.5t31 -216.5q0 -144 -52.5 -278t-142 -235t-217.5 -161.5t-270 -60.5q-148 0 -277.5 63t-217 166t-137.5 235.5t-50 272.5zM246 727q0 -158 67 -296.5t192 -225 t279 -86.5q120 0 223 53t171 139t106.5 194.5t38.5 221.5q0 158 -68 296t-193 224t-278 86q-120 0 -223 -52.5t-170.5 -138t-106 -194t-38.5 -221.5z" />
<glyph unicode="P" horiz-adv-x="1282" d="M195 0v1454h602q120 0 220.5 -67.5t155 -172t54.5 -217.5q0 -120 -51.5 -224.5t-148.5 -170t-218 -65.5h-473v-537h-141zM336 664h465q125 0 203.5 98t78.5 235q0 136 -87.5 233t-207.5 97h-452v-663z" />
<glyph unicode="Q" d="M102 727q0 144 53 278.5t142.5 235.5t218 162t270.5 61q118 0 226 -41.5t189.5 -113.5t142 -166t91.5 -201.5t31 -216.5q0 -148 -54 -284t-150 -238l172 -203h-142l-110 129q-179 -139 -398 -139q-119 1 -226.5 41.5t-189.5 111.5t-142.5 163.5t-92 201t-31.5 219.5z M246 727q0 -158 67 -296.5t192 -225t279 -86.5q175 0 314 110l-183 217h142l117 -139q72 86 110.5 195.5t38.5 224.5q0 158 -68 296.5t-193 225t-278 86.5q-96 0 -182 -34t-150 -93.5t-111 -136.5t-71 -165.5t-24 -178.5z" />
<glyph unicode="R" horiz-adv-x="1361" d="M195 0v1454h612q121 0 222 -67.5t155.5 -172t54.5 -217.5q0 -160 -90.5 -283.5t-235.5 -152.5l359 -561h-162l-344 537h-430v-537h-141zM336 664h477q125 0 204 99.5t79 233.5q0 133 -87.5 231.5t-207.5 98.5h-465v-663z" />
<glyph unicode="S" horiz-adv-x="1263" d="M82 199l70 116q84 -88 220.5 -144t295.5 -56q176 0 273 64t97 188q0 53 -19 93.5t-51 70t-90.5 54.5t-121 43t-158.5 40q-99 23 -165.5 44t-127.5 51.5t-95.5 68.5t-54.5 91.5t-20 123.5q0 198 142 307.5t376 109.5q271 0 463 -168l-67 -114q-63 71 -167.5 113t-230.5 42 q-188 0 -279 -70.5t-91 -199.5q0 -43 10 -76t33.5 -59.5t53 -45.5t79.5 -37t101 -31t128 -30q101 -22 172 -43t137.5 -53.5t106 -74t63 -100.5t23.5 -136q0 -194 -142.5 -293.5t-379.5 -99.5q-341 0 -584 211z" />
<glyph unicode="T" horiz-adv-x="1267" d="M49 1327v127h1180v-127h-518v-1327h-144v1327h-518z" />
<glyph unicode="U" horiz-adv-x="1556" d="M172 721v733h141v-733q0 -96 14 -180t48 -163t86 -135.5t134 -90t187 -33.5q107 0 190.5 34.5t135.5 91.5t85.5 136.5t46.5 162.5t13 177v733h144v-733q0 -121 -20.5 -226.5t-67 -199.5t-116.5 -160.5t-174.5 -105.5t-234.5 -39q-135 0 -241 41t-174.5 109t-114 163.5 t-64 198.5t-18.5 219z" />
<glyph unicode="V" horiz-adv-x="1396" d="M35 1454h149l521 -1276l516 1276h151l-606 -1454h-125z" />
<glyph unicode="W" horiz-adv-x="2177" d="M49 1454h160l389 -1247l410 1247h155l426 -1247l387 1247h162l-463 -1454h-149l-439 1223l-425 -1223h-150z" />
<glyph unicode="X" horiz-adv-x="1302" d="M20 1454h160l477 -635l478 635h157l-559 -737l543 -717h-158l-461 614l-460 -614h-160l543 717z" />
<glyph unicode="Y" horiz-adv-x="1308" d="M27 1454h155l477 -782l480 782h155l-565 -913v-541h-141v545z" />
<glyph unicode="Z" horiz-adv-x="1288" d="M68 0v113l989 1214h-973v127h1139v-113l-977 -1214h975v-127h-1153z" />
<glyph unicode="[" horiz-adv-x="518" d="M182 -82v1598h244v-117h-113v-1364h113v-117h-244z" />
<glyph unicode="\" horiz-adv-x="1175" d="M66 1454h159l891 -1454h-158z" />
<glyph unicode="]" horiz-adv-x="518" d="M102 35h115v1364h-115v117h244v-1598h-244v117z" />
<glyph unicode="^" horiz-adv-x="1118" d="M100 621l406 833h119l403 -833h-123l-340 702l-346 -702h-119z" />
<glyph unicode="_" horiz-adv-x="860" d="M45 0h780v-127h-780v127z" />
<glyph unicode="`" horiz-adv-x="464" d="M111 1495h145l123 -190l-90 -35z" />
<glyph unicode="a" horiz-adv-x="1239" d="M90 530q0 149 66 277t180.5 203t249.5 75q129 0 234.5 -66.5t166.5 -176.5v217h139v-1059h-139v215q-62 -109 -162.5 -172t-226.5 -63q-145 0 -263 77t-181.5 202.5t-63.5 270.5zM233 530q0 -175 113.5 -301.5t280.5 -126.5q123 0 217.5 73t142.5 190v323 q-47 122 -145.5 198.5t-218.5 76.5q-112 0 -203 -65t-139 -163.5t-48 -204.5z" />
<glyph unicode="b" horiz-adv-x="1271" d="M160 0v1495h139v-651q162 241 408 241q108 0 200.5 -47.5t153 -125.5t95 -177.5t34.5 -204.5q0 -148 -66.5 -274t-183.5 -201t-258 -75q-122 0 -229 62.5t-168 164.5v-207h-125zM299 365q17 -106 128.5 -184.5t221.5 -78.5q113 0 205.5 61.5t142.5 159t50 207.5 q0 112 -47.5 210.5t-135.5 160.5t-196 62q-119 0 -216.5 -76t-152.5 -191v-331z" />
<glyph unicode="c" horiz-adv-x="1136" d="M90 537q0 151 67.5 276t190.5 198.5t277 73.5q149 0 262.5 -67.5t171.5 -186.5l-135 -43q-44 82 -125 128.5t-178 46.5q-164 0 -276 -122t-112 -304q0 -181 115 -308t275 -127q101 0 193.5 54.5t117.5 128.5l135 -41q-43 -116 -166 -190t-276 -74q-151 0 -275 76 t-193 203.5t-69 277.5z" />
<glyph unicode="d" horiz-adv-x="1245" d="M51 530q0 150 62 276.5t175 202.5t251 76q128 0 233.5 -67t171.5 -174v651h139v-1315q0 -57 50 -57v-123q-35 -6 -56 -6q-50 0 -83 29t-33 71v113q-64 -104 -172.5 -165.5t-225.5 -61.5q-108 0 -204.5 45.5t-163.5 121.5t-105.5 176t-38.5 207zM195 530q0 -114 52 -212.5 t144 -157t201 -58.5q111 0 223 80t129 185v329q-41 110 -150.5 188.5t-218.5 78.5q-110 0 -198.5 -63t-135 -161t-46.5 -209z" />
<glyph unicode="e" horiz-adv-x="1212" d="M90 537q0 148 68.5 273.5t192 200t274.5 74.5t273 -75.5t188 -200t67 -270.5q0 -40 -4 -56h-911q12 -171 125 -284t268 -113q107 0 199 53.5t128 139.5l121 -33q-50 -118 -174.5 -192t-277.5 -74q-152 0 -276 76t-192.5 203t-68.5 278zM233 590h787q-13 169 -125 278 t-270 109t-270 -109.5t-122 -277.5z" />
<glyph unicode="f" horiz-adv-x="716" d="M70 831v111h147v154q0 195 84.5 307.5t230.5 112.5q129 0 224 -68l-43 -100q-60 47 -154 47q-98 0 -150.5 -76t-52.5 -219v-158h295v-111h-295v-831h-139v831h-147z" />
<glyph unicode="g" horiz-adv-x="1271" d="M92 530q0 148 62 274.5t176.5 203.5t257.5 77q244 0 409 -241v223h125v-1071q0 -144 -72 -248.5t-189 -154.5t-263 -50q-174 0 -288 62t-189 180l86 68q61 -98 164.5 -148.5t226.5 -50.5q166 0 275.5 89t109.5 253v211q-63 -101 -169 -161t-222 -60q-142 0 -258 77.5 t-179 201.5t-63 265zM233 528q0 -173 116 -299.5t282 -126.5q122 0 227.5 82t124.5 183v329q-46 116 -151 191.5t-220 75.5q-114 0 -202.5 -65.5t-132.5 -163.5t-44 -206z" />
<glyph unicode="h" horiz-adv-x="1132" d="M123 0v1495h139v-670q64 120 177.5 190t242.5 70q338 0 338 -460v-625h-139v596q0 180 -62.5 271t-183.5 91q-120 0 -228.5 -88t-144.5 -217v-653h-139z" />
<glyph unicode="i" horiz-adv-x="395" d="M123 1370q0 34 23 57t57 23t57 -23t23 -57t-23 -57t-57 -23t-57 23t-23 57zM135 0h139v1067h-139v-1067z" />
<glyph unicode="j" horiz-adv-x="448" d="M-248 -291q86 -80 234 -80q124 0 218.5 93.5t94.5 230.5v1114h-139v-1122q0 -80 -58.5 -135.5t-132.5 -55.5q-95 0 -149 49zM147 1370q0 34 23 57t57 23t57 -23t23 -57t-23 -57t-57 -23t-57 23t-23 57z" />
<glyph unicode="k" horiz-adv-x="1089" d="M160 0v1495h139v-1016l600 586h158l-436 -436l452 -629h-151l-394 547l-229 -213v-334h-139z" />
<glyph unicode="l" horiz-adv-x="550" d="M166 195v1300h139v-1253q0 -60 33 -93.5t92 -33.5q56 0 111 22l24 -112q-39 -15 -95 -26t-97 -11q-96 0 -151.5 55.5t-55.5 151.5z" />
<glyph unicode="m" horiz-adv-x="1886" d="M160 0v1067h127v-242q66 124 172.5 192t234.5 68q131 0 214.5 -75t101.5 -199q149 274 413 274q324 0 324 -460v-625h-139v596q0 185 -58.5 273.5t-177.5 88.5q-120 0 -215.5 -85t-134.5 -222v-651h-139v596q0 188 -57.5 275t-176.5 87t-214.5 -84t-135.5 -221v-653h-139 z" />
<glyph unicode="n" horiz-adv-x="1196" d="M160 0v1067h127v-242q65 117 188 188.5t264 71.5q88 0 150.5 -31.5t99 -93.5t52.5 -144t16 -191v-625h-139v596q0 188 -55 275t-173 87q-126 0 -239 -87t-152 -218v-653h-139z" />
<glyph unicode="o" horiz-adv-x="1228" d="M90 530q0 148 68.5 275.5t191 203.5t271.5 76t271.5 -76t190.5 -203.5t68 -275.5t-67.5 -273.5t-190 -201t-272.5 -75.5q-152 0 -274.5 75.5t-189.5 201t-67 273.5zM233 528q0 -178 112.5 -302t272.5 -124t275 126t115 304t-114 304.5t-273 126.5q-160 0 -274 -127.5 t-114 -307.5z" />
<glyph unicode="p" horiz-adv-x="1269" d="M160 -436v1503h125v-207q66 102 172 163.5t225 61.5q143 0 261 -79t182.5 -205.5t64.5 -268.5q0 -150 -60 -276t-171.5 -201t-251.5 -75q-129 0 -235.5 66.5t-172.5 174.5v-657h-139zM299 371q48 -117 150 -193t219 -76q110 0 198.5 62.5t134.5 160t46 207.5 q0 174 -116.5 302.5t-281.5 128.5q-70 0 -146.5 -35.5t-134.5 -98t-69 -131.5v-327z" />
<glyph unicode="q" horiz-adv-x="1269" d="M90 532q0 147 67 274t184.5 203t256.5 76q121 0 227.5 -63t169.5 -164v209h125v-1317q0 -29 11.5 -43.5t37.5 -15.5v-121q-27 -6 -59 -6q-54 0 -91.5 36.5t-37.5 90.5v530q-156 -241 -408 -241q-140 0 -252 78t-171.5 203.5t-59.5 270.5zM233 530q0 -176 109.5 -302 t273.5 -126q119 0 211.5 70t153.5 182v330q-11 71 -67 136.5t-134 104t-153 38.5q-111 0 -203 -63t-141.5 -162t-49.5 -208z" />
<glyph unicode="r" horiz-adv-x="729" d="M160 0v1067h131v-256q57 116 148.5 189t191.5 73q47 0 61 -2v-127q-141 -5 -246 -78.5t-147 -201.5v-664h-139z" />
<glyph unicode="s" horiz-adv-x="1007" d="M70 139l63 94q179 -147 383 -147q129 0 206 53.5t77 147.5q0 25 -7.5 46t-18 36.5t-34 30t-44.5 25t-61 22.5t-71 20t-86 22q-103 24 -162.5 44t-108 51t-68 73.5t-19.5 104.5q0 104 55 178.5t143.5 109.5t200.5 35q120 0 221 -39.5t164 -105.5l-67 -82q-59 60 -144 91.5 t-178 31.5q-116 0 -189 -50t-73 -149q0 -34 10.5 -58.5t27 -41t53.5 -31.5t73 -25t102 -26q92 -22 150 -39.5t114 -42.5t86 -54t48 -70t18 -95q0 -146 -113.5 -232.5t-302.5 -86.5q-127 0 -245 41t-203 118z" />
<glyph unicode="t" horiz-adv-x="690" d="M61 956v111h148v360h139v-360h246v-111h-246v-725q0 -55 37 -84.5t92 -29.5q87 0 162 47l37 -113q-1 -1 -20.5 -9.5t-32 -13.5t-37.5 -13.5t-46 -13.5t-50 -9t-56 -4q-96 0 -160.5 53.5t-64.5 151.5v763h-148z" />
<glyph unicode="u" horiz-adv-x="1226" d="M150 440v627h139v-602q0 -363 248 -363q125 0 231.5 80t153.5 213v672h139v-887q0 -57 51 -57v-123q-40 -6 -57 -6q-48 0 -81.5 29t-33.5 71v148q-70 -124 -190 -193t-261 -69q-167 0 -253 116.5t-86 343.5z" />
<glyph unicode="v" horiz-adv-x="1095" d="M45 1067h145l367 -938l369 938h135l-434 -1067h-148z" />
<glyph unicode="w" horiz-adv-x="1705" d="M53 1067h148l307 -893l283 893h135l282 -893l310 893h143l-375 -1067h-145l-283 856l-283 -856h-145z" />
<glyph unicode="x" horiz-adv-x="1034" d="M37 0l407 530l-407 537h149l320 -418l16 -31l19 31l317 418h150l-408 -537l408 -530h-150l-317 416l-19 28l-16 -28l-318 -416h-151z" />
<glyph unicode="y" horiz-adv-x="1120" d="M37 1067h145l396 -938l364 938h133l-555 -1376q-32 -77 -85 -113.5t-144 -36.5q-40 0 -70 6v123q24 -4 41 -4q50 0 78 12q23 9 53 68t109 254z" />
<glyph unicode="z" horiz-adv-x="1005" d="M68 0v94l720 869h-704v104h856v-94l-717 -869h717v-104h-872z" />
<glyph unicode="{" horiz-adv-x="528" d="M119 686v107q38 0 59 37t21 71v553q0 33 15.5 47.5t31.5 14.5h192v-117h-112v-535q0 -76 -56 -127q29 -25 42.5 -61.5t13.5 -65.5v-557h112v-116h-192q-47 0 -47 61v575q0 42 -21.5 75.5t-58.5 37.5z" />
<glyph unicode="|" horiz-adv-x="466" d="M178 -266v1853h121v-1853h-121z" />
<glyph unicode="}" horiz-adv-x="528" d="M102 53h113v557q0 81 53 127q-53 48 -53 127v535h-113v117h193q15 0 31 -14.5t16 -47.5v-553q0 -35 20 -71.5t58 -36.5v-107q-36 -4 -57 -37t-21 -76v-575q0 -32 -14.5 -46.5t-32.5 -14.5h-193v116z" />
<glyph unicode="~" horiz-adv-x="1050" d="M143 494q0 14 12.5 45t36.5 70t70 67.5t103 28.5q42 0 87.5 -18.5t79.5 -41t78 -41t82 -18.5q47 0 82 25.5t47.5 48.5t12.5 32h88q0 -6 -7 -25.5t-24.5 -49.5t-42.5 -57t-67 -46.5t-91 -19.5q-45 0 -94 18.5t-84 40.5t-76.5 40.5t-73.5 18.5q-27 0 -50.5 -12t-37.5 -28.5 t-24.5 -34.5t-14.5 -29.5t-4 -13.5h-88z" />
<glyph unicode="&#xa1;" horiz-adv-x="509" d="M182 1384q0 34 23 57t57 23t57 -23t23 -57t-23 -56.5t-57 -22.5t-57 22.5t-23 56.5zM190 -4h140v1001h-140v-1001z" />
<glyph unicode="&#xa2;" horiz-adv-x="1171" d="M104 528q0 139 57.5 260t168 201.5t252.5 93.5v238h75v-238q294 -9 416 -252l-133 -43q-44 81 -118 123t-165 47v-854q89 5 180 56.5t113 124.5l135 -41q-31 -83 -106.5 -145.5t-159 -90.5t-162.5 -28v-226h-75v228q-135 11 -246 93t-171.5 202.5t-60.5 250.5zM248 528 q0 -153 95 -273.5t239 -143.5v843q-101 -10 -179 -75t-116.5 -157t-38.5 -194z" />
<glyph unicode="&#xa3;" horiz-adv-x="1044" d="M119 651v111h192q-13 26 -45 83.5t-48 90t-31 82.5t-15 96q0 146 109.5 248t263.5 102q110 0 209 -57.5t161 -157.5l-81 -86q-50 85 -129 135t-164 50q-100 0 -169 -70.5t-69 -171.5q0 -54 20.5 -107.5t62 -126.5t58.5 -110h365v-111h-324q17 -66 17 -123 q0 -104 -47.5 -198t-165.5 -219q77 18 151 18q60 0 152 -18.5t139 -18.5q72 0 182 37l35 -106q-111 -54 -223 -54q-61 0 -169.5 24.5t-172.5 24.5q-102 0 -221 -34l-37 102q140 139 197 236.5t57 197.5q0 59 -21 131h-239z" />
<glyph unicode="&#xa5;" horiz-adv-x="1398" d="M72 1454h155l475 -782l480 782h157l-442 -704h172v-99h-227l-68 -110v-56h297v-98h-297v-387h-143v387h-293v98h293v60l-64 106h-229v99h176z" />
<glyph unicode="&#xa6;" horiz-adv-x="475" d="M182 -266v833h121v-833h-121zM182 754v833h121v-833h-121z" />
<glyph unicode="&#xa7;" horiz-adv-x="1058" d="M111 1110q0 103 57 184.5t151 125.5t205 44q122 0 214.5 -54t150.5 -140l-109 -51q-31 60 -103.5 89t-152.5 29q-115 0 -194.5 -60.5t-79.5 -170.5q0 -38 11.5 -69t28 -51.5t43 -35.5t48 -23t52.5 -13t47 -6.5t40 -2.5q68 -4 126 -15.5t111.5 -35t91 -58t59.5 -86.5 t22 -118q0 -124 -62 -193q95 -59 95 -209q0 -93 -38.5 -166.5t-100.5 -116.5t-133.5 -65t-145.5 -22q-121 0 -225 54t-177 132l90 86q148 -139 304 -139q114 0 198 61.5t84 169.5q0 46 -18 79.5t-41.5 51.5t-64 30t-66.5 15.5t-68 6.5q-399 36 -399 325q0 114 53 182 q-45 32 -74.5 96.5t-29.5 139.5zM297 674q0 -58 24 -98.5t60.5 -59.5t87 -31t96 -16t95 -11t77.5 -18q28 23 44 63.5t16 84.5q0 56 -25 97t-67.5 62.5t-86.5 31.5t-94 12q-42 1 -62 2.5t-52 7.5t-62 18q-51 -48 -51 -145z" />
<glyph unicode="&#xa8;" horiz-adv-x="684" d="M115 1374q0 34 23 57t57 23t56.5 -23t22.5 -57t-22.5 -57t-56.5 -23t-57 23t-23 57zM422 1374q0 34 23 57t57 23t57 -23t23 -57t-23 -57t-57 -23t-57 23t-23 57z" />
<glyph unicode="&#xa9;" horiz-adv-x="1726" d="M115 727q0 156 57 293t156 234.5t238.5 153.5t299.5 56q214 0 387 -95.5t271 -264.5t98 -377q0 -157 -57.5 -294.5t-157.5 -235.5t-240.5 -154.5t-300.5 -56.5t-299.5 56.5t-238.5 154.5t-156 235.5t-57 294.5zM184 725q0 -189 88.5 -343t244.5 -241.5t349 -87.5 q191 0 347 84t246.5 237.5t90.5 348.5q0 143 -52 268t-142.5 214.5t-217.5 140.5t-272 51q-192 0 -348 -87t-245 -241t-89 -344zM403 727q0 70 18 138t55.5 129.5t91.5 108.5t132 75t170 28q136 0 241.5 -59.5t150.5 -167.5l-134 -43q-37 81 -109.5 114t-148.5 33 q-78 0 -141.5 -31t-102 -82.5t-59 -114t-20.5 -128.5q0 -81 30 -149.5t78.5 -112t105.5 -68t113 -24.5q80 0 158 43t111 112l135 -39q-34 -87 -143.5 -162t-253.5 -75q-125 0 -233.5 57.5t-176.5 167.5t-68 250z" />
<glyph unicode="&#xaa;" horiz-adv-x="899" d="M106 934q0 98 86 160.5t220 62.5q125 0 209 -37v58q0 88 -52.5 139t-144.5 51q-106 0 -234 -84l-40 76q143 94 284 94q144 0 225.5 -76t81.5 -213v-293q0 -42 39 -45v-106q-36 -4 -47 -4q-40 0 -66.5 20.5t-27.5 53.5l-2 51q-51 -64 -125.5 -98.5t-161.5 -34.5 q-103 0 -173.5 65t-70.5 160zM221 942q0 -60 46.5 -100.5t115.5 -40.5q87 0 162.5 44.5t75.5 96.5v107q-73 32 -189 32q-94 0 -152.5 -38t-58.5 -101z" />
<glyph unicode="&#xab;" horiz-adv-x="1193" d="M100 489v76l510 365v-121l-395 -279l395 -274v-121zM553 489v76l508 365v-121l-393 -279l393 -274v-121z" />
<glyph unicode="&#xac;" horiz-adv-x="1216" d="M172 618v127h899v-487h-123v360h-776z" />
<glyph unicode="&#xad;" horiz-adv-x="1177" d="M145 494v129h899v-129h-899z" />
<glyph unicode="&#xae;" horiz-adv-x="1726" d="M115 727q0 156 57 293t156 234.5t238.5 153.5t299.5 56q214 0 387 -95.5t271 -264.5t98 -377q0 -157 -57.5 -294.5t-157.5 -235.5t-240.5 -154.5t-300.5 -56.5t-299.5 56.5t-238.5 154.5t-156 235.5t-57 294.5zM188 727q0 -190 87.5 -345t242.5 -243t348 -88 q191 0 346.5 84t245.5 238.5t90 351.5q0 189 -88 343t-244 241.5t-350 87.5q-192 0 -347.5 -87.5t-243 -241t-87.5 -341.5zM555 260v928h391q116 0 195.5 -90.5t79.5 -202.5q0 -101 -58 -179.5t-151 -97.5l227 -358h-119l-217 344h-241v-344h-107zM662 698h284 q81 0 125.5 55t44.5 142q0 85 -50.5 140t-127.5 55h-276v-392z" />
<glyph unicode="&#xaf;" horiz-adv-x="821" d="M121 1358v96h592v-96h-592z" />
<glyph unicode="&#xb0;" horiz-adv-x="557" d="M113 1315q0 70 49.5 119t120.5 49q72 0 121 -48.5t49 -119.5q0 -73 -49 -122.5t-121 -49.5q-71 0 -120.5 49.5t-49.5 122.5zM193 1313q0 -38 26 -64t64 -26q39 0 65 26q25 29 25 64q0 34 -25 63q-24 27 -65 27q-40 0 -64 -27q-26 -26 -26 -63z" />
<glyph unicode="&#xb1;" horiz-adv-x="952" d="M152 125v117h661v-117h-661zM152 688v117h266v287h127v-287h268v-117h-268v-287h-127v287h-266z" />
<glyph unicode="&#xb2;" horiz-adv-x="808" d="M86 670q0 104 28.5 175.5t83 117t146.5 81.5q17 7 62.5 23.5t67 25t56.5 27t51.5 35.5t30 43t13.5 57q0 66 -54.5 109t-154.5 43q-157 0 -260 -113l-62 64q10 15 33.5 35t64 45t103.5 42t133 17q143 0 221 -67.5t78 -172.5q0 -34 -9.5 -64t-23 -51.5t-36.5 -41.5t-42 -32 t-48 -25t-47 -19t-46 -15t-37 -12q-121 -41 -169 -101.5t-48 -137.5h496v-88h-631z" />
<glyph unicode="&#xb3;" horiz-adv-x="813" d="M84 840l55 59q6 -55 81 -102t181 -47q102 0 170 40t68 105q0 71 -82 111.5t-223 40.5h-47v83h47q131 0 203.5 34.5t72.5 101.5q0 66 -63 106.5t-154 40.5q-82 0 -143.5 -31t-93.5 -84l-64 70q36 59 119.5 94t181.5 35q135 0 225.5 -64t90.5 -161q0 -141 -187 -180 q96 -13 153.5 -71.5t57.5 -137.5q0 -102 -96.5 -164t-235.5 -62q-128 0 -215 50t-102 133z" />
<glyph unicode="&#xb4;" horiz-adv-x="464" d="M111 1305l120 190h148l-176 -225z" />
<glyph unicode="&#xb5;" horiz-adv-x="1234" d="M174 -434v1501h139v-602q0 -183 62.5 -273t189.5 -90q123 0 229.5 80.5t153.5 212.5v672h139v-887q0 -57 52 -57v-123q-41 -6 -60 -6q-47 0 -79.5 28.5t-32.5 71.5v148q-57 -112 -170.5 -187t-237.5 -75q-96 0 -159.5 47t-92.5 127v-588h-133z" />
<glyph unicode="&#xb6;" horiz-adv-x="1236" d="M84 961q0 232 153 362.5t425 130.5h493v-111h-143v-1507h-123v637h-152v-637h-121v637q-246 3 -389 133.5t-143 354.5zM205 965q0 -180 115.5 -275.5t295.5 -105.5v759q-197 -1 -304 -102t-107 -276zM737 584h152v759h-152v-759z" />
<glyph unicode="&#xb7;" horiz-adv-x="397" d="M123 584q0 34 23 57t57 23t57 -23t23 -57t-23 -57t-57 -23t-57 23t-23 57z" />
<glyph unicode="&#xb8;" horiz-adv-x="589" d="M55 -322l35 64q76 -37 180 -37q117 0 117 72q0 73 -102 73q-82 0 -164 -28l117 215l67 -27l-72 -114q30 12 78 12q72 0 114 -32.5t42 -92.5q0 -69 -54 -106t-155 -37q-102 0 -203 38z" />
<glyph unicode="&#xb9;" horiz-adv-x="567" d="M80 1292v92q24 0 52.5 11t52.5 27t44.5 32.5t32 28.5t12.5 14h95v-737h153v-92h-413v92h165v633q-26 -31 -87.5 -66t-106.5 -35z" />
<glyph unicode="&#xba;" horiz-adv-x="927" d="M100 1081q0 155 104.5 264t264.5 109t264.5 -109t104.5 -264q0 -153 -104 -262.5t-265 -109.5t-265 109.5t-104 262.5zM223 1079q0 -112 71.5 -189t174.5 -77q102 0 174 79t72 191t-72 188.5t-174 76.5t-174 -78t-72 -191z" />
<glyph unicode="&#xbb;" horiz-adv-x="1193" d="M141 135v121l396 274l-396 279v121l508 -365v-76zM594 135v121l393 274l-393 279v121l508 -365v-76z" />
<glyph unicode="&#xbc;" horiz-adv-x="1710" d="M104 1292v92q38 0 86.5 27.5t77.5 53.5t31 32h94v-737h154v-92h-414v92h166v633q-25 -31 -87.5 -66t-107.5 -35zM285 55l573 697l555 710l72 -61l-570 -696l-559 -713zM954 211v86l496 520h63v-516h117v-90h-117v-211h-92v211h-467zM1053 301h370v391z" />
<glyph unicode="&#xbd;" horiz-adv-x="1789" d="M111 1292v92q24 0 52.5 11t52.5 27t44.5 32.5t32 28.5t12.5 14h94v-737h154v-92h-414v92h166v633q-26 -31 -87.5 -66t-106.5 -35zM217 55l574 697l555 710l71 -61l-569 -696l-559 -713zM1075 0q0 154 60 239t192 138q16 6 52 19t55.5 21t49.5 21.5t47 27t34.5 31.5 t25.5 40.5t8 48.5q0 66 -52.5 109.5t-149.5 43.5q-150 0 -254 -114l-60 65q13 16 34.5 34.5t61.5 44t100.5 42t129.5 16.5q140 0 215.5 -67.5t75.5 -175.5q0 -35 -10.5 -66t-24.5 -52.5t-41.5 -42.5t-46 -32.5t-54.5 -26t-51 -19.5l-51 -17q-121 -39 -175 -105t-54 -133h510 v-90h-627z" />
<glyph unicode="&#xbe;" horiz-adv-x="1742" d="M100 840l56 59q6 -55 81 -102t181 -47q102 0 169.5 40t67.5 105q0 71 -82 111.5t-223 40.5h-47v83h47q131 0 204 35t73 101t-63 106.5t-154 40.5q-82 0 -144 -31t-94 -84l-63 70q36 59 119.5 94t181.5 35q135 0 225 -64t90 -161q0 -142 -186 -180q96 -13 153.5 -71.5 t57.5 -137.5q0 -102 -96.5 -164t-235.5 -62q-128 0 -215.5 50t-102.5 133zM356 55l574 697l555 710l71 -61l-569 -696l-559 -713zM975 211v86l495 520h64v-516h117v-90h-117v-211h-92v211h-467zM1073 301h371v391z" />
<glyph unicode="&#xbf;" horiz-adv-x="976" d="M84 -45q0 -95 34 -171.5t90.5 -123.5t127 -71.5t147.5 -24.5q137 0 254.5 70.5t173.5 193.5l-96 61q-46 -91 -135 -149.5t-195 -58.5q-114 0 -196 70t-82 196q0 48 14.5 90t34 69t54.5 55.5t59 42.5t65.5 37t57.5 33q91 55 132.5 136t41.5 213h-119q0 -57 -11 -102.5 t-26 -74t-43.5 -54.5t-49 -39.5t-57.5 -33.5q-43 -23 -60 -33t-54 -34t-54 -40.5t-42 -45.5t-36.5 -57.5t-20.5 -68.5t-9 -85zM522 958q0 34 23 57t57 23t57 -23t23 -57t-23 -56.5t-57 -22.5t-57 22.5t-23 56.5z" />
<glyph unicode="&#xc0;" horiz-adv-x="1400" d="M41 0l608 1454h117l608 -1454h-153l-189 455h-653l-186 -455h-152zM410 567h589l-290 719zM518 1878h146l122 -190l-90 -35z" />
<glyph unicode="&#xc1;" horiz-adv-x="1400" d="M41 0l608 1454h117l608 -1454h-153l-189 455h-653l-186 -455h-152zM410 567h589l-290 719zM629 1688l121 190h147l-176 -225z" />
<glyph unicode="&#xc2;" horiz-adv-x="1400" d="M41 0l608 1454h117l608 -1454h-153l-189 455h-653l-186 -455h-152zM410 567h589l-290 719zM455 1704l200 174h103l203 -174l-80 -43l-174 129l-175 -129z" />
<glyph unicode="&#xc3;" horiz-adv-x="1400" d="M41 0l608 1454h117l608 -1454h-153l-189 455h-653l-186 -455h-152zM383 1673q0 16 8 43t26.5 62.5t58.5 60.5t93 25q48 0 92.5 -21.5t86 -43t83.5 -21.5q30 0 53 10t34.5 23t18.5 28.5t9 24.5t2 14h86q0 -15 -8.5 -41.5t-28.5 -61.5t-62.5 -60t-100.5 -25 q-52 0 -99.5 20.5t-88 41t-75.5 20.5q-31 0 -53.5 -13.5t-32 -33t-13 -32.5t-3.5 -20h-86zM410 567h589l-290 719z" />
<glyph unicode="&#xc4;" horiz-adv-x="1400" d="M41 0h152l186 455h653l189 -455h153l-608 1454h-117zM410 567l299 719l290 -719h-589zM473 1757q0 34 23 57t57 23t57 -23t23 -57t-23 -57t-57 -23t-57 23t-23 57zM780 1757q0 34 23 57t57 23t57 -23t23 -57t-23 -57t-57 -23t-57 23t-23 57z" />
<glyph unicode="&#xc5;" horiz-adv-x="1400" d="M41 0l608 1454h117l608 -1454h-153l-189 455h-653l-186 -455h-152zM410 567h589l-290 719zM555 1745q0 59 42.5 96t109.5 37t109 -36.5t42 -96.5q0 -61 -42 -98t-109 -37t-109.5 37t-42.5 98zM625 1745q0 -34 23.5 -57t58.5 -23q33 0 58.5 23t25.5 57q0 35 -24 56.5 t-60 21.5q-35 0 -58.5 -21.5t-23.5 -56.5z" />
<glyph unicode="&#xc6;" horiz-adv-x="2039" d="M8 0l936 1454h985v-127h-807v-522h697v-127h-697v-551h826v-127h-965v455h-530l-289 -455h-156zM518 582h455v700z" />
<glyph unicode="&#xc7;" horiz-adv-x="1423" d="M102 737q0 133 47.5 261.5t133 232t219 167.5t291.5 64q188 0 327 -86t209 -231l-115 -70q-33 70 -83 121.5t-108 80.5t-117.5 42.5t-121.5 13.5q-126 0 -230 -53t-170 -139.5t-102 -193t-36 -218.5q0 -160 71 -300.5t197.5 -226t276.5 -85.5q86 0 168.5 27.5t159 90 t120.5 152.5l119 -61q-42 -98 -129 -173.5t-191 -115.5t-213 -47l-57 -94q30 12 78 12q72 0 113.5 -32.5t41.5 -92.5q0 -69 -53.5 -106t-154.5 -37q-102 0 -203 38l35 64q76 -37 180 -37q117 0 117 72q0 73 -103 73q-82 0 -164 -28l90 168q-138 7 -259.5 74.5t-204.5 172 t-131 235.5t-48 265z" />
<glyph unicode="&#xc8;" horiz-adv-x="1265" d="M195 0v1454h958v-127h-817v-524h713v-121h-713v-555h835v-127h-976zM512 1878h145l123 -190l-90 -35z" />
<glyph unicode="&#xc9;" horiz-adv-x="1265" d="M195 0v1454h958v-127h-817v-524h713v-121h-713v-555h835v-127h-976zM623 1688l120 190h148l-176 -225z" />
<glyph unicode="&#xca;" horiz-adv-x="1265" d="M195 0v1454h958v-127h-817v-524h713v-121h-713v-555h835v-127h-976zM449 1704l200 174h103l202 -174l-80 -43l-174 129l-174 -129z" />
<glyph unicode="&#xcb;" horiz-adv-x="1265" d="M195 0h976v127h-835v555h713v121h-713v524h817v127h-958v-1454zM467 1757q0 34 23 57t57 23t57 -23t23 -57t-23 -57t-57 -23t-57 23t-23 57zM774 1757q0 34 23 57t57 23t57 -23t23 -57t-23 -57t-57 -23t-57 23t-23 57z" />
<glyph unicode="&#xcc;" horiz-adv-x="520" d="M74 1878h145l123 -190l-90 -35zM195 0v1452h141v-1452h-141z" />
<glyph unicode="&#xcd;" horiz-adv-x="520" d="M186 1688l121 190h148l-176 -225zM195 0v1452h141v-1452h-141z" />
<glyph unicode="&#xce;" horiz-adv-x="520" d="M12 1704l201 174h102l203 -174l-80 -43l-174 129l-174 -129zM195 0v1452h141v-1452h-141z" />
<glyph unicode="&#xcf;" horiz-adv-x="520" d="M31 1757q0 34 23 57t57 23t56.5 -23t22.5 -57t-22.5 -57t-56.5 -23t-57 23t-23 57zM195 0h141v1452h-141v-1452zM338 1757q0 34 23 57t57 23t57 -23t23 -57t-23 -57t-57 -23t-57 23t-23 57z" />
<glyph unicode="&#xd0;" horiz-adv-x="1490" d="M80 676v110h125v668h491q170 0 304.5 -56.5t219 -156t129 -230t44.5 -282.5q0 -331 -189 -530t-508 -199h-491v676h-125zM346 127h350q133 0 239 46t174 127t104 190.5t36 238.5q0 267 -146.5 432.5t-406.5 165.5h-350v-541h350v-110h-350v-549z" />
<glyph unicode="&#xd1;" horiz-adv-x="1593" d="M195 0v1454h110l963 -1210v1208h141v-1452h-123l-950 1188v-1188h-141zM483 1673q0 11 4.5 31t17.5 48.5t32.5 52.5t54.5 41.5t78 17.5q48 0 92.5 -21.5t86 -43t83.5 -21.5q30 0 53 10t34.5 23t18.5 28.5t9 24.5t2 14h86q0 -11 -4.5 -30t-18.5 -47.5t-35 -52.5t-58.5 -41 t-84.5 -17q-52 0 -99.5 20.5t-87.5 41t-75 20.5q-31 0 -53.5 -13.5t-32 -32.5t-13.5 -32.5t-4 -20.5h-86z" />
<glyph unicode="&#xd2;" d="M102 727q0 144 53 278.5t142.5 235.5t218 162t270.5 61q118 0 226 -41.5t189.5 -113.5t142 -166t91.5 -201.5t31 -216.5q0 -144 -52.5 -278t-142 -235t-217.5 -161.5t-270 -60.5q-148 0 -277.5 63t-217 166t-137.5 235.5t-50 272.5zM246 727q0 -158 67 -296.5t192 -225 t279 -86.5q120 0 223 53t171 139t106.5 194.5t38.5 221.5q0 158 -68 296t-193 224t-278 86q-120 0 -223 -52.5t-170.5 -138t-106 -194t-38.5 -221.5zM596 1878h145l123 -190l-90 -35z" />
<glyph unicode="&#xd3;" d="M102 727q0 144 53 278.5t142.5 235.5t218 162t270.5 61q118 0 226 -41.5t189.5 -113.5t142 -166t91.5 -201.5t31 -216.5q0 -144 -52.5 -278t-142 -235t-217.5 -161.5t-270 -60.5q-148 0 -277.5 63t-217 166t-137.5 235.5t-50 272.5zM246 727q0 -158 67 -296.5t192 -225 t279 -86.5q120 0 223 53t171 139t106.5 194.5t38.5 221.5q0 158 -68 296t-193 224t-278 86q-120 0 -223 -52.5t-170.5 -138t-106 -194t-38.5 -221.5zM707 1688l120 190h148l-176 -225z" />
<glyph unicode="&#xd4;" d="M102 727q0 144 53 278.5t142.5 235.5t218 162t270.5 61q118 0 226 -41.5t189.5 -113.5t142 -166t91.5 -201.5t31 -216.5q0 -144 -52.5 -278t-142 -235t-217.5 -161.5t-270 -60.5q-148 0 -277.5 63t-217 166t-137.5 235.5t-50 272.5zM246 727q0 -158 67 -296.5t192 -225 t279 -86.5q120 0 223 53t171 139t106.5 194.5t38.5 221.5q0 158 -68 296t-193 224t-278 86q-120 0 -223 -52.5t-170.5 -138t-106 -194t-38.5 -221.5zM535 1704l200 174h103l202 -174l-79 -43l-175 129l-174 -129z" />
<glyph unicode="&#xd5;" d="M102 727q0 144 53 278.5t142.5 235.5t218 162t270.5 61q118 0 226 -41.5t189.5 -113.5t142 -166t91.5 -201.5t31 -216.5q0 -144 -52.5 -278t-142 -235t-217.5 -161.5t-270 -60.5q-148 0 -277.5 63t-217 166t-137.5 235.5t-50 272.5zM246 727q0 -158 67 -296.5t192 -225 t279 -86.5q120 0 223 53t171 139t106.5 194.5t38.5 221.5q0 158 -68 296t-193 224t-278 86q-120 0 -223 -52.5t-170.5 -138t-106 -194t-38.5 -221.5zM463 1673q0 16 8 43t26.5 62.5t58.5 60.5t93 25q48 0 92.5 -21.5t86 -43t83.5 -21.5q30 0 53 10t34.5 23t18.5 28.5t9 24.5 t2 14h86q0 -11 -4.5 -30t-18.5 -47.5t-35 -52.5t-58.5 -41t-84.5 -17q-52 0 -99.5 20.5t-87.5 41t-75 20.5q-31 0 -53.5 -13.5t-32 -33t-13 -32.5t-3.5 -20h-86z" />
<glyph unicode="&#xd6;" d="M102 727q0 -140 50 -272.5t137.5 -235.5t217 -166t277.5 -63q142 0 270 60.5t217.5 161.5t142 235t52.5 278q0 109 -31 216.5t-91.5 201.5t-142 166t-189.5 113.5t-226 41.5q-142 0 -270.5 -61t-218 -162t-142.5 -235.5t-53 -278.5zM246 727q0 113 38.5 221.5t106 194 t170.5 138t223 52.5q153 0 278 -86t193 -224t68 -296q0 -113 -38.5 -221.5t-106.5 -194.5t-171 -139t-223 -53q-154 0 -279 86.5t-192 225t-67 296.5zM551 1757q0 34 23 57t57 23t57 -23t23 -57t-23 -57t-57 -23t-57 23t-23 57zM858 1757q0 34 23 57t57 23t57 -23t23 -57 t-23 -57t-57 -23t-57 23t-23 57z" />
<glyph unicode="&#xd7;" horiz-adv-x="956" d="M145 311l248 246l-246 248l91 88l245 -246l246 248l88 -90l-246 -248l250 -248l-90 -88l-248 248l-250 -248z" />
<glyph unicode="&#xd8;" d="M102 727q0 144 53 278.5t142.5 235.5t218 162t270.5 61q183 0 340 -100l62 90h160l-117 -174q110 -107 172.5 -254t62.5 -301q0 -144 -52.5 -278t-142 -235t-217.5 -161.5t-270 -60.5q-190 0 -346 100l-59 -90h-158l115 172q-110 106 -172 252t-62 303zM246 727 q0 -125 43.5 -240t122.5 -202l641 966q-125 82 -269 82q-120 0 -223 -52.5t-170.5 -138t-106 -194t-38.5 -221.5zM512 201q125 -82 272 -82q120 0 223 53t171 139t106.5 194.5t38.5 221.5q0 123 -44.5 237.5t-123.5 200.5z" />
<glyph unicode="&#xd9;" horiz-adv-x="1556" d="M172 721v733h141v-733q0 -96 14 -180t48 -163t86 -135.5t134 -90t187 -33.5q107 0 190.5 34.5t135.5 91.5t85.5 136.5t46.5 162.5t13 177v733h144v-733q0 -121 -20.5 -226.5t-67 -199.5t-116.5 -160.5t-174.5 -105.5t-234.5 -39q-135 0 -241 41t-174.5 109t-114 163.5 t-64 198.5t-18.5 219zM594 1878h145l123 -190l-90 -35z" />
<glyph unicode="&#xda;" horiz-adv-x="1556" d="M172 721v733h141v-733q0 -96 14 -180t48 -163t86 -135.5t134 -90t187 -33.5q107 0 190.5 34.5t135.5 91.5t85.5 136.5t46.5 162.5t13 177v733h144v-733q0 -121 -20.5 -226.5t-67 -199.5t-116.5 -160.5t-174.5 -105.5t-234.5 -39q-135 0 -241 41t-174.5 109t-114 163.5 t-64 198.5t-18.5 219zM705 1688l120 190h148l-176 -225z" />
<glyph unicode="&#xdb;" horiz-adv-x="1556" d="M172 721v733h141v-733q0 -96 14 -180t48 -163t86 -135.5t134 -90t187 -33.5q107 0 190.5 34.5t135.5 91.5t85.5 136.5t46.5 162.5t13 177v733h144v-733q0 -121 -20.5 -226.5t-67 -199.5t-116.5 -160.5t-174.5 -105.5t-234.5 -39q-135 0 -241 41t-174.5 109t-114 163.5 t-64 198.5t-18.5 219zM532 1704l201 174h103l202 -174l-80 -43l-174 129l-174 -129z" />
<glyph unicode="&#xdc;" horiz-adv-x="1556" d="M172 721q0 -116 18.5 -219t64 -198.5t114 -163.5t174.5 -109t241 -41q130 0 234.5 39t174.5 105.5t116.5 160.5t67 199.5t20.5 226.5v733h-144v-733q0 -94 -13 -177t-46.5 -162.5t-85.5 -136.5t-135.5 -91.5t-190.5 -34.5q-105 0 -187 33.5t-134 90t-86 135.5t-48 163 t-14 180v733h-141v-733zM551 1757q0 34 23 57t57 23t57 -23t23 -57t-23 -57t-57 -23t-57 23t-23 57zM858 1757q0 34 23 57t57 23t57 -23t23 -57t-23 -57t-57 -23t-57 23t-23 57z" />
<glyph unicode="&#xdd;" horiz-adv-x="1308" d="M27 1454h155l477 -782l480 782h155l-565 -913v-541h-141v545zM580 1688l120 190h148l-176 -225z" />
<glyph unicode="&#xde;" horiz-adv-x="1251" d="M195 0v1454h141v-289h422q121 0 221.5 -67t155.5 -171.5t55 -217.5q0 -120 -52 -224.5t-149.5 -170.5t-218.5 -66h-434v-248h-141zM336 377h430q124 0 202.5 99.5t78.5 232.5t-87 231t-208 98h-416v-661z" />
<glyph unicode="&#xdf;" horiz-adv-x="1138" d="M160 0v1055q0 181 115 294t294 113q164 0 273.5 -92t109.5 -235q0 -108 -63.5 -198t-153.5 -112q150 -32 236 -141t86 -260q0 -203 -151.5 -315.5t-411.5 -120.5v129q197 3 308 82t111 233q0 144 -94.5 233t-247.5 89h-36v127h34q109 0 179.5 65.5t70.5 167.5 q0 105 -73 165t-181 60q-130 0 -201 -86t-71 -219v-1034h-133z" />
<glyph unicode="&#xe0;" horiz-adv-x="1239" d="M90 530q0 149 66 277t180.5 203t249.5 75q129 0 234.5 -66.5t166.5 -176.5v217h139v-1059h-139v215q-62 -109 -162.5 -172t-226.5 -63q-145 0 -263 77t-181.5 202.5t-63.5 270.5zM233 530q0 -175 113.5 -301.5t280.5 -126.5q123 0 217.5 73t142.5 190v323 q-47 122 -145.5 198.5t-218.5 76.5q-112 0 -203 -65t-139 -163.5t-48 -204.5zM440 1495h146l123 -190l-91 -35z" />
<glyph unicode="&#xe1;" horiz-adv-x="1239" d="M90 530q0 149 66 277t180.5 203t249.5 75q129 0 234.5 -66.5t166.5 -176.5v217h139v-1059h-139v215q-62 -109 -162.5 -172t-226.5 -63q-145 0 -263 77t-181.5 202.5t-63.5 270.5zM233 530q0 -175 113.5 -301.5t280.5 -126.5q123 0 217.5 73t142.5 190v323 q-47 122 -145.5 198.5t-218.5 76.5q-112 0 -203 -65t-139 -163.5t-48 -204.5zM530 1305l121 190h148l-176 -225z" />
<glyph unicode="&#xe2;" horiz-adv-x="1239" d="M90 530q0 149 66 277t180.5 203t249.5 75q129 0 234.5 -66.5t166.5 -176.5v217h139v-1059h-139v215q-62 -109 -162.5 -172t-226.5 -63q-145 0 -263 77t-181.5 202.5t-63.5 270.5zM233 530q0 -175 113.5 -301.5t280.5 -126.5q123 0 217.5 73t142.5 190v323 q-47 122 -145.5 198.5t-218.5 76.5q-112 0 -203 -65t-139 -163.5t-48 -204.5zM399 1321l201 174h102l203 -174l-80 -43l-174 129l-174 -129z" />
<glyph unicode="&#xe3;" horiz-adv-x="1239" d="M90 530q0 149 66 277t180.5 203t249.5 75q129 0 234.5 -66.5t166.5 -176.5v217h139v-1059h-139v215q-62 -109 -162.5 -172t-226.5 -63q-145 0 -263 77t-181.5 202.5t-63.5 270.5zM233 530q0 -175 113.5 -301.5t280.5 -126.5q123 0 217.5 73t142.5 190v323 q-47 122 -145.5 198.5t-218.5 76.5q-112 0 -203 -65t-139 -163.5t-48 -204.5zM307 1290q0 11 4.5 31t17.5 48.5t32.5 52.5t54.5 41.5t78 17.5q48 0 92.5 -21.5t86 -43t83.5 -21.5q30 0 52.5 10t34 23t19 28.5t9 24.5t1.5 14h86q0 -15 -8.5 -41.5t-28.5 -61.5t-62.5 -60 t-100.5 -25q-52 0 -99.5 20.5t-87.5 41t-75 20.5q-31 0 -53.5 -13.5t-32 -32.5t-13.5 -32.5t-4 -20.5h-86z" />
<glyph unicode="&#xe4;" horiz-adv-x="1239" d="M90 530q0 -145 63.5 -270.5t181.5 -202.5t263 -77q126 0 226.5 63t162.5 172v-215h139v1059h-139v-217q-61 110 -166.5 176.5t-234.5 66.5q-135 0 -249.5 -75t-180.5 -203t-66 -277zM233 530q0 106 48 204.5t139 163.5t203 65q120 0 218.5 -76.5t145.5 -198.5v-323 q-48 -117 -142.5 -190t-217.5 -73q-167 0 -280.5 126.5t-113.5 301.5zM416 1374q0 34 23 57t57 23t56.5 -23t22.5 -57t-22.5 -57t-56.5 -23t-57 23t-23 57zM723 1374q0 34 23 57t57 23t57 -23t23 -57t-23 -57t-57 -23t-57 23t-23 57z" />
<glyph unicode="&#xe5;" horiz-adv-x="1239" d="M90 530q0 149 66 277t180.5 203t249.5 75q129 0 234.5 -66.5t166.5 -176.5v217h139v-1059h-139v215q-62 -109 -162.5 -172t-226.5 -63q-145 0 -263 77t-181.5 202.5t-63.5 270.5zM233 530q0 -175 113.5 -301.5t280.5 -126.5q123 0 217.5 73t142.5 190v323 q-47 122 -145.5 198.5t-218.5 76.5q-112 0 -203 -65t-139 -163.5t-48 -204.5zM498 1362q0 60 42 96.5t109 36.5t109.5 -37t42.5 -96q0 -61 -42.5 -98t-109.5 -37t-109 37t-42 98zM567 1362q0 -34 23.5 -57t58.5 -23q33 0 58.5 23t25.5 57q0 35 -24 56.5t-60 21.5 q-35 0 -58.5 -21.5t-23.5 -56.5z" />
<glyph unicode="&#xe6;" horiz-adv-x="1918" d="M80 311q0 141 124 231.5t320 90.5q144 0 275 -41q7 90 35 156q-19 109 -96.5 171t-198.5 62q-156 0 -340 -127l-49 92q207 139 401 139q131 0 226 -55.5t143 -157.5q70 98 175.5 155.5t231.5 57.5q152 0 274.5 -75t190 -201t68.5 -277q0 -41 -2 -49h-928 q13 -171 130.5 -284t278.5 -113q106 0 199 54t129 139l121 -33q-50 -118 -175.5 -192t-279.5 -74q-137 0 -252 63.5t-186 171.5q-44 -79 -124.5 -134t-166 -78t-172.5 -23q-149 0 -250.5 95.5t-101.5 235.5zM211 322q0 -99 74 -167.5t180 -68.5q108 0 200 41t140 109 q34 34 37 71q-39 77 -43 197q-121 41 -256 41q-148 0 -240 -61.5t-92 -161.5zM930 578h796q-12 175 -125 287t-276 112t-274.5 -113t-120.5 -286z" />
<glyph unicode="&#xe7;" horiz-adv-x="1140" d="M92 537q0 151 67.5 276t190.5 198.5t277 73.5q149 0 262.5 -67.5t171.5 -186.5l-135 -43q-44 82 -125 128.5t-178 46.5q-164 0 -275.5 -122t-111.5 -304q0 -181 114.5 -308t274.5 -127q101 0 193.5 54.5t117.5 128.5l135 -41q-41 -109 -152.5 -181t-252.5 -81l-54 -86 q30 12 78 12q72 0 114 -32.5t42 -92.5q0 -69 -54 -106t-155 -37q-102 0 -203 38l35 64q76 -37 180 -37q117 0 117 72q0 73 -102 73q-82 0 -164 -28l86 160q-213 15 -353.5 175.5t-140.5 379.5z" />
<glyph unicode="&#xe8;" horiz-adv-x="1212" d="M90 537q0 148 68.5 273.5t192 200t274.5 74.5t273 -75.5t188 -200t67 -270.5q0 -40 -4 -56h-911q12 -171 125 -284t268 -113q107 0 199 53.5t128 139.5l121 -33q-50 -118 -174.5 -192t-277.5 -74q-152 0 -276 76t-192.5 203t-68.5 278zM233 590h787q-13 169 -125 278 t-270 109t-270 -109.5t-122 -277.5zM428 1495h145l123 -190l-90 -35z" />
<glyph unicode="&#xe9;" horiz-adv-x="1212" d="M90 537q0 148 68.5 273.5t192 200t274.5 74.5t273 -75.5t188 -200t67 -270.5q0 -40 -4 -56h-911q12 -171 125 -284t268 -113q107 0 199 53.5t128 139.5l121 -33q-50 -118 -174.5 -192t-277.5 -74q-152 0 -276 76t-192.5 203t-68.5 278zM233 590h787q-13 169 -125 278 t-270 109t-270 -109.5t-122 -277.5zM539 1305l120 190h148l-176 -225z" />
<glyph unicode="&#xea;" horiz-adv-x="1212" d="M90 537q0 148 68.5 273.5t192 200t274.5 74.5t273 -75.5t188 -200t67 -270.5q0 -40 -4 -56h-911q12 -171 125 -284t268 -113q107 0 199 53.5t128 139.5l121 -33q-50 -118 -174.5 -192t-277.5 -74q-152 0 -276 76t-192.5 203t-68.5 278zM233 590h787q-13 169 -125 278 t-270 109t-270 -109.5t-122 -277.5zM367 1321l200 174h103l202 -174l-79 -43l-175 129l-174 -129z" />
<glyph unicode="&#xeb;" horiz-adv-x="1212" d="M90 537q0 -151 68.5 -278t192.5 -203t276 -76q153 0 277.5 74t174.5 192l-121 33q-36 -86 -128 -139.5t-199 -53.5q-155 0 -268 113t-125 284h911q4 16 4 56q-1 146 -67 270.5t-188 200t-273 75.5t-274.5 -74.5t-192 -200t-68.5 -273.5zM233 590q10 168 122 277.5 t270 109.5t270 -109t125 -278h-787zM385 1374q0 34 23 57t57 23t57 -23t23 -57t-23 -57t-57 -23t-57 23t-23 57zM692 1374q0 34 23 57t57 23t57 -23t23 -57t-23 -57t-57 -23t-57 23t-23 57z" />
<glyph unicode="&#xec;" horiz-adv-x="448" d="M39 1495h145l123 -190l-90 -35zM160 0v1067h139v-1067h-139z" />
<glyph unicode="&#xed;" horiz-adv-x="448" d="M150 1305l120 190h148l-176 -225zM160 0v1067h139v-1067h-139z" />
<glyph unicode="&#xee;" horiz-adv-x="448" d="M-23 1321l201 174h103l202 -174l-80 -43l-174 129l-174 -129zM160 0v1067h139v-1067h-139z" />
<glyph unicode="&#xef;" horiz-adv-x="518" d="M31 1370q0 34 23 57t57 23t56.5 -23t22.5 -57t-22.5 -57t-56.5 -23t-57 23t-23 57zM195 0h139v1067h-139v-1067zM338 1370q0 34 23 57t57 23t57 -23t23 -57t-23 -57t-57 -23t-57 23t-23 57z" />
<glyph unicode="&#xf0;" horiz-adv-x="1245" d="M94 477q0 132 67.5 246t183.5 181t251 67q134 0 247 -66.5t169 -173.5q-22 142 -82.5 267t-181.5 243l-228 -143l-45 63l215 133q-112 97 -293 201h197q115 -70 205 -147l180 112l45 -61l-170 -105q301 -298 301 -727q0 -129 -43.5 -240t-117 -186t-171.5 -118t-207 -43 q-106 0 -202.5 39t-166.5 105.5t-111.5 158.5t-41.5 194zM238 475q0 -155 111.5 -264t271.5 -109q162 0 276.5 116.5t114.5 275.5q0 151 -113 255.5t-272 104.5q-161 0 -275 -111t-114 -268z" />
<glyph unicode="&#xf1;" horiz-adv-x="1196" d="M160 0v1067h127v-242q65 117 188 188.5t264 71.5q88 0 150.5 -31.5t99 -93.5t52.5 -144t16 -191v-625h-139v596q0 188 -55 275t-173 87q-126 0 -239 -87t-152 -218v-653h-139zM289 1290q0 16 8 43t26.5 62.5t58.5 60.5t93 25q48 0 92.5 -21.5t86 -43t83.5 -21.5 q30 0 53 10t34.5 23t18.5 28.5t9 24.5t2 14h86q0 -11 -4.5 -30t-18.5 -47.5t-35 -52.5t-58.5 -41t-84.5 -17q-52 0 -99.5 20.5t-87.5 41t-75 20.5q-31 0 -53.5 -13.5t-32 -33t-13 -32.5t-3.5 -20h-86z" />
<glyph unicode="&#xf2;" horiz-adv-x="1228" d="M90 530q0 148 68.5 275.5t191 203.5t271.5 76t271.5 -76t190.5 -203.5t68 -275.5t-67.5 -273.5t-190 -201t-272.5 -75.5q-152 0 -274.5 75.5t-189.5 201t-67 273.5zM233 528q0 -178 112.5 -302t272.5 -124t275 126t115 304t-114 304.5t-273 126.5q-160 0 -274 -127.5 t-114 -307.5zM430 1495h145l123 -190l-90 -35z" />
<glyph unicode="&#xf3;" horiz-adv-x="1228" d="M90 530q0 148 68.5 275.5t191 203.5t271.5 76t271.5 -76t190.5 -203.5t68 -275.5t-67.5 -273.5t-190 -201t-272.5 -75.5q-152 0 -274.5 75.5t-189.5 201t-67 273.5zM233 528q0 -178 112.5 -302t272.5 -124t275 126t115 304t-114 304.5t-273 126.5q-160 0 -274 -127.5 t-114 -307.5zM541 1305l121 190h147l-176 -225z" />
<glyph unicode="&#xf4;" horiz-adv-x="1228" d="M90 530q0 148 68.5 275.5t191 203.5t271.5 76t271.5 -76t190.5 -203.5t68 -275.5t-67.5 -273.5t-190 -201t-272.5 -75.5q-152 0 -274.5 75.5t-189.5 201t-67 273.5zM233 528q0 -178 112.5 -302t272.5 -124t275 126t115 304t-114 304.5t-273 126.5q-160 0 -274 -127.5 t-114 -307.5zM367 1321l200 174h103l202 -174l-79 -43l-175 129l-174 -129z" />
<glyph unicode="&#xf5;" horiz-adv-x="1228" d="M90 530q0 148 68.5 275.5t191 203.5t271.5 76t271.5 -76t190.5 -203.5t68 -275.5t-67.5 -273.5t-190 -201t-272.5 -75.5q-152 0 -274.5 75.5t-189.5 201t-67 273.5zM233 528q0 -178 112.5 -302t272.5 -124t275 126t115 304t-114 304.5t-273 126.5q-160 0 -274 -127.5 t-114 -307.5zM297 1290q0 16 8 43t26.5 62.5t58.5 60.5t93 25q48 0 92.5 -21.5t86 -43t83.5 -21.5q30 0 53 10t34.5 23t18.5 28.5t9 24.5t2 14h86q0 -15 -8.5 -41.5t-28.5 -61.5t-62.5 -60t-100.5 -25q-52 0 -99.5 20.5t-88 41t-75.5 20.5q-31 0 -53.5 -13.5t-32 -33 t-13 -32.5t-3.5 -20h-86z" />
<glyph unicode="&#xf6;" horiz-adv-x="1228" d="M90 530q0 -148 67 -273.5t189.5 -201t274.5 -75.5q150 0 272.5 75.5t190 201t67.5 273.5t-68 275.5t-190.5 203.5t-271.5 76t-271.5 -76t-191 -203.5t-68.5 -275.5zM233 528q0 180 114 307.5t274 127.5q159 0 273 -126.5t114 -304.5t-115 -304t-275 -126t-272.5 124 t-112.5 302zM385 1374q0 34 23 57t57 23t57 -23t23 -57t-23 -57t-57 -23t-57 23t-23 57zM692 1374q0 34 23 57t57 23t57 -23t23 -57t-23 -57t-57 -23t-57 23t-23 57z" />
<glyph unicode="&#xf7;" horiz-adv-x="1105" d="M145 520h826v117h-826v-117zM479 256q0 34 23 57t57 23t57 -23t23 -57t-23 -57t-57 -23t-57 23t-23 57zM479 897q0 34 23 57t57 23t57 -23t23 -57t-23 -57t-57 -23t-57 23t-23 57z" />
<glyph unicode="&#xf8;" horiz-adv-x="1228" d="M90 530q0 148 68.5 275.5t191 203.5t271.5 76q148 0 274 -77l47 63h96l-82 -110q91 -77 143 -190.5t52 -240.5q0 -148 -67.5 -273.5t-190 -201t-272.5 -75.5q-155 0 -281 77l-45 -59h-94l80 104q-90 77 -140.5 189t-50.5 239zM233 528q0 -195 129 -321l459 692 q-97 64 -200 64q-160 0 -274 -127.5t-114 -307.5zM418 164q91 -62 200 -62q160 0 275 126t115 304q0 93 -35 177t-96 145z" />
<glyph unicode="&#xf9;" horiz-adv-x="1226" d="M150 440v627h139v-602q0 -363 248 -363q125 0 231.5 80t153.5 213v672h139v-887q0 -57 51 -57v-123q-40 -6 -57 -6q-48 0 -81.5 29t-33.5 71v148q-70 -124 -190 -193t-261 -69q-167 0 -253 116.5t-86 343.5zM412 1495h145l123 -190l-90 -35z" />
<glyph unicode="&#xfa;" horiz-adv-x="1226" d="M150 440v627h139v-602q0 -363 248 -363q125 0 231.5 80t153.5 213v672h139v-887q0 -57 51 -57v-123q-40 -6 -57 -6q-48 0 -81.5 29t-33.5 71v148q-70 -124 -190 -193t-261 -69q-167 0 -253 116.5t-86 343.5zM522 1305l121 190h148l-177 -225z" />
<glyph unicode="&#xfb;" horiz-adv-x="1226" d="M150 440v627h139v-602q0 -363 248 -363q125 0 231.5 80t153.5 213v672h139v-887q0 -57 51 -57v-123q-40 -6 -57 -6q-48 0 -81.5 29t-33.5 71v148q-70 -124 -190 -193t-261 -69q-167 0 -253 116.5t-86 343.5zM350 1321l201 174h102l203 -174l-80 -43l-174 129l-174 -129z " />
<glyph unicode="&#xfc;" horiz-adv-x="1226" d="M150 440q0 -227 86 -343.5t253 -116.5q141 0 261 69t190 193v-148q0 -42 33.5 -71t81.5 -29q17 0 57 6v123q-51 0 -51 57v887h-139v-672q-47 -133 -153.5 -213t-231.5 -80q-248 0 -248 363v602h-139v-627zM367 1374q0 34 22.5 57t56.5 23t57 -23t23 -57t-23 -57t-57 -23 t-56.5 23t-22.5 57zM674 1374q0 34 23 57t57 23t57 -23t23 -57t-23 -57t-57 -23t-57 23t-23 57z" />
<glyph unicode="&#xfd;" horiz-adv-x="1120" d="M37 1067h145l396 -938l364 938h133l-555 -1376q-32 -77 -85 -113.5t-144 -36.5q-40 0 -70 6v123q24 -4 41 -4q50 0 78 12q23 9 53 68t109 254zM498 1305l120 190h148l-176 -225z" />
<glyph unicode="&#xfe;" horiz-adv-x="1243" d="M160 -436v1890h143v-565q141 201 354 201q114 0 211.5 -50.5t161 -131.5t99 -181t34.5 -201q-2 -146 -71 -274.5t-189.5 -206.5t-263.5 -78q-105 0 -197 53.5t-139 131.5v-588h-143zM303 352q0 -63 54.5 -124t132 -96.5t147.5 -35.5q108 0 197.5 62t138.5 160.5t49 209.5 q0 113 -46 212t-132 161t-193 62q-115 0 -204 -70.5t-144 -179.5v-361z" />
<glyph unicode="&#xff;" horiz-adv-x="1120" d="M37 1067l465 -1067q-79 -195 -109 -254t-53 -68q-28 -12 -78 -12q-17 0 -41 4v-123q30 -6 70 -6q91 0 144 36.5t85 113.5l555 1376h-133l-364 -938l-396 938h-145zM344 1374q0 34 23 57t57 23t57 -23t23 -57t-23 -57t-57 -23t-57 23t-23 57zM651 1374q0 34 23 57t57 23 t57 -23t23 -57t-23 -57t-57 -23t-57 23t-23 57z" />
<glyph unicode="&#x152;" horiz-adv-x="2385" d="M102 727q0 144 53 278.5t142.5 235.5t218 162t270.5 61q183 0 326.5 -107t214.5 -272v369h948v-127h-805v-522h695v-127h-695v-551h824v-127h-967v369q-71 -167 -217 -273t-324 -106q-148 0 -277.5 63t-217.5 166t-138.5 235.5t-50.5 272.5zM246 727q0 -158 67 -296.5 t192 -225t279 -86.5q120 0 223 52.5t171 139t106.5 195.5t38.5 223q0 157 -68 295t-193 224.5t-278 86.5q-96 0 -182 -34t-150 -93.5t-111 -136.5t-71 -165.5t-24 -178.5z" />
<glyph unicode="&#x153;" horiz-adv-x="2131" d="M92 528q0 154 70 282t191.5 201.5t267.5 73.5q156 0 278 -90.5t178 -246.5q57 160 178 248.5t285 88.5q224 0 367.5 -151t160.5 -402q0 -41 -2 -49h-911q14 -168 131.5 -282.5t278.5 -114.5q111 0 203 53.5t126 139.5l117 -33q-52 -118 -178 -192t-274 -74 q-153 0 -282.5 90.5t-197.5 242.5q-68 -156 -189 -244.5t-272 -88.5q-223 0 -374.5 158.5t-151.5 389.5zM233 526q0 -180 112.5 -302t275.5 -122t275 124t112 304q0 181 -112 307t-273 126t-275.5 -128t-114.5 -309zM1153 578h780q-12 173 -125.5 286t-271.5 113 q-157 0 -265.5 -113t-117.5 -286z" />
<glyph unicode="&#x178;" horiz-adv-x="1308" d="M27 1454l561 -909v-545h141v541l565 913h-155l-480 -782l-477 782h-155zM424 1757q0 34 23 57t57 23t57 -23t23 -57t-23 -57t-57 -23t-57 23t-23 57zM731 1757q0 34 23 57t57 23t57 -23t23 -57t-23 -57t-57 -23t-57 23t-23 57z" />
<glyph unicode="&#x2c6;" horiz-adv-x="686" d="M96 1321l201 174h102l203 -174l-80 -43l-174 129l-174 -129z" />
<glyph unicode="&#x2dc;" horiz-adv-x="841" d="M100 1290q0 11 4.5 31t17.5 48.5t32.5 52.5t54.5 41.5t78 17.5q48 0 92.5 -21.5t86 -43t83.5 -21.5q30 0 53 10t34.5 23t18.5 28.5t9 24.5t2 14h86q0 -11 -4.5 -30t-18.5 -47.5t-35 -52.5t-58.5 -41t-84.5 -17q-52 0 -99.5 20.5t-87.5 41t-75 20.5q-31 0 -53.5 -13.5 t-32 -32.5t-13.5 -32.5t-4 -20.5h-86z" />
<glyph unicode="&#x2000;" horiz-adv-x="939" />
<glyph unicode="&#x2001;" horiz-adv-x="1878" />
<glyph unicode="&#x2002;" horiz-adv-x="939" />
<glyph unicode="&#x2003;" horiz-adv-x="1878" />
<glyph unicode="&#x2004;" horiz-adv-x="626" />
<glyph unicode="&#x2005;" horiz-adv-x="469" />
<glyph unicode="&#x2006;" horiz-adv-x="313" />
<glyph unicode="&#x2007;" horiz-adv-x="313" />
<glyph unicode="&#x2008;" horiz-adv-x="234" />
<glyph unicode="&#x2009;" horiz-adv-x="375" />
<glyph unicode="&#x200a;" horiz-adv-x="104" />
<glyph unicode="&#x2010;" horiz-adv-x="876" d="M145 494v129h596v-129h-596z" />
<glyph unicode="&#x2011;" horiz-adv-x="876" d="M145 494v129h596v-129h-596z" />
<glyph unicode="&#x2012;" horiz-adv-x="876" d="M145 494v129h596v-129h-596z" />
<glyph unicode="&#x2013;" horiz-adv-x="1177" d="M145 494v129h899v-129h-899z" />
<glyph unicode="&#x2014;" horiz-adv-x="1855" d="M145 494v129h1577v-129h-1577z" />
<glyph unicode="&#x2018;" horiz-adv-x="415" d="M121 1255q0 19 4 42t17.5 63t49.5 77.5t89 61.5v-65q-35 -24 -56.5 -71.5t-19.5 -78.5q38 2 61.5 -13t30 -31t6.5 -32q0 -36 -24 -59t-58 -23q-47 0 -73.5 38t-26.5 91z" />
<glyph unicode="&#x2019;" horiz-adv-x="415" d="M121 1417q0 36 24 59t58 23q47 0 73.5 -38t26.5 -91q0 -19 -4 -42t-17.5 -63t-49.5 -77.5t-89 -61.5v68q35 23 56 70t18 77q-28 -1 -48.5 6.5t-30 21t-13.5 25.5t-4 23z" />
<glyph unicode="&#x201a;" horiz-adv-x="403" d="M106 78q0 35 24 57.5t58 22.5q47 0 73 -37t26 -90q0 -20 -4 -43t-17.5 -63.5t-48.5 -78t-88 -61.5v68q35 23 56 70.5t18 76.5q-54 -1 -75.5 24t-21.5 54z" />
<glyph unicode="&#x201c;" horiz-adv-x="677" d="M121 1255q0 19 4 42t17.5 63t49.5 77.5t89 61.5v-65q-35 -24 -56.5 -71.5t-19.5 -78.5q38 2 61.5 -13t30 -31t6.5 -32q0 -36 -24 -59t-58 -23q-47 0 -73.5 38t-26.5 91zM360 1255q0 21 3 42t16 62.5t48.5 78.5t90.5 61v-65q-35 -24 -56 -72t-18 -78q29 1 49.5 -6.5 t30 -21t13.5 -25.5t4 -23q0 -36 -24 -59t-58 -23q-47 0 -73 38t-26 91z" />
<glyph unicode="&#x201d;" horiz-adv-x="677" d="M121 1417q0 36 24 59t58 23q47 0 73.5 -38t26.5 -91q0 -19 -4 -42t-17.5 -63t-49.5 -77.5t-89 -61.5v68q35 23 56 70t18 77q-28 -1 -48.5 6.5t-30 21t-13.5 25.5t-4 23zM360 1417q0 36 24 59t58 23q47 0 73 -38t26 -91q0 -14 -1.5 -30t-10.5 -47.5t-24.5 -59t-47 -58 t-74.5 -49.5v68q35 23 56 70t18 77q-29 -1 -49.5 6.5t-30 21t-13.5 25.5t-4 23z" />
<glyph unicode="&#x201e;" horiz-adv-x="669" d="M121 78q0 35 24 57.5t58 22.5q47 0 73.5 -37t26.5 -90q0 -20 -4 -43t-17.5 -63.5t-49.5 -78t-89 -61.5v68q35 23 56 70.5t18 76.5q-53 -1 -74.5 24t-21.5 54zM360 78q0 35 24 57.5t58 22.5q47 0 73 -37t26 -90q0 -20 -4 -43t-17.5 -63.5t-48.5 -78t-88 -61.5v68 q35 23 56 70.5t18 76.5q-54 -1 -75.5 24t-21.5 54z" />
<glyph unicode="&#x2022;" horiz-adv-x="737" d="M190 709q0 74 55 128t130 54t128.5 -54t53.5 -128q0 -76 -53.5 -130.5t-128.5 -54.5t-130 54.5t-55 130.5z" />
<glyph unicode="&#x2026;" horiz-adv-x="948" d="M123 80q0 34 23 57t57 23t57 -23t23 -57t-23 -57t-57 -23t-57 23t-23 57zM399 80q0 34 23 57t57 23t57 -23t23 -57t-23 -57t-57 -23t-57 23t-23 57zM672 80q0 34 23 57t57 23t56.5 -23t22.5 -57t-22.5 -57t-56.5 -23t-57 23t-23 57z" />
<glyph unicode="&#x202f;" horiz-adv-x="375" />
<glyph unicode="&#x2039;" horiz-adv-x="741" d="M100 489v76l510 365v-121l-395 -279l395 -274v-121z" />
<glyph unicode="&#x203a;" horiz-adv-x="741" d="M141 135v121l396 274l-396 279v121l508 -365v-76z" />
<glyph unicode="&#x205f;" horiz-adv-x="469" />
<glyph unicode="&#x20ac;" horiz-adv-x="1654" d="M80 549l37 88h180q-6 50 -6 127h-152l37 88h123q18 119 72.5 227t139 194.5t206.5 137.5t264 51q188 0 327.5 -86t209.5 -231l-115 -70q-33 70 -83 121.5t-108 80.5t-117.5 42.5t-121.5 13.5q-109 0 -202.5 -39.5t-158.5 -107.5t-108 -153t-60 -181h693l-37 -88h-666 q0 -80 6 -127h623l-39 -88h-565q52 -188 194.5 -310t325.5 -122q86 0 168.5 27.5t159 90t120.5 152.5l119 -61q-45 -104 -140.5 -182.5t-208 -117t-226.5 -38.5q-121 0 -231.5 45.5t-194 123t-143.5 178.5t-89 214h-233z" />
<glyph unicode="&#x2122;" horiz-adv-x="1495" d="M131 1360v98h487v-98h-194v-492h-98v492h-195zM713 868v586h135l176 -383l174 383h137v-586h-98v445l-172 -359h-82l-172 359v-445h-98z" />
<glyph unicode="&#x25fc;" horiz-adv-x="1064" d="M0 0v1065h1065v-1065h-1065z" />
<glyph unicode="&#xfb01;" horiz-adv-x="1040" d="M70 831v111h147v154q0 61 13.5 120t44 113.5t73.5 96t106.5 66t139.5 24.5q101 0 180.5 -30t128.5 -67l-63 -100q-35 32 -100 53t-138 21q-63 0 -111.5 -26t-77 -69t-43 -93.5t-14.5 -104.5v-158h535v-942h-139v831h-396v-831h-139v831h-147z" />
<glyph unicode="&#xfb02;" horiz-adv-x="1198" d="M70 831v111h147v164q0 187 94.5 298.5t276.5 111.5q174 0 268 -88.5t94 -231.5v-956q0 -48 30 -87.5t83 -39.5q14 0 31.5 2.5t32.5 5.5t28 6t21 5l8 3l28 -115q-3 -3 -30 -10t-74.5 -14.5t-89.5 -7.5q-95 0 -151 55.5t-56 136.5v989q0 42 -11.5 79.5t-36.5 71t-70 53.5 t-105 20q-79 0 -133 -48t-76.5 -116.5t-22.5 -149.5v-137h226v-111h-226v-831h-139v831h-147z" />
<glyph unicode="&#xfb03;" horiz-adv-x="1511" d="M70 831v111h147v90q0 107 34 196.5t109.5 148.5t180.5 59q129 0 231 -54q105 134 293 134q164 0 311 -97l-65 -100q-34 31 -99 52.5t-137 21.5q-63 0 -112 -26t-77.5 -69t-42.5 -93.5t-14 -104.5v-158h533v-942h-139v831h-394v-831h-139v831h-334v-831h-139v831h-147z M356 942h334v141q0 117 39 191q-56 41 -166 41q-55 0 -97.5 -27t-65 -70t-33.5 -89t-11 -93v-94z" />
<glyph unicode="&#xfb04;" horiz-adv-x="1675" d="M70 831v111h147v105q0 171 89.5 280t246.5 109q117 0 219 -54q97 134 293 134q174 0 268 -88.5t94 -231.5v-956q0 -48 30 -87.5t83 -39.5q15 0 33 2.5t33 5.5t28 6t21 5l8 3l27 -115q-1 -3 -29 -10t-75 -14.5t-89 -7.5q-95 0 -152 55.5t-57 136.5v989q0 42 -11.5 79.5 t-36 71t-69.5 53.5t-104 20q-60 0 -106.5 -27t-72.5 -73t-39 -100t-13 -114v-137h223v-111h-223v-831h-140v831h-340v-831h-139v831h-147zM356 942h340v141q0 130 31 193q-53 39 -149 39q-109 0 -165.5 -77.5t-56.5 -186.5v-109z" />
</font>
</defs>
</svg>
